<svg width="12" height="12" viewBox="0 0 12 12" fill="none" xmlns="http://www.w3.org/2000/svg">
<path d="M6.00002 0.166748C5.53978 0.166748 5.16669 0.539845 5.16669 1.00008V5.16675H1.00002C0.539783 5.16675 0.166687 5.53985 0.166687 6.00008C0.166687 6.46032 0.539784 6.83342 1.00002 6.83342H5.16669V11.0001C5.16669 11.4603 5.53978 11.8334 6.00002 11.8334C6.46026 11.8334 6.83335 11.4603 6.83335 11.0001V6.83342H11C11.4603 6.83342 11.8334 6.46032 11.8334 6.00008C11.8334 5.53985 11.4603 5.16675 11 5.16675H6.83335V1.00008C6.83335 0.539844 6.46026 0.166748 6.00002 0.166748Z" fill="#FFF2E6"/>
</svg>
