<svg width="20" height="20" viewBox="0 0 20 20" fill="none" xmlns="http://www.w3.org/2000/svg">
<path d="M4.49256 4.49252C4.05804 4.92704 4.05804 5.63155 4.49257 6.06607L8.42645 9.99997L4.49258 13.9338C4.05805 14.3684 4.05805 15.0729 4.49258 15.5074C4.9271 15.9419 5.63161 15.9419 6.06613 15.5074L10 11.5735L13.9339 15.5074C14.3684 15.9419 15.0729 15.9419 15.5074 15.5074C15.942 15.0729 15.942 14.3684 15.5074 13.9338L11.5736 9.99997L15.5074 6.06608C15.942 5.63155 15.942 4.92705 15.5074 4.49252C15.0729 4.058 14.3684 4.058 13.9339 4.49252L10 8.42641L6.06612 4.49252C5.63159 4.05799 4.92709 4.05799 4.49256 4.49252Z" fill="white"/>
</svg>
