<svg width="84" height="82" viewBox="0 0 84 82" fill="none" xmlns="http://www.w3.org/2000/svg">
<g filter="url(#filter0_d)">
<circle cx="42" cy="42" r="27" transform="rotate(90 42 42)" fill="url(#paint0_linear)"/>
<path d="M42 32.6666C41.2636 32.6666 40.6667 33.2636 40.6667 34V40.6666H34C33.2636 40.6666 32.6667 41.2636 32.6667 42C32.6667 42.7363 33.2636 43.3333 34 43.3333H40.6667V50C40.6667 50.7363 41.2636 51.3333 42 51.3333C42.7364 51.3333 43.3333 50.7363 43.3333 50V43.3333H50C50.7364 43.3333 51.3333 42.7363 51.3333 42C51.3333 41.2636 50.7364 40.6666 50 40.6666H43.3333V34C43.3333 33.2636 42.7364 32.6666 42 32.6666Z" fill="white"/>
</g>
<defs>
<filter id="filter0_d" x="0" y="0" width="84" height="84" filterUnits="userSpaceOnUse" color-interpolation-filters="sRGB">
<feFlood flood-opacity="0" result="BackgroundImageFix"/>
<feColorMatrix in="SourceAlpha" type="matrix" values="0 0 0 0 0 0 0 0 0 0 0 0 0 0 0 0 0 0 127 0"/>
<feOffset/>
<feGaussianBlur stdDeviation="7.5"/>
<feColorMatrix type="matrix" values="0 0 0 0 0.6125 0 0 0 0 0.0586436 0 0 0 0 0 0 0 0 1 0"/>
<feBlend mode="normal" in2="BackgroundImageFix" result="effect1_dropShadow"/>
<feBlend mode="normal" in="SourceGraphic" in2="effect1_dropShadow" result="shape"/>
</filter>
<linearGradient id="paint0_linear" x1="15" y1="15" x2="77.0622" y2="26.8791" gradientUnits="userSpaceOnUse">
<stop stop-color="#F1A31D"/>
<stop offset="1" stop-color="#FF005B"/>
</linearGradient>
</defs>
</svg>
