<svg width="28" height="28" viewBox="0 0 28 28" fill="none" xmlns="http://www.w3.org/2000/svg">
<path d="M17.5 3.5C18.1443 3.5 18.6667 4.02233 18.6667 4.66667L21 4.66667C21.6443 4.66667 22.1667 5.189 22.1667 5.83333C22.1667 6.47767 21.6443 7 21 7L7.00001 7C6.35568 7 5.83334 6.47767 5.83334 5.83333C5.83334 5.189 6.35568 4.66667 7.00001 4.66667L9.33334 4.66667C9.33334 4.02233 9.85568 3.5 10.5 3.5H17.5Z" fill="white"/>
<path fill-rule="evenodd" clip-rule="evenodd" d="M7.00001 8.16667H21V22.1667C21 23.4553 19.9553 24.5 18.6667 24.5H9.33334C8.04468 24.5 7.00001 23.4553 7.00001 22.1667V8.16667ZM11.0833 10.5C10.7612 10.5 10.5 10.7612 10.5 11.0833V21.5833C10.5 21.9055 10.7612 22.1667 11.0833 22.1667C11.4055 22.1667 11.6667 21.9055 11.6667 21.5833V11.0833C11.6667 10.7612 11.4055 10.5 11.0833 10.5ZM16.9167 10.5C16.5945 10.5 16.3333 10.7612 16.3333 11.0833V21.5833C16.3333 21.9055 16.5945 22.1667 16.9167 22.1667C17.2388 22.1667 17.5 21.9055 17.5 21.5833V11.0833C17.5 10.7612 17.2388 10.5 16.9167 10.5Z" fill="white"/>
</svg>
