<svg width="12" height="12" viewBox="0 0 12 12" fill="none" xmlns="http://www.w3.org/2000/svg">
<path d="M1.86226 7.86248L3.72402 7.86248L3.72402 9.9313C3.72402 10.617 4.27987 11.1729 4.96557 11.1729C5.65127 11.1729 6.20712 10.617 6.20712 9.9313L6.20712 8.7699C6.20712 8.13013 6.61798 7.57382 7.22949 7.38567L8.2761 7.06361L8.2761 0.621054C8.2761 0.604626 8.27693 0.588405 8.27734 0.572101C7.91126 0.206016 7.41475 0.00035946 6.89705 0.000359415L1.86227 0.000358974C0.833858 0.000358884 0.000183056 0.834033 0.000182966 1.86244L0.000182604 6.0004C0.000182514 7.02881 0.833857 7.86248 1.86226 7.86248Z" fill="white"/>
<path d="M10.1379 0.000180558L11.3793 0.000180667C11.7221 0.000180697 12 0.278086 12 0.620874L12 7.24161C12 7.5844 11.7221 7.8623 11.3793 7.8623L10.1379 7.8623C9.79513 7.8623 9.51722 7.5844 9.51722 7.24161L9.51722 0.620874C9.51722 0.278085 9.79513 0.000180529 10.1379 0.000180558Z" fill="white"/>
</svg>
