<svg width="24" height="24" viewBox="0 0 24 24" fill="none" xmlns="http://www.w3.org/2000/svg">
<path d="M5.7934 16.2937L8.58602 16.2937L8.58602 19.3969C8.58602 20.4255 9.4198 21.2593 10.4484 21.2593C11.4769 21.2593 12.3107 20.4255 12.3107 19.3969L12.3107 17.6548C12.3107 16.6952 12.927 15.8607 13.8442 15.5785L15.4142 15.0954L15.4142 5.43158C15.4142 5.40694 15.4154 5.38261 15.416 5.35815C14.8669 4.80902 14.1221 4.50054 13.3456 4.50054L5.7934 4.50054C4.25079 4.50054 3.00028 5.75105 3.00027 7.29366L3.00027 13.5006C3.00027 15.0432 4.25079 16.2937 5.7934 16.2937Z" fill="white"/>
<path d="M18.2069 4.50027L20.069 4.50027C20.5831 4.50027 21 4.91713 21 5.43131L21 15.3624C21 15.8766 20.5831 16.2935 20.069 16.2935L18.2069 16.2935C17.6927 16.2935 17.2758 15.8766 17.2758 15.3624L17.2758 5.43131C17.2758 4.91713 17.6927 4.50027 18.2069 4.50027Z" fill="white"/>
</svg>
