<svg width="16" height="16" viewBox="0 0 16 16" fill="none" xmlns="http://www.w3.org/2000/svg">
<path d="M12.5703 4.15672V9.59028L11.7994 10.1665L12.2205 10.7298L11.6574 11.1507L11.2363 10.5874L10.1097 11.4295L9.68881 10.8664L10.8153 10.0243L10.3943 9.46119L10.9574 9.04027L11.3784 9.60341L11.8672 9.23802V3.45141C10.8238 2.56292 9.47466 2 8 2C4.70445 2 2 4.70445 2 8C2 11.2955 4.70445 14 8 14C11.2955 14 14 11.2955 14 8C14 6.53694 13.4463 5.19673 12.5703 4.15672ZM4.13281 8H3.42969C3.42969 5.48 5.48 3.42969 8 3.42969V4.13281C5.86763 4.13281 4.13281 5.86763 4.13281 8ZM5.53906 8C5.53906 6.64318 6.64318 5.53906 8 5.53906C9.35682 5.53906 10.4609 6.64318 10.4609 8C10.4609 9.35682 9.35682 10.4609 8 10.4609C6.64318 10.4609 5.53906 9.35682 5.53906 8Z" fill="url(#paint0_linear)"/>
<path d="M8 6.24219C7.03079 6.24219 6.24219 7.03079 6.24219 8C6.24219 8.96921 7.03079 9.75781 8 9.75781C8.96921 9.75781 9.75781 8.96921 9.75781 8C9.75781 7.03079 8.96921 6.24219 8 6.24219ZM8 9.05469C7.41842 9.05469 6.94531 8.58158 6.94531 8C6.94531 7.41842 7.41842 6.94531 8 6.94531C8.58158 6.94531 9.05469 7.41842 9.05469 8C9.05469 8.58158 8.58158 9.05469 8 9.05469Z" fill="url(#paint1_linear)"/>
<path d="M8 7.64844C7.80603 7.64844 7.64844 7.80603 7.64844 8C7.64844 8.19397 7.80603 8.35156 8 8.35156C8.19397 8.35156 8.35156 8.19397 8.35156 8C8.35156 7.80603 8.19397 7.64844 8 7.64844Z" fill="url(#paint2_linear)"/>
<path d="M12.5703 2H11.8672V3.45141C12.1204 3.66702 12.356 3.90237 12.5703 4.15672V2Z" fill="url(#paint3_linear)"/>
<defs>
<linearGradient id="paint0_linear" x1="2" y1="2" x2="15.7916" y2="4.6398" gradientUnits="userSpaceOnUse">
<stop stop-color="#FFE600"/>
<stop offset="1" stop-color="#AD7D00"/>
</linearGradient>
<linearGradient id="paint1_linear" x1="6.24219" y1="6.24219" x2="10.2827" y2="7.01557" gradientUnits="userSpaceOnUse">
<stop stop-color="#FFE600"/>
<stop offset="1" stop-color="#AD7D00"/>
</linearGradient>
<linearGradient id="paint2_linear" x1="7.64844" y1="7.64844" x2="8.45654" y2="7.80311" gradientUnits="userSpaceOnUse">
<stop stop-color="#FFE600"/>
<stop offset="1" stop-color="#AD7D00"/>
</linearGradient>
<linearGradient id="paint3_linear" x1="11.8672" y1="2" x2="12.7016" y2="2.05207" gradientUnits="userSpaceOnUse">
<stop stop-color="#FFE600"/>
<stop offset="1" stop-color="#AD7D00"/>
</linearGradient>
</defs>
</svg>
