<svg width="20" height="23" viewBox="0 0 20 23" fill="none" xmlns="http://www.w3.org/2000/svg">
<path fill-rule="evenodd" clip-rule="evenodd" d="M13.5 3.83337H17C18.2887 3.83337 19.3333 4.87804 19.3333 6.16671V20.1667C19.3333 21.4554 18.2887 22.5 17 22.5H3C1.71133 22.5 0.666664 21.4554 0.666664 20.1667V6.16671C0.666664 4.87804 1.71133 3.83337 3 3.83337H6.5C6.5 1.90038 8.067 0.333374 10 0.333374C11.933 0.333374 13.5 1.90038 13.5 3.83337ZM11.1667 3.83337C11.1667 4.47771 10.6443 5.00004 10 5.00004C9.35566 5.00004 8.83333 4.47771 8.83333 3.83337C8.83333 3.18904 9.35566 2.66671 10 2.66671C10.6443 2.66671 11.1667 3.18904 11.1667 3.83337ZM3 8.50004C3 7.85571 3.52233 7.33337 4.16666 7.33337H15.8333C16.4777 7.33337 17 7.85571 17 8.50004C17 9.14437 16.4777 9.66671 15.8333 9.66671H4.16666C3.52233 9.66671 3 9.14437 3 8.50004ZM4.16666 12C3.52233 12 3 12.5224 3 13.1667C3 13.811 3.52233 14.3334 4.16666 14.3334H15.8333C16.4777 14.3334 17 13.811 17 13.1667C17 12.5224 16.4777 12 15.8333 12H4.16666ZM4.16666 16.6667C3.52233 16.6667 3 17.189 3 17.8334C3 18.4777 3.52233 19 4.16666 19H7.66666C8.311 19 8.83333 18.4777 8.83333 17.8334C8.83333 17.189 8.311 16.6667 7.66666 16.6667H4.16666Z" fill="white"/>
</svg>
