<svg width="20" height="23" viewBox="0 0 20 23" fill="none" xmlns="http://www.w3.org/2000/svg">
<path fill-rule="evenodd" clip-rule="evenodd" d="M13.5 3.83301H17C18.2887 3.83301 19.3334 4.87768 19.3334 6.16634V20.1663C19.3334 21.455 18.2887 22.4997 17 22.4997H3.00002C1.71136 22.4997 0.666687 21.455 0.666687 20.1663V6.16634C0.666687 4.87768 1.71136 3.83301 3.00002 3.83301H6.50002C6.50002 1.90001 8.06702 0.333008 10 0.333008C11.933 0.333008 13.5 1.90001 13.5 3.83301ZM11.1667 3.83301C11.1667 4.47734 10.6444 4.99967 10 4.99967C9.35569 4.99967 8.83335 4.47734 8.83335 3.83301C8.83335 3.18868 9.35569 2.66634 10 2.66634C10.6444 2.66634 11.1667 3.18868 11.1667 3.83301ZM3.00002 8.49967C3.00002 7.85534 3.52235 7.33301 4.16669 7.33301H15.8334C16.4777 7.33301 17 7.85534 17 8.49967C17 9.14401 16.4777 9.66634 15.8334 9.66634H4.16669C3.52235 9.66634 3.00002 9.14401 3.00002 8.49967ZM4.16669 11.9997C3.52235 11.9997 3.00002 12.522 3.00002 13.1663C3.00002 13.8107 3.52235 14.333 4.16669 14.333H15.8334C16.4777 14.333 17 13.8107 17 13.1663C17 12.522 16.4777 11.9997 15.8334 11.9997H4.16669ZM4.16669 16.6663C3.52235 16.6663 3.00002 17.1887 3.00002 17.833C3.00002 18.4773 3.52235 18.9997 4.16669 18.9997H7.66669C8.31102 18.9997 8.83335 18.4773 8.83335 17.833C8.83335 17.1887 8.31102 16.6663 7.66669 16.6663H4.16669Z" fill="url(#paint0_linear)"/>
<defs>
<linearGradient id="paint0_linear" x1="0.666687" y1="0.333008" x2="22.3431" y2="3.8269" gradientUnits="userSpaceOnUse">
<stop stop-color="#F1A31D"/>
<stop offset="1" stop-color="#FF005B"/>
</linearGradient>
</defs>
</svg>
