<svg width="28" height="28" viewBox="0 0 28 28" fill="none" xmlns="http://www.w3.org/2000/svg">
<path d="M5.15666 24.0088C4.82939 24.0082 4.51741 23.8702 4.29683 23.6284C4.07218 23.3886 3.96055 23.0644 3.98999 22.7371L4.27583 19.5941L17.4802 6.39443L21.6067 10.5198L8.40583 23.7183L5.26283 24.0041C5.22666 24.0076 5.19049 24.0088 5.15666 24.0088ZM22.4303 9.69493L18.305 5.5696L20.7795 3.0951C20.9983 2.87602 21.2953 2.75293 21.6049 2.75293C21.9146 2.75293 22.2115 2.87602 22.4303 3.0951L24.9048 5.5696C25.1239 5.78843 25.247 6.08537 25.247 6.39501C25.247 6.70466 25.1239 7.0016 24.9048 7.22043L22.4315 9.69376L22.4303 9.69493Z" fill="white"/>
</svg>
