<svg width="18" height="14" viewBox="0 0 18 14" fill="none" xmlns="http://www.w3.org/2000/svg">
<path d="M17.1242 1.3601C17.124 1.34855 17.1234 1.33701 17.1225 1.32549C17.1218 1.31608 17.1208 1.30674 17.1197 1.29747C17.1184 1.28667 17.1167 1.27593 17.1148 1.26521C17.1131 1.25551 17.1112 1.24587 17.1091 1.23634C17.1067 1.22619 17.1041 1.21614 17.1013 1.20609C17.0986 1.19644 17.0957 1.18684 17.0926 1.17738C17.0893 1.16758 17.0857 1.15791 17.0819 1.14826C17.0783 1.13897 17.0746 1.12975 17.0706 1.12069C17.0663 1.11121 17.0618 1.10189 17.057 1.09258C17.0525 1.08365 17.0479 1.07482 17.0429 1.06616C17.0379 1.05731 17.0325 1.04862 17.027 1.03996C17.0214 1.03111 17.0156 1.02241 17.0095 1.01386C17.0039 1.00593 16.9981 0.998146 16.992 0.990403C16.9851 0.98161 16.978 0.973064 16.9707 0.964653C16.9672 0.960724 16.9643 0.956547 16.9607 0.952675C16.9577 0.949394 16.9544 0.946609 16.9514 0.943424C16.9438 0.935528 16.936 0.927917 16.928 0.920422C16.9207 0.913479 16.9133 0.906613 16.9057 0.900089C16.8981 0.893662 16.8904 0.887596 16.8826 0.88153C16.874 0.87489 16.8655 0.868313 16.8567 0.862191C16.8491 0.856869 16.8412 0.851929 16.8333 0.846951C16.824 0.841076 16.8148 0.83522 16.8053 0.82988C16.7969 0.825207 16.7883 0.820992 16.7797 0.816682C16.7704 0.812008 16.7611 0.807297 16.7515 0.803101C16.7421 0.798924 16.7324 0.795281 16.7226 0.791561C16.7137 0.788147 16.7047 0.784656 16.6956 0.781662C16.6852 0.778229 16.6746 0.775349 16.6639 0.772469C16.655 0.770047 16.6461 0.767586 16.6371 0.765564C16.6265 0.763199 16.6157 0.76133 16.6049 0.759499C16.5954 0.757878 16.5859 0.756295 16.5763 0.755112C16.566 0.753853 16.5557 0.753033 16.5453 0.752289C16.5348 0.751526 16.5243 0.750916 16.5137 0.750687C16.5091 0.750592 16.5046 0.75 16.5 0.75H1.5C1.49573 0.75 1.49161 0.750553 1.48734 0.750648C1.47597 0.750877 1.46468 0.751508 1.45335 0.752367C1.4437 0.75307 1.43412 0.753836 1.42462 0.754981C1.41425 0.756239 1.40395 0.757937 1.39365 0.759711C1.38358 0.761446 1.37351 0.763182 1.36359 0.765376C1.3539 0.76755 1.34436 0.770182 1.33475 0.772814C1.32476 0.775542 1.31476 0.77825 1.30496 0.781474C1.29527 0.78464 1.28581 0.788321 1.27627 0.791964C1.26708 0.795512 1.25785 0.798964 1.24884 0.802913C1.23892 0.807261 1.2292 0.812182 1.21943 0.817084C1.21123 0.821204 1.20303 0.825247 1.19506 0.82973C1.18525 0.835204 1.17572 0.841214 1.16618 0.847258C1.15855 0.852084 1.15088 0.856867 1.14348 0.86204C1.13452 0.868278 1.12582 0.874972 1.11716 0.881743C1.10945 0.887713 1.10183 0.893683 1.09446 0.899996C1.08676 0.906577 1.07932 0.9135 1.07188 0.92052C1.06395 0.927977 1.0562 0.935549 1.04865 0.94341C1.0456 0.946613 1.04228 0.949399 1.03926 0.95268C1.03572 0.956552 1.03278 0.960727 1.02934 0.964658C1.02202 0.973069 1.01492 0.981611 1.00802 0.990407C1.00195 0.998151 0.996117 1.00593 0.990471 1.01387C0.984406 1.02241 0.978608 1.03111 0.973 1.03996C0.967469 1.04862 0.962128 1.05732 0.957093 1.06617C0.952134 1.07483 0.947518 1.08366 0.942978 1.09258C0.938249 1.10189 0.93367 1.11122 0.929436 1.1207C0.925393 1.12976 0.921692 1.13897 0.918069 1.14826C0.914292 1.15791 0.910668 1.16758 0.907426 1.17739C0.904259 1.18685 0.901437 1.19644 0.898728 1.20609C0.895943 1.21614 0.893273 1.22619 0.890946 1.23634C0.888809 1.24588 0.886941 1.25551 0.885224 1.26522C0.883316 1.27594 0.881638 1.28668 0.880302 1.29747C0.879157 1.30676 0.878228 1.3161 0.877517 1.32549C0.876602 1.33703 0.876017 1.34857 0.875762 1.36011C0.875648 1.36511 0.875 1.36997 0.875 1.37501V12C0.875379 12.3314 1.0072 12.6491 1.24154 12.8835C1.47587 13.1178 1.7936 13.2496 2.125 13.25H15.875C16.2064 13.2496 16.5241 13.1178 16.7585 12.8835C16.9928 12.6491 17.1246 12.3314 17.125 12V1.375C17.125 1.36997 17.1244 1.3651 17.1242 1.3601ZM15.875 12H2.12501V2.79582L8.57765 8.71074C8.69293 8.81639 8.84363 8.875 9.00001 8.875C9.15639 8.875 9.30709 8.81639 9.42237 8.71074L15.8751 2.79571L15.8758 12L15.875 12Z" fill="#FF8000"/>
</svg>
