<svg width="76" height="76" viewBox="0 0 76 76" fill="none" xmlns="http://www.w3.org/2000/svg">
<g clip-path="url(#clip0)">
<path d="M76 38C76 58.9865 58.9865 76 38 76C17.0135 76 0 58.9865 0 38C0 17.0135 17.0135 0 38 0C58.9865 0 76 17.0135 76 38Z" fill="#E64C3C"/>
<path d="M30.626 10.1072C30.0416 10.1072 29.5083 9.71411 29.3576 9.12185C29.1782 8.41944 29.6014 7.70531 30.3024 7.52718C32.83 6.88252 35.4194 6.55358 37.998 6.55225H37.9994C38.7227 6.55225 39.3098 7.13798 39.3098 7.86132C39.3111 8.58465 38.7254 9.17172 38.0007 9.17291C35.6395 9.17425 33.2678 9.47557 30.9511 10.0665C30.8422 10.094 30.7335 10.1072 30.626 10.1072Z" fill="white"/>
<path d="M11.1966 25.5136C10.9949 25.5136 10.7891 25.4664 10.5978 25.3681C9.95445 25.0367 9.70152 24.2465 10.033 23.6031C13.1202 17.6083 18.2226 12.6656 24.3996 9.68453C25.0508 9.37133 25.8344 9.64386 26.1503 10.2964C26.4635 10.9476 26.191 11.7312 25.5385 12.0457C19.8713 14.7804 15.1907 19.3103 12.363 24.8032C12.1295 25.2541 11.6722 25.5136 11.1966 25.5136Z" fill="white"/>
<path d="M7.86216 39.3103C7.13749 39.3103 6.55176 38.7232 6.55176 37.9999C6.55309 35.129 6.94096 32.2815 7.70348 29.5376C7.89734 28.8406 8.61816 28.4343 9.31789 28.627C10.015 28.8208 10.4226 29.5428 10.2286 30.24C9.52882 32.7559 9.17376 35.3662 9.17242 37.9999C9.17242 38.7246 8.58535 39.3103 7.86216 39.3103Z" fill="white"/>
<path d="M37.9999 69.4483C37.2765 69.4483 36.6895 68.8626 36.6895 68.1379C36.6895 67.4145 37.2752 66.8275 37.9999 66.8275C40.5223 66.8261 43.0473 66.4841 45.5043 65.812C46.1961 65.6193 46.922 66.0321 47.1133 66.7305C47.3047 67.4276 46.8932 68.1483 46.1948 68.3396C43.5137 69.0735 40.7568 69.447 37.9999 69.4483Z" fill="white"/>
<path d="M51.9274 65.9896C51.4556 65.9896 50.9996 65.7341 50.7651 65.2872C50.4296 64.6464 50.676 63.8549 51.318 63.5182C56.9526 60.5634 61.5099 55.8173 64.149 50.1528C64.4556 49.4962 65.2352 49.2106 65.8904 49.5185C66.5456 49.8238 66.8299 50.6021 66.5247 51.2586C63.6446 57.4421 58.6758 62.6193 52.5342 65.8401C52.34 65.941 52.1318 65.9896 51.9274 65.9896Z" fill="white"/>
<path d="M67.3432 46.2211C67.2436 46.2211 67.144 46.2105 67.0431 46.1869C66.3382 46.0205 65.9004 45.3156 66.0656 44.6105C66.5702 42.4668 66.8256 40.2419 66.827 37.9985C66.8283 37.2752 67.4154 36.6895 68.1374 36.6895H68.1387C68.8634 36.6908 69.4491 37.2779 69.4478 38.001C69.4464 40.4448 69.1674 42.8702 68.6183 45.2105C68.4754 45.8136 67.9382 46.2211 67.3432 46.2211Z" fill="white"/>
<path d="M46.6298 50.5589C45.6234 50.5589 44.6171 50.1762 43.8506 49.4097L37.9999 43.559L32.1493 49.4097C30.6162 50.9414 28.1239 50.9414 26.5907 49.4097C25.0577 47.8766 25.0577 45.383 26.5907 43.8499L32.4414 38.0006L26.5907 32.1499C25.0577 30.6169 25.0577 28.1233 26.5907 26.5902C28.1238 25.0585 30.616 25.0585 32.1493 26.5902L37.9999 32.4409L43.8506 26.5902C45.3836 25.0585 47.8759 25.0585 49.4091 26.5902C50.9422 28.1233 50.9422 30.6169 49.4091 32.1499L43.5585 38.0006L49.4091 43.8499C50.9422 45.383 50.9422 47.8766 49.4091 49.4097C48.6424 50.1762 47.636 50.5589 46.6298 50.5589Z" fill="white"/>
<path d="M38.0008 0C38.6599 0 39.3151 0.0170703 39.9663 0.0497266C19.8932 1.0732 3.9319 17.6727 3.9319 38C3.9319 58.3273 19.8932 74.9268 39.9664 75.9503C39.3152 75.9831 38.66 76.0002 38.001 76.0002C17.0144 76.0002 0.000976562 58.9867 0.000976562 38.0001C0.000976562 17.0136 17.0143 0 38.0008 0Z" fill="#EC7063"/>
<path d="M38.0001 0C37.3411 0 36.6859 0.0170703 36.0347 0.0497266C56.1079 1.07305 72.0692 17.6725 72.0692 38C72.0692 58.3275 56.1079 74.9268 36.0347 75.9503C36.6859 75.9831 37.3411 76.0002 38.0001 76.0002C58.9867 76.0002 76.0001 58.9867 76.0001 38.0001C76.0001 17.0136 58.9867 0 38.0001 0Z" fill="#AD392D"/>
</g>
<defs>
<clipPath id="clip0">
<rect width="76" height="76" fill="white"/>
</clipPath>
</defs>
</svg>