<svg width="18" height="13" viewBox="0 0 18 13" fill="none" xmlns="http://www.w3.org/2000/svg">
<path d="M9 12.6008C7.52389 12.6191 6.06303 12.3006 4.7286 11.6693C3.69422 11.1646 2.76539 10.4675 1.9917 9.61545C1.17219 8.73446 0.526921 7.70624 0.09 6.58515L0 6.30075L0.0945 6.01635C0.531734 4.89624 1.17561 3.86829 1.9926 2.98605C2.76601 2.13403 3.69453 1.43703 4.7286 0.93225C6.06304 0.30098 7.52389 -0.0176 9 0.000750034C10.4761 -0.0175683 11.9369 0.30101 13.2714 0.93225C14.3058 1.43691 15.2346 2.13392 16.0083 2.98605C16.8294 3.86585 17.4748 4.89438 17.91 6.01635L18 6.30075L17.9055 6.58515C16.4936 10.2606 12.9368 12.6632 9 12.6008ZM9 1.80075C5.93628 1.70475 3.12428 3.48834 1.9053 6.30075C3.12408 9.11334 5.93621 10.897 9 10.8008C12.0636 10.8965 14.8755 9.113 16.0947 6.30075C14.8773 3.48697 12.0643 1.70272 9 1.80075ZM9 9.00075C7.70159 9.00935 6.57843 8.09838 6.31887 6.82615C6.05931 5.55392 6.73584 4.27577 7.93385 3.77505C9.13185 3.27432 10.5167 3.69087 11.2397 4.76941C11.9627 5.84794 11.8218 7.28722 10.9035 8.20515C10.4007 8.71388 9.71528 9.00036 9 9.00075Z" fill="#8E9091"/>
</svg>
