<svg width="18" height="17" viewBox="0 0 18 17" fill="none" xmlns="http://www.w3.org/2000/svg">
<path d="M16.173 16.5447L13.1526 13.5243C11.8495 14.1176 10.4317 14.4166 9 14.4C7.52389 14.4183 6.06304 14.0998 4.7286 13.4685C3.69421 12.9638 2.76537 12.2668 1.9917 11.4147C1.17044 10.5344 0.524967 9.50521 0.09 8.3826L0 8.1L0.0945 7.8156C0.745029 6.15626 1.83983 4.70805 3.2589 3.6297L0.9 1.2708L2.1717 0L17.4438 15.2721L16.1748 16.5447H16.173ZM4.5324 4.9041C3.38213 5.71042 2.47379 6.81544 1.9053 8.1C3.12428 10.9124 5.93628 12.696 9 12.6C9.94485 12.6077 10.8842 12.4556 11.7783 12.15L10.1583 10.53C9.7977 10.7068 9.40159 10.7991 9 10.8C7.51271 10.7907 6.30933 9.58729 6.3 8.1C6.30043 7.69749 6.39278 7.3004 6.57 6.939L4.5324 4.9041ZM16.0668 11.349L14.814 10.0971C15.3411 9.50122 15.773 8.8276 16.0947 8.1C14.8773 5.28622 12.0643 3.50197 9 3.6C8.7777 3.6 8.5545 3.6081 8.3385 3.6234L6.75 2.0331C7.48947 1.87491 8.24381 1.79676 9 1.8C10.4761 1.78168 11.9369 2.10026 13.2714 2.7315C14.3058 3.23616 15.2346 3.93317 16.0083 4.7853C16.8292 5.66457 17.4746 6.69247 17.91 7.8138L18 8.1L17.9055 8.3844C17.4841 9.48067 16.8607 10.4881 16.0677 11.3544L16.0668 11.349Z" fill="#8E9091"/>
</svg>
