<svg width="16" height="16" viewBox="0 0 16 16" fill="none" xmlns="http://www.w3.org/2000/svg">
<path d="M13.8448 0H2.15701C0.966289 0 0.000976562 0.965273 0.000976562 2.15603V13.8439C0.000976562 15.0346 0.96625 15.9999 2.15701 15.9999H7.92137L7.93119 10.2824H6.44578C6.25275 10.2824 6.09607 10.1263 6.09532 9.93329L6.0882 8.0903C6.08746 7.8962 6.2446 7.73847 6.4387 7.73847H7.92141V5.95767C7.92141 3.89107 9.18355 2.7658 11.0271 2.7658H12.5399C12.7334 2.7658 12.8904 2.92271 12.8904 3.1163V4.67031C12.8904 4.86382 12.7335 5.0207 12.5401 5.02081L11.6117 5.02124C10.6091 5.02124 10.415 5.49766 10.415 6.19682V7.73851H12.618C12.8279 7.73851 12.9908 7.9218 12.966 8.13026L12.7476 9.97325C12.7267 10.1496 12.5771 10.2825 12.3995 10.2825H10.4248L10.415 16H13.8449C15.0356 16 16.0009 15.0347 16.0009 13.844V2.15603C16.0008 0.965273 15.0355 0 13.8448 0Z" fill="white"/>
</svg>
