<svg width="19" height="15" viewBox="0 0 19 15" fill="none" xmlns="http://www.w3.org/2000/svg">
<path d="M1.92 14.4H0C0 11.2188 2.57884 8.64 5.76 8.64C8.94116 8.64 11.52 11.2188 11.52 14.4H9.6C9.6 12.2792 7.88077 10.56 5.76 10.56C3.63923 10.56 1.92 12.2792 1.92 14.4ZM13.4342 10.9536L10.8365 8.3616L12.192 7.00032L13.4323 8.24064L17.5603 4.12032L18.9158 5.47968L13.4323 10.9517L13.4342 10.9536ZM5.76 7.68C3.63923 7.68 1.92 5.96077 1.92 3.84C1.92 1.71923 3.63923 0 5.76 0C7.88077 0 9.6 1.71923 9.6 3.84C9.59735 5.95968 7.87968 7.67736 5.76 7.68ZM5.76 1.92C4.7111 1.92106 3.85717 2.76369 3.84214 3.81249C3.82711 4.86128 4.65654 5.72803 5.70498 5.75915C6.75342 5.79027 7.6328 4.97424 7.68 3.9264V4.3104V3.84C7.68 2.77961 6.82039 1.92 5.76 1.92Z" fill="#FF8000"/>
</svg>
