<svg width="30" height="30" viewBox="0 0 30 30" fill="none" xmlns="http://www.w3.org/2000/svg">
<circle cx="15" cy="15" r="15" fill="url(#paint0_linear)"/>
<g clip-path="url(#clip0)">
<path d="M23.4337 20.6996L20.967 18.2329L18.2325 20.9674L20.6992 23.4341C21.4543 24.1892 22.6786 24.1892 23.4337 23.4341C24.1888 22.679 24.1888 21.4547 23.4337 20.6996Z" fill="white"/>
<path d="M13.7563 21.2458C13.8912 21.2458 14.0262 21.1943 14.1291 21.0913C14.3351 20.8853 14.3351 20.5515 14.1291 20.3455L13.5095 19.7259L23.8065 11.3073C23.929 11.2071 24 11.0572 24 10.899V6.52734C24 6.23611 23.7639 6 23.4727 6H19.101C18.9427 6 18.7928 6.07105 18.6927 6.19354L10.2741 16.4904L9.65447 15.8709C9.44856 15.6649 9.11465 15.6649 8.9087 15.8709C8.70276 16.0768 8.70276 16.4107 8.9087 16.6166L13.3834 21.0913C13.4863 21.1943 13.6213 21.2458 13.7563 21.2458ZM20.7168 8.5374C20.9228 8.33146 21.2567 8.33146 21.4626 8.5374C21.6686 8.74335 21.6686 9.07723 21.4626 9.28317L12.2647 18.4811L11.5189 17.7353L20.7168 8.5374Z" fill="white"/>
<path d="M9.30062 23.4341L11.7673 20.9674L9.03277 18.2329L6.5661 20.6996C5.81098 21.4547 5.81098 22.679 6.5661 23.4341C7.32122 24.1892 8.5455 24.1892 9.30062 23.4341Z" fill="white"/>
<path d="M6.19354 11.3073L10.3626 14.7159L11.9853 12.7311L8.5374 9.28317C8.33146 9.07726 8.33146 8.74335 8.5374 8.5374C8.74335 8.33146 9.07723 8.33146 9.28317 8.5374L12.6563 11.9105L14.3188 9.877L11.3073 6.19354C11.2071 6.07105 11.0573 6 10.899 6H6.52734C6.23611 6 6 6.23611 6 6.52734V10.8991C6 11.0573 6.07105 11.2071 6.19354 11.3073Z" fill="white"/>
<path d="M20.3455 15.8708L19.7259 16.4904L19.4884 16.1999L18.0895 17.3436L18.4811 17.7352L17.7353 18.481L17.2689 18.0145L15.8331 19.1884L16.4905 19.7258L15.8709 20.3454C15.665 20.5513 15.6649 20.8852 15.8709 21.0912C16.0768 21.2971 16.4107 21.2971 16.6166 21.0912L21.0913 16.6165C21.1943 16.5135 21.2458 16.3786 21.2458 16.2436C21.2458 16.1087 21.1943 15.9737 21.0913 15.8708C20.8854 15.6648 20.5515 15.6648 20.3455 15.8708Z" fill="white"/>
</g>
<defs>
<linearGradient id="paint0_linear" x1="0" y1="0" x2="34.479" y2="6.5995" gradientUnits="userSpaceOnUse">
<stop stop-color="#F1A31D"/>
<stop offset="1" stop-color="#FF005B"/>
</linearGradient>
<clipPath id="clip0">
<rect width="18" height="18" fill="white" transform="translate(6 6)"/>
</clipPath>
</defs>
</svg>
