<svg width="12" height="12" viewBox="0 0 12 12" fill="none" xmlns="http://www.w3.org/2000/svg">
<path d="M5.99998 0.666626C3.05918 0.666626 0.666664 3.2767 0.666664 6.48478V9.15143C0.666664 9.28531 0.775209 9.39386 0.909095 9.39386H1.63636V10.3636C1.63636 10.8984 2.07125 11.3333 2.60606 11.3333H3.33333C3.46733 11.3333 3.57576 11.2248 3.57576 11.0908V6.72721C3.57576 6.59321 3.46733 6.48478 3.33333 6.48478H2.60606C2.07127 6.48478 1.63636 6.91966 1.63636 7.45448V6.48478C1.63636 3.81127 3.59397 1.63633 5.99998 1.63633C8.40599 1.63633 10.3636 3.81127 10.3636 6.48478V7.45448C10.3636 6.91966 9.92869 6.48478 9.3939 6.48478H8.66663C8.53263 6.48478 8.4242 6.59321 8.4242 6.72721V11.0908C8.4242 11.2248 8.53263 11.3333 8.66663 11.3333H9.3939C9.92869 11.3333 10.3636 10.8984 10.3636 10.3636V9.39386H11.0909C11.2248 9.39386 11.3333 9.28531 11.3333 9.15143V6.48478C11.3333 3.2767 8.94078 0.666626 5.99998 0.666626Z" fill="url(#paint0_linear)"/>
<defs>
<linearGradient id="paint0_linear" x1="0.666664" y1="0.666626" x2="12.9258" y2="3.01311" gradientUnits="userSpaceOnUse">
<stop stop-color="#F1A31D"/>
<stop offset="1" stop-color="#FF005B"/>
</linearGradient>
</defs>
</svg>
