<svg width="24" height="24" viewBox="0 0 24 24" fill="none" xmlns="http://www.w3.org/2000/svg">
<path d="M21.3333 23.0915H2.66667C1.19391 23.0915 0 21.9428 0 20.5258V2.56572C0 1.14871 1.19391 0 2.66667 0H21.3333C22.8061 0 24 1.14871 24 2.56572V20.5258C24 21.9428 22.8061 23.0915 21.3333 23.0915ZM2.66667 2.56572V20.5258H21.3333V2.56572H2.66667ZM20 17.96H4L8 12.8286L9.33333 14.1115L13.3333 8.98002L20 17.96ZM7.33333 10.2629C6.22876 10.2629 5.33333 9.40135 5.33333 8.33859C5.33333 7.27584 6.22876 6.4143 7.33333 6.4143C8.4379 6.4143 9.33333 7.27584 9.33333 8.33859C9.33333 9.40135 8.4379 10.2629 7.33333 10.2629Z" fill="white"/>
</svg>
