<svg width="18" height="17" viewBox="0 0 18 17" fill="none" xmlns="http://www.w3.org/2000/svg">
<path d="M15.2066 4.96555H12.414V1.86233C12.414 0.833778 11.5802 0 10.5516 0C9.52309 0 8.68932 0.833778 8.68932 1.86233V3.60443C8.68932 4.56409 8.07303 5.39855 7.15577 5.68078L5.58585 6.16386V15.8277C5.58585 15.8523 5.58461 15.8767 5.58398 15.9011C6.13311 16.4503 6.87788 16.7587 7.65443 16.7587H15.2066C16.7492 16.7587 17.9997 15.5082 17.9997 13.9656V7.75867C17.9997 6.21606 16.7492 4.96555 15.2066 4.96555Z" fill="white"/>
<path d="M2.79312 16.759H0.931041C0.416858 16.759 0 16.3421 0 15.828V5.89686C0 5.38268 0.416858 4.96582 0.931041 4.96582H2.79312C3.30731 4.96582 3.72416 5.38268 3.72416 5.89686V15.828C3.72416 16.3421 3.30731 16.759 2.79312 16.759Z" fill="white"/>
</svg>
