<svg width="24" height="24" viewBox="0 0 24 24" fill="none" xmlns="http://www.w3.org/2000/svg">
<path d="M18.2066 7.96555H15.414V4.86233C15.414 3.83378 14.5802 3 13.5516 3C12.5231 3 11.6893 3.83378 11.6893 4.86233V6.60443C11.6893 7.56409 11.073 8.39855 10.1558 8.68078L8.58585 9.16386V18.8277C8.58585 18.8523 8.58461 18.8767 8.58398 18.9011C9.13311 19.4503 9.87788 19.7587 10.6544 19.7587H18.2066C19.7492 19.7587 20.9997 18.5082 20.9997 16.9656V10.7587C20.9997 9.21606 19.7492 7.96555 18.2066 7.96555Z" fill="#FF8000"/>
<path d="M5.79312 19.759H3.93104C3.41686 19.759 3 19.3421 3 18.828V8.89686C3 8.38268 3.41686 7.96582 3.93104 7.96582H5.79312C6.30731 7.96582 6.72416 8.38268 6.72416 8.89686V18.828C6.72416 19.3421 6.30731 19.759 5.79312 19.759Z" fill="#FF8000"/>
</svg>
