<svg width="29" height="9" viewBox="0 0 29 9" fill="none" xmlns="http://www.w3.org/2000/svg">
<path d="M5.14 7.14C4.66667 7.8 4.00333 8.13 3.15 8.13C2.29667 8.13 1.63333 7.8 1.16 7.14C0.686667 6.48 0.45 5.6 0.45 4.5C0.45 3.4 0.686667 2.52 1.16 1.86C1.63333 1.2 2.29667 0.869999 3.15 0.869999C4.00333 0.869999 4.66667 1.2 5.14 1.86C5.61333 2.52 5.85 3.4 5.85 4.5C5.85 5.6 5.61333 6.48 5.14 7.14ZM1.84 6.51C2.14667 6.98333 2.58333 7.22 3.15 7.22C3.71667 7.22 4.15333 6.98333 4.46 6.51C4.77333 6.03667 4.93 5.36667 4.93 4.5C4.93 3.63333 4.77333 2.96333 4.46 2.49C4.15333 2.01 3.71667 1.77 3.15 1.77C2.58333 1.77 2.14667 2.00667 1.84 2.48C1.53333 2.95333 1.38 3.62667 1.38 4.5C1.38 5.36667 1.53333 6.03667 1.84 6.51ZM7.09883 9H6.57883L10.5788 -1.19209e-07H11.0988L7.09883 9ZM14.542 3.87C15.0754 3.97 15.512 4.2 15.852 4.56C16.192 4.92 16.362 5.37667 16.362 5.93C16.362 6.61 16.1287 7.14667 15.662 7.54C15.1954 7.93333 14.6287 8.13 13.962 8.13C13.4287 8.13 12.9554 8.01 12.542 7.77C12.1287 7.52333 11.8354 7.17 11.662 6.71L12.442 6.25C12.6487 6.89667 13.1554 7.22 13.962 7.22C14.3954 7.22 14.7487 7.10667 15.022 6.88C15.2954 6.65333 15.432 6.33667 15.432 5.93C15.432 5.52333 15.2954 5.20667 15.022 4.98C14.7487 4.74667 14.3954 4.63 13.962 4.63H13.722L13.352 4.06L14.972 1.87H11.862V1H16.062V1.82L14.542 3.87ZM21.7736 7.14C21.3003 7.8 20.6369 8.13 19.7836 8.13C18.9303 8.13 18.2669 7.8 17.7936 7.14C17.3203 6.48 17.0836 5.6 17.0836 4.5C17.0836 3.4 17.3203 2.52 17.7936 1.86C18.2669 1.2 18.9303 0.869999 19.7836 0.869999C20.6369 0.869999 21.3003 1.2 21.7736 1.86C22.2469 2.52 22.4836 3.4 22.4836 4.5C22.4836 5.6 22.2469 6.48 21.7736 7.14ZM18.4736 6.51C18.7803 6.98333 19.2169 7.22 19.7836 7.22C20.3503 7.22 20.7869 6.98333 21.0936 6.51C21.4069 6.03667 21.5636 5.36667 21.5636 4.5C21.5636 3.63333 21.4069 2.96333 21.0936 2.49C20.7869 2.01 20.3503 1.77 19.7836 1.77C19.2169 1.77 18.7803 2.00667 18.4736 2.48C18.1669 2.95333 18.0136 3.62667 18.0136 4.5C18.0136 5.36667 18.1669 6.03667 18.4736 6.51ZM27.9724 7.14C27.4991 7.8 26.8358 8.13 25.9824 8.13C25.1291 8.13 24.4658 7.8 23.9924 7.14C23.5191 6.48 23.2824 5.6 23.2824 4.5C23.2824 3.4 23.5191 2.52 23.9924 1.86C24.4658 1.2 25.1291 0.869999 25.9824 0.869999C26.8358 0.869999 27.4991 1.2 27.9724 1.86C28.4458 2.52 28.6824 3.4 28.6824 4.5C28.6824 5.6 28.4458 6.48 27.9724 7.14ZM24.6724 6.51C24.9791 6.98333 25.4158 7.22 25.9824 7.22C26.5491 7.22 26.9858 6.98333 27.2924 6.51C27.6058 6.03667 27.7624 5.36667 27.7624 4.5C27.7624 3.63333 27.6058 2.96333 27.2924 2.49C26.9858 2.01 26.5491 1.77 25.9824 1.77C25.4158 1.77 24.9791 2.00667 24.6724 2.48C24.3658 2.95333 24.2124 3.62667 24.2124 4.5C24.2124 5.36667 24.3658 6.03667 24.6724 6.51Z" fill="#8E9091"/>
</svg>
