<svg width="23" height="9" viewBox="0 0 23 9" fill="none" xmlns="http://www.w3.org/2000/svg">
<path d="M5.14 7.14C4.66667 7.8 4.00333 8.13 3.15 8.13C2.29667 8.13 1.63333 7.8 1.16 7.14C0.686667 6.48 0.45 5.6 0.45 4.5C0.45 3.4 0.686667 2.52 1.16 1.86C1.63333 1.2 2.29667 0.869999 3.15 0.869999C4.00333 0.869999 4.66667 1.2 5.14 1.86C5.61333 2.52 5.85 3.4 5.85 4.5C5.85 5.6 5.61333 6.48 5.14 7.14ZM1.84 6.51C2.14667 6.98333 2.58333 7.22 3.15 7.22C3.71667 7.22 4.15333 6.98333 4.46 6.51C4.77333 6.03667 4.93 5.36667 4.93 4.5C4.93 3.63333 4.77333 2.96333 4.46 2.49C4.15333 2.01 3.71667 1.77 3.15 1.77C2.58333 1.77 2.14667 2.00667 1.84 2.48C1.53333 2.95333 1.38 3.62667 1.38 4.5C1.38 5.36667 1.53333 6.03667 1.84 6.51ZM7.09883 9H6.57883L10.5788 -1.19209e-07H11.0988L7.09883 9ZM14.072 3.42C14.772 3.42 15.3487 3.64 15.802 4.08C16.2554 4.51333 16.482 5.07667 16.482 5.77C16.482 6.46333 16.2554 7.03 15.802 7.47C15.3487 7.91 14.772 8.13 14.072 8.13C13.3654 8.13 12.7854 7.91 12.332 7.47C11.8854 7.03 11.662 6.46333 11.662 5.77C11.662 5.23 11.802 4.76333 12.082 4.37L14.332 1H15.392L13.742 3.44C13.8887 3.42667 13.9987 3.42 14.072 3.42ZM12.992 6.84C13.272 7.10667 13.632 7.24 14.072 7.24C14.512 7.24 14.8687 7.10667 15.142 6.84C15.422 6.56667 15.562 6.21 15.562 5.77C15.562 5.33 15.422 4.97667 15.142 4.71C14.8687 4.44333 14.512 4.31 14.072 4.31C13.6254 4.31 13.2654 4.44333 12.992 4.71C12.7187 4.97667 12.582 5.33 12.582 5.77C12.582 6.21 12.7187 6.56667 12.992 6.84ZM21.8029 7.14C21.3296 7.8 20.6662 8.13 19.8129 8.13C18.9596 8.13 18.2962 7.8 17.8229 7.14C17.3496 6.48 17.1129 5.6 17.1129 4.5C17.1129 3.4 17.3496 2.52 17.8229 1.86C18.2962 1.2 18.9596 0.869999 19.8129 0.869999C20.6662 0.869999 21.3296 1.2 21.8029 1.86C22.2762 2.52 22.5129 3.4 22.5129 4.5C22.5129 5.6 22.2762 6.48 21.8029 7.14ZM18.5029 6.51C18.8096 6.98333 19.2462 7.22 19.8129 7.22C20.3796 7.22 20.8162 6.98333 21.1229 6.51C21.4362 6.03667 21.5929 5.36667 21.5929 4.5C21.5929 3.63333 21.4362 2.96333 21.1229 2.49C20.8162 2.01 20.3796 1.77 19.8129 1.77C19.2462 1.77 18.8096 2.00667 18.5029 2.48C18.1962 2.95333 18.0429 3.62667 18.0429 4.5C18.0429 5.36667 18.1962 6.03667 18.5029 6.51Z" fill="#8E9091"/>
</svg>
