<svg width="200" height="104" viewBox="0 0 200 104" fill="none" xmlns="http://www.w3.org/2000/svg">
<path fill-rule="evenodd" clip-rule="evenodd" d="M94.8478 0C97.5563 0.928632 98.4756 3.20901 99.0889 5.68581C99.8659 8.8243 99.946 12.0328 99.7232 15.228C98.6846 30.1276 94.5315 44.1201 87.2513 57.1626C84.9784 61.2345 82.2297 64.9723 78.7283 68.102C76.3344 70.2416 73.6804 71.9514 70.5144 72.6897C64.833 74.015 60.2229 71.8967 57.34 66.6865C55.519 63.3958 54.6112 59.8158 54.0676 56.13C53.1691 50.0384 53.294 43.939 53.9798 37.8381C53.9851 37.7908 53.9844 37.743 53.983 37.6431L53.983 37.6426C53.9821 37.5754 53.9808 37.4847 53.9808 37.355C53.8904 37.5335 53.8114 37.6881 53.7404 37.8272L53.738 37.8319L53.7371 37.8337C53.604 38.0942 53.4987 38.3005 53.3973 38.5088C47.7016 50.217 41.5665 61.6848 34.6578 72.7288C34.6503 72.7408 34.6425 72.7526 34.6347 72.7644L34.6215 72.7845L34.6116 72.8L34.6076 72.8063C33.5012 74.5597 33.4773 74.5976 31.6099 73.5679C28.244 71.7116 25.565 69.2029 24.2139 65.4892C23.4469 63.3808 23.645 61.2362 24.0772 59.1188C24.7456 55.8439 25.4331 52.5728 26.1206 49.3018C26.9161 45.5168 27.7116 41.7318 28.4777 37.9409C29.8121 31.3376 31.077 24.7179 30.9529 17.9324C30.9161 15.9147 30.6955 13.9164 29.9208 12.0294C29.0508 9.91045 27.4687 8.79167 25.4557 8.85879C24.1244 8.90314 23.0139 9.51521 22.0114 10.3419C20.2117 11.826 18.8773 13.6955 17.7949 15.7256C13.4794 23.8189 10.9631 32.3925 11.0717 41.6369C11.095 43.6241 11.4683 45.0231 12.4223 47.1018C9.88956 48.3643 7.29754 49.3731 4.39474 48.8936C2.09737 48.514 0.59168 46.6554 0.201366 43.8489C-0.281727 40.3764 0.166871 36.9507 0.885478 33.5633C2.55532 25.6916 5.73357 18.504 10.8768 12.2644C14.5743 7.77893 19.0257 4.34426 24.7416 2.80272C27.5043 2.0576 30.3166 1.80255 33.1545 2.27205C37.9348 3.06253 40.7356 6.00799 42.0111 10.5565C42.9546 13.9213 43.0858 17.3628 42.9365 20.828C42.6561 27.3314 41.4852 33.7134 40.3146 40.0942L40.3146 40.0942L40.2421 40.4892C39.595 44.0184 38.9362 47.5456 38.2774 51.0727L38.2772 51.0739L38.2769 51.0752L38.2766 51.0772C37.892 53.1363 37.5074 55.1955 37.1251 57.2551C37.0923 57.4313 37.1042 57.6156 37.2229 57.8289L37.8663 56.3356L38.9562 53.8059C40.4633 50.3064 41.9699 46.8067 43.4766 43.307L43.4793 43.3007C48.0755 32.6244 52.6716 21.9482 57.2816 11.278C57.9564 9.71641 58.6937 8.18155 59.4308 6.6469L59.431 6.64664L59.4315 6.64554L59.4319 6.64472L59.4322 6.64405C59.662 6.16556 59.8919 5.68708 60.1198 5.20782C61.2513 2.82821 63.0105 2.04639 65.5518 2.83144C68.1636 3.63823 70.1346 5.35565 71.8359 7.41818C71.9558 7.56364 71.9842 7.89856 71.9043 8.0785C68.8732 14.905 66.9312 22.0804 65.1123 29.2924C63.5203 35.6046 62.2041 41.976 61.4462 48.4459C60.9256 52.8907 60.4914 57.3553 61.3769 61.8085C61.5623 62.7407 61.8607 63.6792 62.2778 64.531C63.1851 66.3832 64.729 67.0207 66.7348 66.5128C68.2309 66.1341 69.469 65.3014 70.5876 64.28C73.129 61.9594 75.0005 59.1271 76.6617 56.1526C80.9067 48.5509 83.8068 40.4116 86.1628 32.0647C87.9708 25.6585 89.383 19.167 90.0133 12.5286C90.3241 9.25438 90.4838 5.97587 89.782 2.71623C89.7218 2.4367 89.8955 1.9441 90.1218 1.79388C90.8369 1.31967 91.5841 0.894148 92.3313 0.468625L92.3314 0.468578L92.3315 0.468559C92.6043 0.313163 92.8772 0.157767 93.1485 0H94.8478ZM133.511 62.5035C131.304 65.3556 129.026 67.947 126.121 69.8967C123.812 71.445 121.355 72.4727 118.473 72.0773C115.999 71.7378 114.414 70.4326 113.891 67.9821C113.699 67.0779 113.617 66.1498 113.535 65.2071C113.497 64.778 113.459 64.3458 113.41 63.9115L113.342 64.0095L113.272 64.1106C113.163 64.2665 113.048 64.4318 112.937 64.6C111.35 67.0034 109.589 69.251 107.059 70.7403C103.382 72.905 98.9443 71.8088 96.6823 68.1893C95.1265 65.7004 94.6392 62.9004 94.7034 60.0493C94.9234 50.289 98.1498 41.6559 104.805 34.4409C107.644 31.3628 111.114 29.3031 115.422 28.9945C115.954 28.9563 116.516 28.9206 117.026 29.0442C120.715 29.9381 123.545 32.0299 125.272 35.4137C126.01 36.8591 125.622 38.4216 125.247 39.932L125.205 40.0984C125.188 40.1701 125.17 40.2416 125.153 40.313C125.112 40.4819 125.056 40.6474 125.006 40.7973C124.993 40.8374 124.98 40.8764 124.968 40.9141L124.958 40.9449L124.946 40.984C125.165 41.1699 125.385 41.3483 125.603 41.5247C126.081 41.9122 126.547 42.2897 126.967 42.713C127.827 43.581 128.099 44.6278 127.709 45.8335C127.552 46.32 127.394 46.8065 127.237 47.293C126.271 50.2748 125.306 53.2567 124.398 56.2557C124.111 57.2031 123.95 58.1903 123.789 59.1746C123.749 59.419 123.71 59.6632 123.668 59.9065C123.602 60.288 123.635 60.6989 123.69 61.0865C123.908 62.6107 125.023 63.3339 126.447 62.7045C127.381 62.2917 128.309 61.6894 129.008 60.9519C132.363 57.4115 135.003 53.4515 136.583 48.7473C138.125 44.1596 139.754 39.6013 141.383 35.0429L141.383 35.0426C142.673 31.4308 143.964 27.819 145.211 24.1923C146.395 20.7494 147.423 17.2517 148.449 13.756C148.609 13.2136 148.768 12.6713 148.928 12.1293C149.11 11.5134 149.17 10.8616 149.233 10.1783V10.1782C149.263 9.85412 149.294 9.52298 149.338 9.1852C151.345 8.80882 153.372 8.72641 155.26 9.85538C156.738 10.7388 157.576 12.1373 157.515 13.8002C157.449 15.6163 157.256 17.4936 156.711 19.2149C155.42 23.2883 154.061 27.3399 152.701 31.3916L152.7 31.3971C151.795 34.0952 150.89 36.7934 150.005 39.498C148.107 45.2984 146.257 51.115 144.45 56.9442C144.15 57.9136 143.994 58.929 143.839 59.9423C143.789 60.2745 143.738 60.6065 143.682 60.9366C143.612 61.3504 143.621 61.786 143.654 62.207C143.763 63.6027 144.276 63.9628 145.604 63.5607C147.058 63.1206 148.183 62.1631 149.224 61.1142C152.042 58.2722 154.257 54.9784 155.968 51.3913C156.519 50.2364 156.917 49.0105 157.316 47.7834C157.643 46.7761 157.971 45.7681 158.383 44.7979C160.423 39.9991 163.215 35.7047 167.352 32.4151C169.844 30.4335 172.645 29.1658 175.87 28.9811L175.934 28.9775C176.336 28.9543 176.751 28.9304 177.138 29.0127C180.933 29.8221 183.785 31.9604 185.579 35.373C186.321 36.7838 185.957 38.3128 185.604 39.7959C185.566 39.9553 185.528 40.1141 185.492 40.2722C185.454 40.4382 185.395 40.5996 185.334 40.7687C185.305 40.8501 185.275 40.9333 185.246 41.0197C185.421 41.154 185.598 41.285 185.774 41.4159C186.163 41.7041 186.551 41.9915 186.91 42.3108C188.043 43.3179 188.489 44.5149 187.985 46.0392C186.858 49.4462 185.748 52.8601 184.712 56.2957C184.339 57.5322 184.128 58.8304 183.975 60.1162C183.865 61.044 183.925 62.0522 184.861 62.6136C185.792 63.1714 186.727 62.8936 187.583 62.356C189.746 60.9983 191.247 59.0015 192.674 56.9555C194.849 53.8357 196.646 50.5047 198.051 46.9663C198.11 46.8193 198.178 46.6762 198.276 46.4697C198.334 46.3497 198.401 46.2083 198.482 46.0323C198.62 46.2123 198.758 46.3738 198.888 46.5261L198.889 46.5267L198.889 46.527L198.889 46.5271C199.153 46.8356 199.385 47.1068 199.518 47.4199C200.075 48.7256 199.947 50.078 199.58 51.4146C198.616 54.9239 196.875 58.0603 194.845 61.0386C192.537 64.4255 189.907 67.5325 186.483 69.8659C184.238 71.3957 181.832 72.4459 179.015 72.0965C176.06 71.7301 174.433 70.1597 174.039 67.2046C173.941 66.4638 173.898 65.7158 173.854 64.9637C173.835 64.6185 173.815 64.2725 173.789 63.9259C173.516 64.2909 173.252 64.6645 172.989 65.0377L172.989 65.0378L172.989 65.0379L172.989 65.0381C172.392 65.8829 171.797 66.7264 171.093 67.4671C169.953 68.6668 168.728 69.8629 167.333 70.7271C163.743 72.9517 159.308 71.8027 157.029 68.2335C155.906 66.4748 155.428 64.508 155.171 62.47L155.169 62.452C155.131 62.1493 155.093 61.8465 155.046 61.5449C155.042 61.5125 155.014 61.4834 154.991 61.4582C154.981 61.4476 154.971 61.4377 154.965 61.4285C154.609 61.9171 154.256 62.4082 153.904 62.8995L153.903 62.9007C153.106 64.0107 152.308 65.1214 151.474 66.2042C150.052 68.0521 148.422 69.7075 146.476 71.0129C141.278 74.498 134.816 71.6883 133.762 65.477C133.655 64.8485 133.618 64.2082 133.578 63.5251C133.559 63.1957 133.54 62.8563 133.511 62.5035ZM164.144 61.4657C164.123 61.2357 164.102 61.0058 164.075 60.7774C164.205 57.9996 164.852 55.339 165.696 52.7244C167.422 47.3757 169.618 42.2396 172.949 37.6719C173.806 36.4967 174.872 35.4522 175.955 34.4712C176.706 33.7905 177.692 33.2081 178.743 33.7089C179.791 34.2088 179.868 35.368 179.754 36.3157C179.48 38.5786 179.194 40.8663 178.6 43.0593C176.901 49.3332 174.409 55.2958 170.957 60.8199C170.2 62.0309 169.281 63.1833 168.253 64.1721C166.636 65.7279 164.863 65.1351 164.35 62.956C164.236 62.47 164.19 61.9678 164.144 61.4657ZM103.761 60.698C103.785 60.918 103.802 61.1393 103.819 61.3605C103.857 61.8438 103.895 62.3272 103.996 62.7969C104.514 65.1968 106.31 65.7854 108.063 64.0559C109.04 63.0926 109.913 61.9801 110.639 60.8148C114.086 55.2872 116.578 49.3257 118.279 43.0523C118.867 40.886 119.164 38.6284 119.431 36.3932C119.547 35.4214 119.499 34.2195 118.413 33.7081C117.329 33.1981 116.328 33.8241 115.557 34.5252C114.497 35.4894 113.462 36.5233 112.62 37.677C109.306 42.2216 107.121 47.3334 105.393 52.6496C104.544 55.2608 103.892 57.9225 103.761 60.698ZM101.345 80.3435C100.797 79.8528 100.398 79.8879 100.149 80.4486C100.05 80.6589 100 80.8692 100 81.0794C100 81.4299 100.149 81.7804 100.448 82.1308C105.928 89.0701 112.13 94.4498 119.054 98.2699C125.979 102.09 133.326 104 141.097 104C146.129 104 151.285 103.019 156.565 101.056C161.845 99.0934 166.628 96.3248 170.912 92.75C172.307 91.5584 173.452 90.507 174.349 89.5958C175.046 88.8948 175.183 88.1238 174.76 87.2827C174.337 86.4416 173.751 86.2313 173.004 86.6519C172.805 86.792 172.469 87.0023 171.995 87.2827C171.522 87.5631 171.161 87.7734 170.912 87.9136C161.397 93.0304 151.758 95.5888 141.994 95.5888C127.348 95.5888 113.799 90.507 101.345 80.3435Z" fill="url(#paint0_linear)"/>
<defs>
<linearGradient id="paint0_linear" x1="0" y1="0" x2="0" y2="104" gradientUnits="userSpaceOnUse">
<stop stop-color="#FF8000"/>
<stop offset="1" stop-color="#FF8000"/>
</linearGradient>
</defs>
</svg>
