<svg width="56" height="59" viewBox="0 0 56 59" fill="none" xmlns="http://www.w3.org/2000/svg">
<g clip-path="url(#clip0)">
<path d="M27.9479 0C15.7357 0 -14.2488 3.975 7.98492 37.8581C17.495 52.3509 24.1851 59 28.0111 59C31.837 59 38.5271 52.3509 48.0372 37.8581C70.271 3.975 40.1602 0 27.9479 0ZM27.9416 1.48159C23.8905 1.48159 18.0948 1.81532 12.5874 3.12898C17.9096 1.20313 23.9305 0.748235 27.95 0.748235C31.978 0.748235 38.0347 1.20525 43.3863 3.14174C37.8411 1.81744 32.0075 1.48159 27.9416 1.48159Z" fill="#FF8000"/>
<path d="M27.948 0C15.7884 0 -13.9857 3.94098 7.69668 37.4139C7.79138 37.5627 7.88819 37.7093 7.98499 37.8581C11.2238 42.796 14.1364 46.8221 16.7207 49.9851C21.7209 56.1091 25.4879 59 28.0112 59C30.5218 59 34.2656 56.1367 39.2301 50.0743C41.8312 46.8965 44.7691 42.8407 48.0373 37.8581C48.1657 37.6626 48.294 37.467 48.4182 37.2714C48.4182 37.2714 48.4182 37.2714 48.4182 37.2693C69.9217 3.92823 40.0887 0 27.948 0ZM27.9501 0.748235C31.9781 0.748235 38.0347 1.20525 43.3864 3.14174C37.8411 1.81744 32.0075 1.48159 27.9417 1.48159C23.8906 1.48159 18.0949 1.81532 12.5875 3.12898C17.9097 1.20313 23.9306 0.748235 27.9501 0.748235Z" fill="#FF8000"/>
<path d="M43.3858 3.14167C37.8405 1.81738 32.0069 1.48152 27.9411 1.48152C23.89 1.48152 18.0943 1.81525 12.5869 3.12892C17.9091 1.20306 23.93 0.748169 27.9495 0.748169C31.9775 0.748169 38.0341 1.20519 43.3858 3.14167Z" fill="url(#paint0_linear)"/>
<path d="M43.3858 3.14167C37.8405 1.81738 32.0069 1.48152 27.9411 1.48152C23.89 1.48152 18.0943 1.81525 12.5869 3.12892C17.9091 1.20306 23.93 0.748169 27.9495 0.748169C31.9775 0.748169 38.0341 1.20519 43.3858 3.14167Z" fill="black"/>
<path d="M48.4176 37.2694C48.4176 37.2715 48.4176 37.2715 48.4176 37.2694C48.2934 37.467 48.165 37.6626 48.0367 37.8582C44.7684 42.8407 41.8306 46.8965 39.2295 50.0744C34.265 56.1368 30.5211 59 28.0105 59C25.4873 59 21.7202 56.1091 16.72 49.9851C14.1357 46.8221 11.2231 42.7961 7.98436 37.8582C7.88755 37.7094 7.79075 37.5627 7.69604 37.4139C8.23058 34.2828 9.59428 31.3855 11.5893 28.6902C12.0144 28.1162 12.4774 27.5614 12.993 26.9981C12.8962 29.5107 13.7317 31.7129 15.7225 33.5601C15.6446 32.9925 15.5247 32.4271 15.4973 31.8574C15.2427 26.9025 17.204 22.683 21.0973 19.1225C24.595 15.9213 28.9217 13.8551 33.5621 12.2226C33.6316 12.1992 33.7136 12.2035 33.8104 12.1929C33.7052 12.5075 33.4274 12.6775 33.2506 12.9092C31.8196 14.7862 31.3798 16.8693 31.5965 19.08C31.8912 22.107 33.4358 24.7237 35.151 27.2851C36.6304 29.4958 38.293 31.6193 39.4567 33.9831C40.0881 35.2627 40.7278 36.5403 40.7973 37.973C40.812 38.3067 41.0498 38.634 41.014 38.9933C41.0456 39.0677 40.9699 39.3206 41.1845 39.1187C41.376 38.9401 41.4728 38.6872 41.6117 38.4661C42.9502 36.4552 44.0655 34.3699 44.4885 32.0466C44.6948 30.9051 44.6863 29.7636 44.4422 28.6051C45.1788 29.262 45.7554 30.0038 46.2605 30.7925C47.5547 32.814 48.1735 34.9949 48.4176 37.2694Z" fill="black"/>
<path d="M39.038 47.987C38.8486 47.0071 38.3582 46.1016 37.7248 45.2598C37.8952 48.2527 37.6595 51.1224 35.1973 53.5159C35.0058 53.3097 35.0837 53.18 35.13 53.0482C35.3257 52.4679 35.3909 51.8557 35.372 51.2712C35.3173 49.6132 34.8059 48.0444 33.9578 46.5522C32.8024 44.5137 30.8705 42.7876 29.9277 40.6917C28.9596 38.5406 27.9306 36.366 27.8001 34.0278C27.7433 33.0011 27.5728 31.6066 28.0989 30.6628C22.0801 34.4083 19.62 41.5781 22.2422 47.6002C22.3411 47.8276 22.5431 48.0423 22.501 48.3611C20.7038 47.2048 19.9399 45.5914 19.6032 43.6804C18.8834 44.5009 18.3068 45.2173 17.8943 46.0293C17.2462 47.3132 16.7853 48.629 16.72 49.9851C21.7203 56.1092 25.4873 59.0001 28.0105 59.0001C30.5212 59.0001 34.265 56.1368 39.2295 50.0744C39.24 49.4027 39.1747 48.7076 39.038 47.987Z" fill="black"/>
<path d="M7.25833 13.0701L8.96506 9.58826H12.0334C12.4227 9.58826 12.6374 9.59251 12.6752 9.59889L7.25833 14.6665V13.0701ZM7.25833 9.58826H8.45998L7.25833 12.0285V9.58826ZM11.703 12.815H10.615V14.3774L7.26043 16.3776V15.302L13.2371 9.69241C14.443 9.89223 15.2764 10.4321 15.733 11.3122L12.6752 13.1402C12.53 12.9234 12.2059 12.815 11.703 12.815ZM7.25833 16.9091L10.6129 14.9088V16.0779L7.25833 17.6615V16.9091ZM7.25833 18.9688L10.6129 17.9506V19.3153H11.301C11.743 19.3153 12.0376 19.2877 12.1828 19.2345C12.7636 19.0028 13.054 18.5182 13.054 17.7763V17.2088L16.4086 16.1799V17.7763C16.4086 17.9464 16.4044 18.0569 16.398 18.1122L7.26043 21.0499V18.9688H7.25833ZM7.25833 18.1696L10.6129 16.5838V17.4639L7.25833 18.482V18.1696ZM7.25833 21.5366L16.3623 18.6096C16.3307 19.0496 16.2129 19.4769 16.0066 19.8935L7.25623 22.6696V21.5366H7.25833ZM11.221 22.3231H10.615V23.7218L7.26043 24.6125V23.1543L15.7225 20.4695C15.5015 20.9159 14.8786 21.3304 13.8558 21.7067L14.2115 22.7483L11.5325 23.4774L11.221 22.3231ZM7.25833 25.0886L10.6129 24.198V25.6328L7.25833 26.7551V25.0886ZM7.25833 27.2398L10.6129 26.1174V28.2452L7.25833 29.4824V27.2398ZM7.25833 29.9798L10.6129 28.7426V30.2115L7.25833 31.472V29.9798ZM10.615 32.2819H7.25833V31.9694L10.6129 30.7089V32.2819H10.615ZM11.644 23.9195L14.3588 23.1904L14.7145 24.232L11.9766 25.1566L11.644 23.9195ZM12.0923 25.6073L14.8744 24.6699L15.4931 26.4618L12.5953 27.5268L12.0923 25.6073ZM12.711 27.9795L15.6425 26.9039L16.0782 28.1538L13.054 29.2996L12.711 27.9795ZM13.054 14.3646C13.054 13.9331 13.012 13.6547 12.9278 13.5314L15.9519 11.7267C16.1581 12.1433 16.2949 12.6939 16.3644 13.3804L13.054 14.9301V14.3646ZM13.054 15.4402L16.4086 13.8672V15.6953L13.054 16.7241V15.4402ZM13.1677 29.7375L16.2255 28.5917L16.5685 29.5972L13.6138 31.4359L13.1677 29.7375ZM17.4966 32.2819H13.8327L13.7401 31.912L16.7285 30.0499L17.4966 32.2819Z" fill="#1B1B1B"/>
<path d="M17.928 13.9947C17.928 13.6164 17.9469 13.3018 17.9848 13.0467L23.5048 9.27577C24.6349 9.37568 25.4472 9.67327 25.9439 10.1664L17.928 14.6771V13.9947ZM21.3856 13.2656C21.3162 13.474 21.2825 13.7163 21.2825 13.9947V15.1851L17.928 16.2841V15.2085L21.3856 13.2656ZM17.928 16.7709L21.2825 15.6719V16.875L17.928 17.6148V16.7709ZM17.928 18.0888L21.2825 17.3491V17.94L17.928 18.5989V18.0888ZM17.928 19.0602L21.2825 18.4013V21.4771L17.928 22.1934V19.0602ZM17.928 22.6696L21.2825 21.9532V23.1564L17.928 24.0364V22.6696ZM17.928 24.5083L21.2825 23.6283V24.9228L17.928 25.4096V24.5083ZM17.928 25.8751L21.2825 25.3883V26.8912L17.928 28.0008V25.8751ZM22.863 29.4016L19.037 31.4146C18.372 30.7663 18.0101 29.7885 17.949 28.4769L21.2825 27.3779V27.8754C21.2825 28.9021 21.7329 29.4143 22.6336 29.4143C22.7178 29.4143 22.7956 29.4101 22.863 29.4016ZM22.7493 9.229L18.0648 12.4324C18.3405 10.2961 19.862 9.229 22.6336 9.229H22.7493ZM19.3822 31.7504L27.3518 27.5629V27.8754C27.3518 28.4472 27.3097 28.9318 27.2255 29.3336L20.9605 32.4689C20.2366 32.3052 19.7105 32.0672 19.3822 31.7504ZM22.6336 32.6517C22.0464 32.6517 21.7244 32.6432 21.6718 32.6283L27.0993 29.9096C26.712 31.7313 25.2221 32.6453 22.6336 32.6517ZM22.8167 12.4685L26.2869 10.5129C26.8972 11.1145 27.2403 12.0094 27.3181 13.1955L23.9973 14.2838V13.9947C23.9973 13.0467 23.6037 12.5365 22.8167 12.4685ZM23.7216 28.9509C23.9047 28.6959 23.9973 28.3387 23.9973 27.8754V26.4639L27.3518 25.3649V27.0421L23.7216 28.9509ZM23.9973 14.7812L27.3518 13.6716V15.5231L23.9973 16.2628V14.7812ZM23.9973 16.7369L27.3518 15.9971V16.7496L23.9973 17.4086V16.7369ZM23.9973 17.8698L27.3518 17.2109V20.1847L23.9973 20.901V17.8698ZM23.9973 21.3751L27.3518 20.6587V21.5494L23.9973 22.4294V21.3751ZM23.9973 22.9013L27.3518 22.0213V24.0449L23.9973 24.5317V22.9013ZM23.9973 24.9951L27.3518 24.5083V24.8782L23.9973 25.9771V24.9951Z" fill="#1B1B1B"/>
<path d="M33.4401 12.4558H33.4169C32.5225 12.4558 32.0764 12.9681 32.0764 13.9947V14.354L28.7197 15.7994V13.729L36.5989 10.0729C37.2092 10.4895 37.6258 11.0868 37.8468 11.8648L34.6859 13.2189C34.5807 12.7193 34.1661 12.4643 33.4401 12.4558ZM28.7218 16.2968L32.0785 14.8514V16.0545L28.7218 17.1429V16.2968ZM28.7218 17.6275L32.0785 16.5392V18.2865L28.7218 21.0392V17.6275ZM28.7218 21.6408L32.0785 18.888V20.9117L28.7218 23.8026V21.6408ZM28.7218 27.8754V24.4041L32.0785 21.5132V23.8387L28.7218 27.8754ZM29.0207 11.8776L34.3239 9.26301C35.1868 9.34804 35.7971 9.51809 36.1569 9.77105L28.7471 13.2061C28.7681 12.7767 28.8586 12.3325 29.0207 11.8776ZM28.7576 28.5811L32.0785 24.5551V27.0889L29.2374 30.5707C28.9786 30.1307 28.8186 29.4675 28.7576 28.5811ZM33.4295 9.229L29.2374 11.2654C29.7109 9.90709 31.1083 9.229 33.4295 9.229ZM29.5005 30.9873L32.0785 27.818V27.8754C32.0785 28.5471 32.2089 28.9552 32.4678 29.1019L30.4286 31.912C30.0476 31.6888 29.7383 31.3806 29.5005 30.9873ZM30.8179 32.1437L32.8571 29.3336C32.9476 29.3867 33.1391 29.4143 33.4295 29.4143C34.3387 29.4143 34.7932 28.9021 34.7932 27.8754V26.9953L38.1478 25.7688V27.1675L32.0322 32.5242C31.5124 32.4413 31.1083 32.3137 30.8179 32.1437ZM38.1478 27.8754C38.1478 31.0532 36.5757 32.6453 33.4295 32.6517C32.9644 32.6517 32.693 32.6432 32.6172 32.6283L38.1478 27.7818V27.8754ZM34.7911 13.9947C34.7911 13.8098 34.7869 13.7057 34.7806 13.6823L37.9752 12.3048C38.0888 12.6981 38.1478 13.2614 38.1478 13.9947V14.1223L34.7932 15.1979V13.9947H34.7911ZM38.1478 17.0493H34.7932V15.6847L38.1478 14.6091V17.0493ZM34.7911 24.8208H38.1456V25.2714L34.7911 26.4979V24.8208Z" fill="#1B1B1B"/>
<path d="M39.6083 11.5545L41.1424 9.58826H42.9628V10.0155L39.6083 13.3464V11.5545ZM39.6083 9.58826H40.5595L39.6083 10.802V9.58826ZM39.6083 13.9948L42.9628 10.6638V12.6428L39.6083 15.5699V13.9948ZM39.6083 16.1799L42.9628 13.2529V15.1618L39.6083 16.688V16.1799ZM39.6083 17.1981L42.9628 15.6719V17.1748L39.6083 18.6564V17.1981ZM42.9628 19.4662L39.6083 20.5078V19.1665L42.9628 17.6849V19.4662ZM46.3763 18.888L45.5976 20.9351L45.7807 21.4431L39.6083 21.9873V20.9925L46.3763 18.888ZM39.6083 22.4507L42.9628 22.1616V23.1096L39.6083 24.5551V22.4507ZM42.9628 24.6592L39.6083 26.8104V24.9823L42.9628 23.4795V24.6592ZM39.6083 27.3546L42.9628 25.2034V27.227L39.6083 29.1933V27.3546ZM39.6083 29.7268L42.9628 27.7606V29.6928L39.6083 31.0469V29.7268ZM42.9628 32.2819H39.6083V31.5528L42.9628 30.1987V32.2819ZM43.0659 22.1488L45.9512 21.8937L46.2037 22.5867L43.7183 24.1725L43.0659 22.1488ZM43.1585 19.4088L43.8341 17.3044L47.6011 15.6273L46.5825 18.346L43.1585 19.4088ZM43.8677 24.6359L46.3763 23.0288L47.0518 24.8102L44.4065 26.3598L43.8677 24.6359ZM44.5896 14.9322L48.5523 13.1169L47.8304 15.0257L44.0277 16.7156L44.5896 14.9322ZM44.5559 26.8104L47.2244 25.248L48.1167 27.6203L45.1851 28.8L44.5559 26.8104ZM48.7817 12.5025L44.7853 14.3306L45.4713 12.1794L49.3415 11.0337L48.7817 12.5025ZM45.3345 29.24L48.2892 28.0475L48.9879 29.9224L45.9869 31.2998L45.3345 29.24ZM46.3089 9.58826H49.8823L49.5498 10.4895L45.6439 11.6459L46.3089 9.58826ZM49.8802 32.2819H46.3068L46.1342 31.7377L49.1584 30.3603L49.8802 32.2819Z" fill="#1B1B1B"/>
<path d="M21.8247 39.3739L21.1973 45.4844H19.6354L19.429 41.0516H19.3977L19.1451 45.4844H17.56L17.0928 39.3739H18.341L18.4714 43.6582H18.5028L18.6861 39.3739H20.2183L20.3487 43.6582H20.3801L20.5716 39.3739H21.8247Z" fill="#FF8000"/>
<path d="M28.4687 39.3439C28.6404 39.3756 28.7758 39.4323 28.8782 39.514C28.9805 39.6024 29.0499 39.7275 29.0895 39.8926C29.1291 40.0577 29.1473 40.2879 29.1473 40.5814V45.4844H27.8991V44.5021H27.6085V45.4844H26.4065V40.5814C26.4065 40.2929 26.4263 40.0661 26.4676 39.9009C26.5089 39.7358 26.5766 39.6074 26.674 39.514C26.7664 39.4323 26.8969 39.3756 27.0686 39.3439C27.2403 39.3123 27.4731 39.2972 27.7686 39.2972C28.0642 39.2972 28.297 39.3123 28.4687 39.3439ZM27.6068 43.4732H27.8974V40.5797C27.8974 40.513 27.8892 40.468 27.871 40.4446C27.8528 40.4213 27.8132 40.4096 27.7521 40.4096C27.691 40.4096 27.6514 40.4213 27.6332 40.4446C27.6151 40.468 27.6068 40.513 27.6068 40.5797V43.4732Z" fill="#FF8000"/>
<path d="M35.3107 45.4844H34.0707V39.3739H35.456C35.7614 39.3739 36.0025 39.3889 36.1759 39.4206C36.3492 39.4523 36.4846 39.509 36.582 39.5907C36.6844 39.6791 36.7537 39.8008 36.7934 39.9576C36.8313 40.1144 36.8511 40.3362 36.8511 40.6197V42.6459C36.8511 42.9344 36.7901 43.1479 36.6679 43.288C36.5853 43.3814 36.4714 43.4448 36.3228 43.4814V43.5131C36.4962 43.5548 36.6216 43.6415 36.6976 43.7766C36.8 43.9467 36.8511 44.2102 36.8511 44.5655V45.486H35.6029V44.1719C35.6029 44.1052 35.5947 44.0601 35.5765 44.0368C35.5584 44.0134 35.5187 44.0018 35.4576 44.0018H35.3123V45.4844H35.3107ZM35.3107 43.0178H35.456C35.5171 43.0178 35.5567 43.0062 35.5749 42.9828C35.593 42.9595 35.6013 42.9144 35.6013 42.8477V40.6197C35.6013 40.553 35.593 40.5079 35.5749 40.4846C35.5567 40.4612 35.5171 40.4496 35.456 40.4496H35.3107V43.0178Z" fill="#FF8000"/>
</g>
<defs>
<linearGradient id="paint0_linear" x1="27.9863" y1="0.748169" x2="27.9863" y2="3.14167" gradientUnits="userSpaceOnUse">
<stop stop-color="#212528"/>
<stop offset="1" stop-color="#090A0C"/>
</linearGradient>
<clipPath id="clip0">
<rect width="56" height="59" fill="white"/>
</clipPath>
</defs>
</svg>
