<svg width="71" height="76" viewBox="0 0 71 76" fill="none" xmlns="http://www.w3.org/2000/svg">
<g clip-path="url(#clip0)">
<path d="M35.6445 0.974365C20.4926 0.974365 -16.6897 5.99231 10.8723 48.5718C22.6571 66.7923 30.9786 75.1231 35.6926 75.1231C40.4065 75.1231 48.728 66.7436 60.5128 48.5718C88.1229 5.99231 50.7483 0.974365 35.6445 0.974365ZM35.5964 2.82565C30.5938 2.82565 23.3786 3.26411 16.5483 4.8718C23.1381 2.4359 30.5938 1.90001 35.5964 1.90001C40.5989 1.90001 48.1027 2.48462 54.7407 4.92052C47.9103 3.26411 40.647 2.82565 35.5964 2.82565Z" fill="url(#paint0_linear)"/>
<path d="M35.643 2.82556C21.3089 2.82556 -13.757 7.5512 11.7848 47.4999C11.881 47.6948 12.0253 47.8409 12.1215 48.0358C15.9215 53.9307 19.3848 58.7538 22.4152 62.5051C28.2835 69.8127 32.757 73.2717 35.6911 73.2717C38.6253 73.2717 43.0506 69.8615 48.919 62.6025C51.9975 58.8025 55.4608 53.9794 59.3089 48.0358C59.4532 47.7922 59.5975 47.5486 59.7418 47.3538C85.043 7.5512 49.9291 2.82556 35.643 2.82556ZM35.643 3.7512C40.4051 3.7512 47.524 4.2871 53.8253 6.62556C47.2835 5.01787 40.4051 4.62813 35.643 4.62813C30.881 4.62813 24.0506 5.01787 17.557 6.57684C23.8101 4.2871 30.881 3.7512 35.643 3.7512Z" fill="url(#paint1_linear)"/>
<path d="M54.7873 6.96668C47.9088 5.31027 40.6455 4.87181 35.5949 4.87181C30.5924 4.87181 23.3772 5.31027 16.5468 6.91796C23.1367 4.48206 30.5924 3.94617 35.5949 3.94617C40.5974 3.94617 48.1493 4.53078 54.7873 6.96668Z" fill="url(#paint2_linear)"/>
<path d="M60.9924 47.7924C60.8481 48.036 60.6557 48.2796 60.5114 48.5232C56.4709 54.8078 52.8152 59.8744 49.5924 63.8693C43.4354 71.4693 38.7696 75.0744 35.6911 75.0744C32.5646 75.0744 27.8987 71.4206 21.6937 63.7232C18.4709 59.7283 14.8633 54.7103 10.8709 48.4744C10.7747 48.2796 10.6304 48.0847 10.5342 47.9385C11.2076 43.9924 12.8911 40.3385 15.3443 36.977C15.8734 36.2462 16.4506 35.5642 17.076 34.8334C16.9797 38.0001 17.9899 40.777 20.443 43.0667C20.3468 42.336 20.2025 41.6539 20.1544 40.9232C19.8177 34.6873 22.2709 29.377 27.081 24.8949C31.4101 20.8514 36.7975 18.2693 42.5215 16.2232C42.6177 16.1744 42.7139 16.2232 42.8101 16.1744C42.5696 16.418 42.3291 16.8078 42.1367 17.0514C40.357 19.3898 39.8279 22.0206 40.0684 24.7975C40.4532 28.5975 42.3291 31.9103 44.4937 35.1257C46.3215 37.9026 48.3899 40.5821 49.8329 43.5539C50.6025 45.1616 51.4203 46.7693 51.5165 48.5719C51.5165 49.0103 51.8532 49.4001 51.8051 49.8385C51.8532 49.936 51.757 50.2283 51.9975 49.9847C52.238 49.7411 52.3342 49.4488 52.5266 49.1565C54.2101 46.6232 55.557 43.9924 56.0861 41.0693C56.3266 39.6565 56.3266 38.195 56.038 36.7334C56.9519 37.5616 57.6734 38.4873 58.2987 39.4616C59.9342 42.1898 60.7038 44.9667 60.9924 47.7924Z" fill="url(#paint3_linear)"/>
<path d="M23.1849 18.5615C23.1849 18.0743 23.1849 17.6846 23.233 17.3923L30.0634 12.6667C31.4583 12.8128 32.4684 13.1538 33.0937 13.7872L23.1849 19.4384V18.5615ZM27.4659 17.6359C27.3697 17.8795 27.3216 18.2205 27.3216 18.5615V20.0718L23.1849 21.4359V20.0718L27.4659 17.6359ZM23.1849 22.0692L27.3216 20.7051V22.2154L23.1849 23.141V22.0692ZM23.1849 23.7256L27.3216 22.8V23.5308L23.1849 24.359V23.7256ZM23.1849 24.9436L27.3216 24.1154V27.9641L23.1849 28.841V24.9436ZM23.1849 29.4743L27.3216 28.5974V30.1077L23.1849 31.1795V29.4743ZM23.1849 31.7641L27.3216 30.6436V32.2513L23.1849 32.8846V31.7641ZM23.1849 33.4692L27.3216 32.8359V34.7359L23.1849 36.1487V33.4692ZM29.2937 37.9026L24.5798 40.4359C23.7621 39.6077 23.3292 38.3897 23.233 36.7333L27.3697 35.3692V36.0026C27.3697 37.2692 27.9469 37.9513 29.0532 37.9513C29.1494 37.9513 29.2456 37.9513 29.2937 37.9026ZM29.1975 12.5692L23.3773 16.6128C23.714 13.9333 25.5899 12.5692 29.0532 12.5692H29.1975ZM25.0127 40.8743L34.8735 35.6128V36.0026C34.8735 36.7333 34.8254 37.3179 34.7292 37.8538L26.9368 41.8C26.071 41.5564 25.3975 41.2641 25.0127 40.8743ZM29.0532 41.9949C28.3317 41.9949 27.9469 41.9949 27.8507 41.9461L34.5849 38.5359C34.1039 40.8743 32.2279 41.9949 29.0532 41.9949ZM29.2456 16.6615L33.5266 14.2256C34.2963 15.0051 34.7292 16.1256 34.8254 17.5872L30.6887 18.9513V18.6102C30.7368 17.3923 30.2558 16.7102 29.2456 16.6615ZM30.4001 37.3667C30.6406 37.0256 30.7368 36.5872 30.7368 36.0026V34.2487L34.8735 32.8846V34.9795L30.4001 37.3667ZM30.7368 19.5359L34.8735 18.1231V20.4615L30.7368 21.4359V19.5359ZM30.7368 22.0205L34.8735 21.0949V22.0205L30.7368 22.8487V22.0205ZM30.7368 23.4333L34.8735 22.6051V26.3564L30.7368 27.2333V23.4333ZM30.7368 27.8179L34.8735 26.941V28.0615L30.7368 29.182V27.8179ZM30.7368 29.7667L34.8735 28.6461V31.1795L30.7368 31.8128V29.7667ZM30.7368 32.3974L34.8735 31.7641V32.2513L30.7368 33.6154V32.3974Z" fill="white"/>
<path d="M42.4253 16.6128C41.2709 16.6128 40.7418 17.2461 40.7418 18.5615V19L36.5569 20.8513V18.2692L46.3696 13.641C47.1392 14.1769 47.6202 14.9077 47.9088 15.882L43.9645 17.5872C43.8683 16.9538 43.3392 16.6615 42.4253 16.6128ZM36.605 21.4359L40.7899 19.6333V21.1436L36.605 22.5077V21.4359ZM36.605 23.141L40.7899 21.7769V23.9692L36.605 27.4282V23.141ZM36.605 28.159L40.7899 24.7V27.2333L36.605 30.8872V28.159ZM36.605 36.0026V31.6179L40.7899 27.9641V30.8872L36.605 36.0026ZM36.9418 15.882L43.5316 12.6179C44.5899 12.7154 45.3595 12.959 45.7924 13.2513L36.605 17.5872C36.6531 17.0513 36.7494 16.4667 36.9418 15.882ZM36.605 36.8795L40.7418 31.8128V34.9795L37.2304 39.3641C36.8937 38.8282 36.7012 38 36.605 36.8795ZM42.4253 12.5692L37.2304 15.1513C37.8076 13.4461 39.5392 12.5692 42.4253 12.5692ZM37.5671 39.9L40.7418 35.9051V35.9538C40.7418 36.782 40.8861 37.3179 41.2228 37.5128L38.6734 41.0205C38.2405 40.7769 37.8557 40.3872 37.5671 39.9ZM39.2025 41.3615L41.7519 37.8538C41.8481 37.9025 42.0886 37.9513 42.4734 37.9513C43.5797 37.9513 44.1569 37.3179 44.1569 36.0026V34.882L48.2937 33.3231V35.0769L40.6937 41.8487C40.0202 41.7513 39.5392 41.6051 39.2025 41.3615ZM48.2937 36.0026C48.2937 39.9974 46.3215 41.9949 42.4253 41.9949C41.8481 41.9949 41.5114 41.9949 41.4152 41.9461L48.2937 35.8564V36.0026ZM44.1088 18.5615C44.1088 18.3179 44.1088 18.2205 44.1088 18.1718L48.0531 16.4179C48.1974 16.9051 48.2456 17.6359 48.2456 18.5615V18.7077L44.1088 20.0718V18.5615ZM48.2937 22.4102H44.1569V20.7051L48.2937 19.341V22.4102ZM44.1088 32.1538H48.2456V32.7384L44.1088 34.2974V32.1538Z" fill="white"/>
<path d="M50.1215 60.5564C49.881 59.241 49.2557 58.0718 48.3899 56.9513C48.6304 60.8974 48.2937 64.6974 45.0709 67.8641C44.8304 67.5718 44.9266 67.4256 44.9747 67.2307C45.2152 66.4513 45.3114 65.6718 45.3114 64.8923C45.2633 62.7 44.5899 60.6051 43.4836 58.6564C41.9924 55.9769 39.4431 53.6871 38.2405 50.9102C36.9899 48.0846 35.6431 45.1615 35.4506 42.0923C35.3544 40.7282 35.162 38.8769 35.8355 37.6589C27.995 42.6282 24.7722 52.1282 28.1874 60.0692C28.3317 60.3615 28.5722 60.6538 28.5241 61.0923C26.1671 59.582 25.157 57.4384 24.7241 54.9051C24.0025 55.7333 23.4253 56.4641 22.9443 57.1948C22.8 57.4384 22.6076 57.7307 22.5114 57.9743C21.6456 59.6795 21.0684 61.4333 20.9722 63.2359C27.5139 71.3231 32.4203 75.1718 35.7393 75.1718C39.0101 75.1718 43.9165 71.3718 50.4101 63.3333C50.362 62.4077 50.3139 61.482 50.1215 60.5564Z" fill="url(#paint4_linear)"/>
<path d="M29.1013 49.2539L28.1874 58.2667H25.8785L25.5899 51.7385H25.5418L25.157 58.2667H22.8482L22.1747 49.2539H24.0026L24.195 55.5872H24.2431L24.5317 49.2539H26.7925L26.9849 55.5872H27.033L27.3216 49.2539H29.1013Z" fill="#190A00"/>
<path d="M34.633 49.2538C34.8735 49.3025 35.0659 49.4 35.2583 49.4974C35.4026 49.6436 35.4988 49.7897 35.5469 50.0333C35.595 50.2769 35.6431 50.6179 35.6431 51.0564V58.2666H33.8153V56.8051H33.3823V58.2666H31.6026V51.0564C31.6026 50.6179 31.6507 50.2769 31.6988 50.0333C31.7469 49.7897 31.8431 49.5948 31.9874 49.4487C32.1317 49.3512 32.3241 49.2538 32.5646 49.2051C32.8051 49.1564 33.1418 49.1564 33.5747 49.1564C34.0077 49.1564 34.3925 49.2051 34.633 49.2538ZM33.3823 55.3436H33.8153V51.0564C33.8153 50.9589 33.8153 50.9102 33.7672 50.8615C33.7191 50.8128 33.671 50.8128 33.5747 50.8128C33.4785 50.8128 33.4304 50.8128 33.3823 50.8615C33.3342 50.9102 33.3342 50.9589 33.3342 51.0564V55.3436H33.3823Z" fill="#190A00"/>
<path d="M40.3089 58.2667H38.4811V49.2539H40.5013C40.9342 49.2539 41.3191 49.2539 41.5596 49.3026C41.8001 49.3513 41.9925 49.4488 42.1368 49.5462C42.2811 49.6924 42.3773 49.8385 42.4254 50.0821C42.4735 50.3257 42.5216 50.618 42.5216 51.0565V54.0283C42.5216 54.4667 42.4254 54.759 42.233 54.9539C42.1368 55.1001 41.9444 55.1975 41.7039 55.2462V55.2949C41.9444 55.3437 42.1368 55.4898 42.233 55.6847C42.3773 55.9283 42.4735 56.318 42.4735 56.8539V58.218H40.6456V56.2693C40.6456 56.1719 40.6456 56.1231 40.5975 56.0744C40.5494 56.0257 40.5013 56.0257 40.4051 56.0257H40.2127V58.2667H40.3089ZM40.3089 54.6616H40.5013C40.5975 54.6616 40.6456 54.6616 40.6937 54.6129C40.7418 54.5642 40.7418 54.5154 40.7418 54.418V51.1539C40.7418 51.0565 40.7418 51.0078 40.6937 50.959C40.6456 50.9103 40.5975 50.9103 40.5013 50.9103H40.3089V54.6616Z" fill="#190A00"/>
<path d="M47.0913 51.982C47.0913 52.1281 47.1394 52.2256 47.1875 52.323C47.2356 52.3717 47.3799 52.4692 47.5242 52.6153L47.6685 52.7127C47.8609 52.8102 48.1014 52.9563 48.3419 53.1025C48.6786 53.2974 48.9191 53.4922 49.0634 53.6871C49.2558 53.882 49.352 54.1743 49.352 54.4666C49.352 54.564 49.352 54.7589 49.352 55.0512V56.5127C49.352 56.9512 49.3039 57.2922 49.2558 57.5358C49.2077 57.7794 49.1115 57.9743 48.9672 58.0717C48.8229 58.2179 48.6305 58.2666 48.39 58.3153C48.1495 58.364 47.7647 58.364 47.3318 58.364C46.8989 58.364 46.5622 58.364 46.3216 58.3153C46.0811 58.2666 45.8887 58.1692 45.7444 58.0717C45.6001 57.9256 45.5039 57.7794 45.4558 57.5358C45.4077 57.2922 45.3596 56.9512 45.3596 56.5127V54.7102H47.1394V56.5127C47.1394 56.6102 47.1394 56.6589 47.1875 56.7076C47.2356 56.7563 47.2837 56.7563 47.3799 56.7563C47.4761 56.7563 47.5242 56.7563 47.5723 56.7076C47.6204 56.6589 47.6204 56.6102 47.6204 56.5127V54.9051C47.6204 54.8076 47.6204 54.7102 47.5723 54.6615C47.5242 54.6127 47.428 54.5153 47.3318 54.4666C47.3318 54.4666 47.2356 54.4179 47.1394 54.3204C46.8027 54.1256 46.514 53.9794 46.3216 53.8333C45.9849 53.6384 45.7925 53.4435 45.6963 53.2974C45.552 53.1025 45.5039 52.8589 45.4558 52.5666C45.4558 52.3717 45.4558 52.1769 45.4558 52.0307V51.1538C45.4558 50.7153 45.5039 50.3743 45.552 50.1307C45.6001 49.8871 45.6963 49.6922 45.8406 49.5948C45.9849 49.4974 46.1773 49.3999 46.4178 49.3512C46.6584 49.3025 46.9951 49.3025 47.4761 49.3025C47.909 49.3025 48.2457 49.3025 48.5343 49.3512C48.7748 49.3999 48.9672 49.4974 49.1115 49.5948C49.2558 49.741 49.352 49.8871 49.4001 50.1307C49.4482 50.3743 49.4963 50.7153 49.4963 51.1538V52.2743H47.7166V51.1538C47.7166 51.0563 47.7166 51.0076 47.6685 50.9589C47.6204 50.9102 47.5723 50.9102 47.4761 50.9102C47.3799 50.9102 47.3318 50.9102 47.2837 50.9589C47.2356 51.0076 47.2356 51.0563 47.2356 51.1538V51.982H47.0913Z" fill="#190A00"/>
<path d="M9.95698 17.3923L12.0734 13.0077H15.8734C16.3544 13.0077 16.6431 13.0077 16.6912 13.0077L9.95698 19.3897V17.3923ZM9.95698 13.0077H11.4481L9.95698 16.0769V13.0077ZM15.4886 17.1H14.1418V19.0487L10.0051 21.582V20.2179L17.3646 13.1538C18.8557 13.3974 19.9139 14.0795 20.4431 15.2L16.6431 17.4897C16.4987 17.1974 16.1139 17.1 15.4886 17.1ZM9.95698 22.2154L14.0937 19.682V21.1436L9.95698 23.141V22.2154ZM9.95698 24.7974L14.0937 23.5308V25.2359H14.9595C15.4886 25.2359 15.8734 25.1872 16.0658 25.1385C16.7874 24.8462 17.1241 24.2615 17.1241 23.2872V22.5564L21.2608 21.241V23.2385C21.2608 23.4333 21.2608 23.5795 21.2608 23.6769L9.90887 27.3795L9.95698 24.7974ZM9.95698 23.8231L14.0937 21.8256V22.8974L9.95698 24.1641V23.8231ZM9.95698 28.0615L21.2608 24.359C21.2127 24.8949 21.0684 25.4308 20.8279 25.9667L9.95698 29.4744V28.0615ZM14.8633 29.0359H14.0937V30.7897L9.95698 31.9103V30.059L20.4431 26.6974C20.2025 27.282 19.4329 27.7692 18.1342 28.2564L18.5671 29.5718L15.2481 30.4974L14.8633 29.0359ZM9.95698 32.4949L14.0937 31.3744V33.1769L9.95698 34.5897V32.4949ZM9.95698 35.2231L14.0937 33.8103V36.4897L9.95698 38.0487V35.2231ZM9.95698 38.6333L14.0937 37.0744V38.9256L9.95698 40.5333V38.6333ZM14.1418 41.5564H9.95698V41.1667L14.0937 39.559L14.1418 41.5564ZM15.3924 31.0333L18.7595 30.1077L19.1924 31.4231L15.7772 32.5923L15.3924 31.0333ZM15.9696 33.1769L19.4329 32.0077L20.2025 34.2487L16.595 35.5641L15.9696 33.1769ZM16.7393 36.1487L20.395 34.7846L20.9241 36.3436L17.1722 37.8051L16.7393 36.1487ZM17.1722 19.0487C17.1722 18.5128 17.1241 18.1718 17.0279 18.0256L20.7798 15.7359C21.0203 16.2718 21.2127 16.9538 21.3089 17.8308L17.2203 19.7795V19.0487H17.1722ZM17.1722 20.3641L21.3089 18.3667V20.6564L17.1722 21.9718V20.3641ZM17.3165 38.341L21.1165 36.8795L21.5494 38.1462L17.8937 40.4359L17.3165 38.341ZM22.6557 41.5564H18.1342L18.038 41.0692L21.7418 38.7308L22.6557 41.5564Z" fill="white"/>
<path d="M50.0734 15.4923L51.9975 13.0077H54.2582V13.5436L50.1215 17.7333V15.4923H50.0734ZM50.0734 13.0077H51.276L50.0734 14.5179V13.0077ZM50.0734 18.5615L54.2101 14.3718V16.8564L50.0734 20.559V18.5615ZM50.0734 21.2897L54.2101 17.5872V19.9744L50.0734 21.8744V21.2897ZM50.0734 22.6051L54.2101 20.7051V22.6051L50.0734 24.4564V22.6051ZM54.2582 25.4308L50.1215 26.7462V25.041L54.2582 23.1897V25.4308ZM58.4911 24.7L57.5291 27.282L57.7696 27.9154L50.1215 28.5974V27.3308L58.4911 24.7ZM50.0734 29.182L54.2101 28.841V30.0103L50.0734 31.8128V29.182ZM54.2582 31.959L50.1215 34.6385V32.3487L54.2582 30.4487V31.959ZM50.0734 35.3692L54.2101 32.6897V35.2231L50.0734 37.7077V35.3692ZM50.0734 38.341L54.2101 35.8564V38.2923L50.0734 39.9974V38.341ZM54.2582 41.5564H50.1215V40.6308L54.2582 38.9256V41.5564ZM54.3544 28.7923L57.9139 28.4513L58.2506 29.3282L55.1722 31.3256L54.3544 28.7923ZM54.4987 25.382L55.3165 22.7513L59.9823 20.6564L58.7316 24.0667L54.4987 25.382ZM55.3646 31.9103L58.4911 29.9128L59.3089 32.1538L56.038 34.1026L55.3646 31.9103ZM56.2785 19.7308L61.1848 17.441L60.2709 19.8282L55.557 21.9718L56.2785 19.7308ZM56.2304 34.6872L59.5494 32.7385L60.6557 35.7103L57 37.1718L56.2304 34.6872ZM61.4734 16.7103L56.519 19L57.3848 16.3205L62.1949 14.859L61.4734 16.7103ZM57.1924 37.7077L60.8481 36.1974L61.7139 38.5359L58.0101 40.2897L57.1924 37.7077ZM58.3949 13.0077H62.8203L62.3873 14.1282L57.5291 15.5897L58.3949 13.0077ZM62.8203 41.5564H58.3949L58.2025 40.8744L61.9544 39.1205L62.8203 41.5564Z" fill="white"/>
<path d="M42.9063 16.3206C42.9063 16.3206 37.8076 18.1231 36.1722 19C34.5367 19.877 36.076 22.9949 36.076 22.9949L40.2608 21.777C40.2127 21.777 40.7899 18.318 42.9063 16.3206Z" fill="#F1A31D"/>
</g>
<defs>
<linearGradient id="paint0_linear" x1="60.9099" y1="-2.73828" x2="6.39087" y2="60.8576" gradientUnits="userSpaceOnUse">
<stop stop-color="#FF6800"/>
<stop offset="0.0421621" stop-color="#D15702"/>
<stop offset="0.08787" stop-color="#A84704"/>
<stop offset="0.1391" stop-color="#823806"/>
<stop offset="0.1947" stop-color="#612C08"/>
<stop offset="0.256" stop-color="#452109"/>
<stop offset="0.3249" stop-color="#2F190A"/>
<stop offset="0.405" stop-color="#1E120B"/>
<stop offset="0.5032" stop-color="#120D0C"/>
<stop offset="0.6395" stop-color="#0B0B0C"/>
<stop offset="1" stop-color="#090A0C"/>
</linearGradient>
<linearGradient id="paint1_linear" x1="4.11583" y1="-2.30074" x2="64.4634" y2="57.283" gradientUnits="userSpaceOnUse">
<stop stop-color="#FF6800"/>
<stop offset="0.0421621" stop-color="#D15702"/>
<stop offset="0.08787" stop-color="#A84704"/>
<stop offset="0.1391" stop-color="#823806"/>
<stop offset="0.1947" stop-color="#612C08"/>
<stop offset="0.256" stop-color="#452109"/>
<stop offset="0.3249" stop-color="#2F190A"/>
<stop offset="0.405" stop-color="#1E120B"/>
<stop offset="0.5032" stop-color="#120D0C"/>
<stop offset="0.6395" stop-color="#0B0B0C"/>
<stop offset="1" stop-color="#090A0C"/>
</linearGradient>
<linearGradient id="paint2_linear" x1="16.5724" y1="5.45399" x2="54.7697" y2="5.45399" gradientUnits="userSpaceOnUse">
<stop stop-color="#212528"/>
<stop offset="1" stop-color="#090A0C"/>
</linearGradient>
<linearGradient id="paint3_linear" x1="35.4311" y1="17.2117" x2="36.0828" y2="76.7286" gradientUnits="userSpaceOnUse">
<stop stop-color="#F1A31D"/>
<stop offset="0.2898" stop-color="#F66B1F"/>
<stop offset="0.6221" stop-color="#FB3222"/>
<stop offset="0.8687" stop-color="#FE0E23"/>
<stop offset="1" stop-color="#FF0024"/>
</linearGradient>
<linearGradient id="paint4_linear" x1="34.876" y1="35.4482" x2="36.175" y2="80.1939" gradientUnits="userSpaceOnUse">
<stop stop-color="#F1A31D"/>
<stop offset="0.1356" stop-color="#F19E1D"/>
<stop offset="0.2951" stop-color="#F3901E"/>
<stop offset="0.4668" stop-color="#F5781F"/>
<stop offset="0.6471" stop-color="#F85720"/>
<stop offset="0.832" stop-color="#FB2D22"/>
<stop offset="1" stop-color="#FF0024"/>
</linearGradient>
<clipPath id="clip0">
<rect width="69.4582" height="74.1487" fill="white" transform="translate(0.962036 0.974365)"/>
</clipPath>
</defs>
</svg>
