<svg width="24" height="24" viewBox="0 0 24 24" fill="none" xmlns="http://www.w3.org/2000/svg">
<path d="M4.92 19.4H3C3 16.2188 5.57884 13.64 8.76 13.64C11.9412 13.64 14.52 16.2188 14.52 19.4H12.6C12.6 17.2792 10.8808 15.56 8.76 15.56C6.63923 15.56 4.92 17.2792 4.92 19.4ZM16.4342 15.9536L13.8365 13.3616L15.192 12.0003L16.4323 13.2406L20.5603 9.12032L21.9158 10.4797L16.4323 15.9517L16.4342 15.9536ZM8.76 12.68C6.63923 12.68 4.92 10.9608 4.92 8.84C4.92 6.71923 6.63923 5 8.76 5C10.8808 5 12.6 6.71923 12.6 8.84C12.5974 10.9597 10.8797 12.6774 8.76 12.68ZM8.76 6.92C7.7111 6.92106 6.85717 7.76369 6.84214 8.81249C6.82711 9.86128 7.65654 10.728 8.70498 10.7592C9.75342 10.7903 10.6328 9.97424 10.68 8.9264V9.3104V8.84C10.68 7.77961 9.82039 6.92 8.76 6.92Z" fill="#FF8000"/>
</svg>
