<svg width="24" height="24" viewBox="0 0 24 24" fill="none" xmlns="http://www.w3.org/2000/svg">
<path d="M11.9999 8C10.8953 8 9.99991 7.10457 9.99991 6C9.99991 4.89543 10.8953 4 11.9999 4C13.1045 4 13.9999 4.89543 13.9999 6C13.9999 7.10457 13.1045 8 11.9999 8Z" fill="white"/>
<path d="M11.9999 14C10.8953 14 9.99991 13.1046 9.99991 12C9.99991 10.8954 10.8953 10 11.9999 10C13.1045 10 13.9999 10.8954 13.9999 12C13.9999 13.1046 13.1045 14 11.9999 14Z" fill="white"/>
<path d="M11.9999 20C10.8953 20 9.99991 19.1046 9.99991 18C9.99991 16.8954 10.8953 16 11.9999 16C13.1045 16 13.9999 16.8954 13.9999 18C13.9999 19.1046 13.1045 20 11.9999 20Z" fill="white"/>
</svg>
