<svg width="20" height="22" viewBox="0 0 20 22" fill="none" xmlns="http://www.w3.org/2000/svg">
<path d="M10 0.5C8.71136 0.5 7.66669 1.54467 7.66669 2.83333V3.23165C4.9479 4.1926 3.00002 6.78549 3.00002 9.83333V15.6667H1.83335C1.18902 15.6667 0.666687 16.189 0.666687 16.8333C0.666687 17.4777 1.18902 18 1.83335 18H18.1667C18.811 18 19.3334 17.4777 19.3334 16.8333C19.3334 16.189 18.811 15.6667 18.1667 15.6667H17V9.83333C17 6.78549 15.0521 4.1926 12.3334 3.23165V2.83333C12.3334 1.54467 11.2887 0.5 10 0.5Z" fill="url(#paint0_linear)"/>
<path d="M10 21.5C8.71136 21.5 7.66669 20.4553 7.66669 19.1667H12.3334C12.3334 20.4553 11.2887 21.5 10 21.5Z" fill="url(#paint1_linear)"/>
<defs>
<linearGradient id="paint0_linear" x1="0.666687" y1="0.5" x2="22.2806" y2="4.17737" gradientUnits="userSpaceOnUse">
<stop stop-color="#F1A31D"/>
<stop offset="1" stop-color="#FF005B"/>
</linearGradient>
<linearGradient id="paint1_linear" x1="0.666687" y1="0.5" x2="22.2806" y2="4.17737" gradientUnits="userSpaceOnUse">
<stop stop-color="#F1A31D"/>
<stop offset="1" stop-color="#FF005B"/>
</linearGradient>
</defs>
</svg>
