<svg width="20" height="22" viewBox="0 0 20 22" fill="none" xmlns="http://www.w3.org/2000/svg">
<path d="M10 0.5C8.71134 0.5 7.66667 1.54467 7.66667 2.83333V3.23165C4.94789 4.1926 3 6.78549 3 9.83333V15.6667H1.83334C1.18901 15.6667 0.666672 16.189 0.666672 16.8333C0.666672 17.4777 1.18901 18 1.83334 18H18.1667C18.811 18 19.3333 17.4777 19.3333 16.8333C19.3333 16.189 18.811 15.6667 18.1667 15.6667H17V9.83333C17 6.78549 15.0521 4.1926 12.3333 3.23165V2.83333C12.3333 1.54467 11.2887 0.5 10 0.5Z" fill="white"/>
<path d="M10 21.5C8.71134 21.5 7.66667 20.4553 7.66667 19.1667H12.3333C12.3333 20.4553 11.2887 21.5 10 21.5Z" fill="white"/>
</svg>
