<svg width="16" height="18" viewBox="0 0 16 18" fill="none" xmlns="http://www.w3.org/2000/svg">
<path d="M14.25 6.25H11.4375V4.0625C11.4375 3.15082 11.0753 2.27648 10.4307 1.63182C9.78602 0.987164 8.91168 0.625 8 0.625C7.08832 0.625 6.21398 0.987164 5.56932 1.63182C4.92466 2.27648 4.5625 3.15082 4.5625 4.0625V6.25H1.75C1.4186 6.25038 1.10087 6.3822 0.866535 6.61654C0.632197 6.85087 0.500379 7.1686 0.5 7.5V16.25C0.500379 16.5814 0.632197 16.8991 0.866535 17.1335C1.10087 17.3678 1.4186 17.4996 1.75 17.5H14.25C14.5814 17.4996 14.8991 17.3678 15.1335 17.1335C15.3678 16.8991 15.4996 16.5814 15.5 16.25V7.5C15.4996 7.1686 15.3678 6.85087 15.1335 6.61654C14.8991 6.3822 14.5814 6.25038 14.25 6.25ZM7.99954 12.8125C7.81412 12.8125 7.63287 12.7575 7.47869 12.6545C7.32452 12.5515 7.20436 12.4051 7.13341 12.2338C7.06245 12.0625 7.04388 11.874 7.08006 11.6921C7.11623 11.5102 7.20552 11.3432 7.33663 11.2121C7.46774 11.081 7.63479 10.9917 7.81664 10.9555C7.9985 10.9193 8.187 10.9379 8.35831 11.0089C8.52961 11.0798 8.67603 11.2 8.77905 11.3542C8.88206 11.5083 8.93704 11.6896 8.93704 11.875C8.93704 11.9981 8.91279 12.12 8.86568 12.2338C8.81857 12.3475 8.74951 12.4509 8.66245 12.5379C8.5754 12.625 8.47205 12.694 8.35831 12.7411C8.24456 12.7882 8.12266 12.8125 7.99954 12.8125ZM10.1875 6.25H5.8125V4.0625C5.8125 3.48234 6.04297 2.92594 6.4532 2.5157C6.86344 2.10547 7.41984 1.875 8 1.875C8.58016 1.875 9.13656 2.10547 9.5468 2.5157C9.95703 2.92594 10.1875 3.48234 10.1875 4.0625V6.25Z" fill="#FF8000"/>
</svg>
