<svg width="52" height="52" viewBox="0 0 52 52" fill="none" xmlns="http://www.w3.org/2000/svg">
<circle cx="26" cy="26" r="26" fill="white"/>
<path d="M21.3333 17.833C20.0447 17.833 19 18.8777 19 20.1663V31.833C19 33.1217 20.0447 34.1663 21.3333 34.1663C22.622 34.1663 23.6667 33.1217 23.6667 31.833V25.9997V20.1663C23.6667 18.8777 22.622 17.833 21.3333 17.833Z" fill="black"/>
<path d="M30.6667 17.833C29.378 17.833 28.3333 18.8777 28.3333 20.1663V31.833C28.3333 33.1217 29.378 34.1663 30.6667 34.1663C31.9553 34.1663 33 33.1217 33 31.833V20.1663C33 18.8777 31.9553 17.833 30.6667 17.833Z" fill="black"/>
</svg>
