<svg width="24" height="24" viewBox="0 0 24 24" fill="none" xmlns="http://www.w3.org/2000/svg">
<path d="M18.667 8.51434L15.4861 5.33358C15.3804 5.22782 15.2548 5.14393 15.1166 5.0867C14.9784 5.02946 14.8303 5 14.6808 5C14.5312 5 14.3831 5.02946 14.2449 5.0867C14.1068 5.14393 13.9812 5.22782 13.8754 5.33358L12.0004 7.20857L12.0003 7.20868L12.0002 7.20878L5.33363 13.8751C5.22753 13.9806 5.14341 14.1061 5.08614 14.2443C5.02887 14.3825 4.9996 14.5308 5 14.6804V17.8611C5.00035 18.1631 5.12045 18.4525 5.33397 18.666C5.54748 18.8796 5.83696 18.9997 6.13892 19H9.31979C9.46942 19.0004 9.61764 18.9711 9.75587 18.9139C9.8941 18.8566 10.0196 18.7725 10.1251 18.6664L18.667 10.1249C18.8802 9.91115 19 9.62155 19 9.31961C19 9.01768 18.8802 8.72808 18.667 8.51434ZM16.3891 10.7921L13.2083 7.61132L14.6808 6.13887L17.8616 9.31962L16.3891 10.7921Z" fill="white"/>
</svg>
