<svg width="24" height="24" viewBox="0 0 24 24" fill="none" xmlns="http://www.w3.org/2000/svg">
<path d="M17.4779 11.1602L7.6601 5.16022C7.49473 5.0591 7.3054 5.00386 7.1116 5.0002C6.91779 4.99653 6.72651 5.04456 6.55744 5.13936C6.38836 5.23415 6.24759 5.37228 6.14962 5.53953C6.05164 5.70679 6 5.89713 6 6.09097V18.092C6.00016 18.2858 6.0519 18.476 6.14991 18.6432C6.24792 18.8104 6.38867 18.9484 6.55769 19.0432C6.72672 19.1379 6.91792 19.186 7.11166 19.1824C7.3054 19.1788 7.4947 19.1237 7.6601 19.0228L17.4779 13.0228C17.6374 12.9252 17.7691 12.7884 17.8606 12.6253C17.952 12.4623 18 12.2784 18 12.0915C18 11.9046 17.952 11.7207 17.8606 11.5577C17.7691 11.3946 17.6374 11.2578 17.4779 11.1602Z" fill="white"/>
</svg>
