<svg width="16" height="16" viewBox="0 0 16 16" fill="none" xmlns="http://www.w3.org/2000/svg">
<g clip-path="url(#clip0)">
<path d="M6.00002 5.33333C7.47278 5.33333 8.66669 4.13943 8.66669 2.66667C8.66669 1.19391 7.47278 0 6.00002 0C4.52725 0 3.33334 1.19391 3.33334 2.66667C3.33334 4.13943 4.52725 5.33333 6.00002 5.33333Z" fill="url(#paint0_linear)"/>
<path d="M9.89541 7.83708C9.71037 7.12119 9.29294 6.48696 8.70861 6.03386C8.12427 5.58077 7.40608 5.33444 6.66666 5.3335H5.33333C4.44958 5.33449 3.60231 5.686 2.9774 6.3109C2.35249 6.93581 2.00098 7.78308 1.99999 8.66683V11.3335C1.99999 11.5103 2.07023 11.6799 2.19525 11.8049C2.32028 11.9299 2.48985 12.0002 2.66666 12.0002H7.33333C7.33415 11.1373 7.574 10.2915 8.02625 9.55667C8.4785 8.82182 9.12547 8.22661 9.89541 7.83708Z" fill="url(#paint1_linear)"/>
<path d="M12 8C11.2089 8 10.4355 8.2346 9.77773 8.67412C9.11994 9.11365 8.60725 9.73836 8.3045 10.4693C8.00175 11.2002 7.92253 12.0044 8.07687 12.7804C8.23121 13.5563 8.61218 14.269 9.17159 14.8284C9.731 15.3878 10.4437 15.7688 11.2197 15.9231C11.9956 16.0775 12.7998 15.9983 13.5307 15.6955C14.2617 15.3928 14.8864 14.8801 15.3259 14.2223C15.7654 13.5645 16 12.7911 16 12C15.9988 10.9395 15.577 9.9228 14.8271 9.17291C14.0772 8.42303 13.0605 8.00121 12 8ZM14.2982 12.3991C13.761 13.4733 12.216 14.2643 12.1505 14.2974C12.1128 14.3165 12.0413 14.3736 12 14.3736C11.9588 14.3736 11.8872 14.3165 11.8495 14.2974C11.784 14.2641 10.239 13.4733 9.70185 12.3991C9.31143 11.6183 9.47685 10.7279 10.0958 10.2819C10.5386 9.96292 11.2518 9.86692 12 10.4687C12.7483 9.86675 13.4614 9.96283 13.9042 10.2819C14.5228 10.7279 14.6886 11.6183 14.2982 12.3991Z" fill="url(#paint2_linear)"/>
</g>
<defs>
<linearGradient id="paint0_linear" x1="3.33334" y1="0" x2="9.46296" y2="1.17325" gradientUnits="userSpaceOnUse">
<stop stop-color="#F1A31D"/>
<stop offset="1" stop-color="#FF005B"/>
</linearGradient>
<linearGradient id="paint1_linear" x1="1.99999" y1="5.3335" x2="10.9469" y2="7.36162" gradientUnits="userSpaceOnUse">
<stop stop-color="#F1A31D"/>
<stop offset="1" stop-color="#FF005B"/>
</linearGradient>
<linearGradient id="paint2_linear" x1="8.00001" y1="8" x2="17.1944" y2="9.75987" gradientUnits="userSpaceOnUse">
<stop stop-color="#F1A31D"/>
<stop offset="1" stop-color="#FF005B"/>
</linearGradient>
<clipPath id="clip0">
<rect width="16" height="16" fill="white"/>
</clipPath>
</defs>
</svg>
