<svg width="24" height="24" viewBox="0 0 24 24" fill="none" xmlns="http://www.w3.org/2000/svg">
<path d="M19.4966 7.5H16.1216V4.875C16.1216 3.78098 15.687 2.73177 14.9134 1.95818C14.1398 1.1846 13.0906 0.75 11.9966 0.75C10.9026 0.75 9.85335 1.1846 9.07977 1.95818C8.30618 2.73177 7.87158 3.78098 7.87158 4.875V7.5H4.49658C4.0989 7.50045 3.71763 7.65864 3.43642 7.93984C3.15522 8.22105 2.99704 8.60231 2.99658 9V19.5C2.99704 19.8977 3.15522 20.279 3.43642 20.5602C3.71763 20.8414 4.0989 20.9995 4.49658 21H19.4966C19.8943 20.9995 20.2755 20.8414 20.5567 20.5602C20.8379 20.279 20.9961 19.8977 20.9966 19.5V9C20.9961 8.60231 20.8379 8.22105 20.5567 7.93984C20.2755 7.65864 19.8943 7.50045 19.4966 7.5ZM9.37158 4.875C9.37158 4.17881 9.64814 3.51113 10.1404 3.01884C10.6327 2.52656 11.3004 2.25 11.9966 2.25C12.6928 2.25 13.3605 2.52656 13.8527 3.01884C14.345 3.51113 14.6216 4.17881 14.6216 4.875V7.5H9.37158V4.875ZM17.2466 18H6.74658C6.54767 18 6.3569 17.921 6.21625 17.7803C6.0756 17.6397 5.99658 17.4489 5.99658 17.25C5.99658 17.0511 6.0756 16.8603 6.21625 16.7197C6.3569 16.579 6.54767 16.5 6.74658 16.5H17.2466C17.4455 16.5 17.6363 16.579 17.7769 16.7197C17.9176 16.8603 17.9966 17.0511 17.9966 17.25C17.9966 17.4489 17.9176 17.6397 17.7769 17.7803C17.6363 17.921 17.4455 18 17.2466 18ZM17.2466 15H6.74658C6.54767 15 6.3569 14.921 6.21625 14.7803C6.0756 14.6397 5.99658 14.4489 5.99658 14.25C5.99658 14.0511 6.0756 13.8603 6.21625 13.7197C6.3569 13.579 6.54767 13.5 6.74658 13.5H17.2466C17.4455 13.5 17.6363 13.579 17.7769 13.7197C17.9176 13.8603 17.9966 14.0511 17.9966 14.25C17.9966 14.4489 17.9176 14.6397 17.7769 14.7803C17.6363 14.921 17.4455 15 17.2466 15ZM17.2466 12H6.74658C6.54767 12 6.3569 11.921 6.21625 11.7803C6.0756 11.6397 5.99658 11.4489 5.99658 11.25C5.99658 11.0511 6.0756 10.8603 6.21625 10.7197C6.3569 10.579 6.54767 10.5 6.74658 10.5H17.2466C17.4455 10.5 17.6363 10.579 17.7769 10.7197C17.9176 10.8603 17.9966 11.0511 17.9966 11.25C17.9966 11.4489 17.9176 11.6397 17.7769 11.7803C17.6363 11.921 17.4455 12 17.2466 12Z" fill="#D2D2D3"/>
</svg>
