<svg width="30" height="30" viewBox="0 0 30 30" fill="none" xmlns="http://www.w3.org/2000/svg">
<circle cx="15" cy="15" r="15" fill="#323437"/>
<path d="M15 6C17.9025 6 20.2639 8.36137 20.2639 11.264V14.2704C20.2639 14.3045 20.3061 14.3621 20.3392 14.3731C20.6239 14.468 20.8551 14.5503 21.0667 14.6319C21.3191 14.7292 21.5094 15.0089 21.5094 15.2825V22.1903C21.5094 22.4621 21.3203 22.742 21.0695 22.8414C19.1292 23.6102 17.0872 24 15 24C12.9128 24 10.8707 23.6101 8.93036 22.8413C8.67968 22.7419 8.49066 22.4621 8.49066 22.1903V15.2825C8.49066 15.0089 8.68097 14.7292 8.93347 14.6318C9.14519 14.5502 9.37634 14.468 9.66078 14.373C9.69381 14.362 9.73597 14.3044 9.73597 14.2703V11.2639C9.73612 8.36137 12.0974 6 15 6ZM16.4337 17.3864C16.4337 16.594 15.7918 15.9527 15 15.9527C14.2083 15.9527 13.5664 16.5939 13.5664 17.3864C13.5664 17.9114 13.8625 18.351 14.2832 18.6003V20.9705C14.2832 21.3668 14.6039 21.6874 15.0001 21.6874C15.3963 21.6874 15.7169 21.3668 15.7169 20.9705V18.6003C16.1376 18.351 16.4337 17.9114 16.4337 17.3864ZM11.546 11.2639V13.8579C12.6787 13.6141 13.8407 13.4907 14.9995 13.4906C16.1577 13.4906 17.3195 13.6141 18.454 13.8576V11.2639C18.454 9.35935 16.9046 7.80998 15 7.80998C13.0956 7.80995 11.546 9.35935 11.546 11.2639Z" fill="white"/>
</svg>
