<svg width="30" height="30" viewBox="0 0 30 30" fill="none" xmlns="http://www.w3.org/2000/svg">
<circle cx="15" cy="15" r="15" fill="url(#paint0_linear)"/>
<path fill-rule="evenodd" clip-rule="evenodd" d="M20.2639 11.264C20.2639 8.36137 17.9025 6 15 6C12.4782 6 10.3649 7.78251 9.8538 10.1538H11.729C12.1924 8.79214 13.4837 7.80996 15 7.80998C16.9046 7.80998 18.454 9.35935 18.454 11.2639V13.8576C17.3195 13.6141 16.1577 13.4906 14.9995 13.4906C13.8407 13.4907 12.6787 13.6141 11.546 13.8579C9.72462 14.3556 9.69377 14.3622 9.66399 14.372C9.66294 14.3723 9.6619 14.3727 9.66078 14.373C9.37634 14.468 9.14519 14.5502 8.93347 14.6318C8.68097 14.7292 8.49066 15.0089 8.49066 15.2825V22.1903C8.49066 22.4621 8.67968 22.7419 8.93036 22.8413C10.8707 23.6101 12.9128 24 15 24C17.0872 24 19.1292 23.6102 21.0695 22.8414C21.3203 22.742 21.5094 22.4621 21.5094 22.1903V15.2825C21.5094 15.0089 21.3191 14.7292 21.0667 14.6319C20.8551 14.5503 20.6239 14.468 20.3392 14.3731C20.3061 14.3621 20.2639 14.3045 20.2639 14.2704V11.264ZM11.546 13.7865V13.8579L11.5036 13.7971L11.546 13.7865ZM15 15.9527C15.7918 15.9527 16.4337 16.594 16.4337 17.3864C16.4337 17.9114 16.1376 18.351 15.7169 18.6003V20.9705C15.7169 21.3668 15.3963 21.6874 15.0001 21.6874C14.6039 21.6874 14.2832 21.3668 14.2832 20.9705V18.6003C13.8625 18.351 13.5664 17.9114 13.5664 17.3864C13.5664 16.5939 14.2083 15.9527 15 15.9527Z" fill="white"/>
<defs>
<linearGradient id="paint0_linear" x1="1.22342e-07" y1="2.57143" x2="33.7659" y2="8.48046" gradientUnits="userSpaceOnUse">
<stop stop-color="#5003E8"/>
<stop offset="1" stop-color="#B602F9"/>
</linearGradient>
</defs>
</svg>
