<svg width="32" height="26" viewBox="0 0 32 26" fill="none" xmlns="http://www.w3.org/2000/svg">
<path d="M3.026 16.0499C3.026 16.0499 3.318 14.8449 2.312 13.8059C1.305 12.7639 0.0450002 12.7639 0.0450002 12.7639C0.0450002 12.7639 -0.262 14.1809 0.72 15.1949C1.703 16.2079 3.026 16.0499 3.026 16.0499Z" fill="url(#paint0_linear)"/>
<path d="M18.404 17.029V5.97803H15.8C15.779 6.43403 15.671 6.81703 15.474 7.12903C15.278 7.44103 15.027 7.69103 14.721 7.87503C14.413 8.06103 14.07 8.19203 13.688 8.27203C13.307 8.35103 12.916 8.38603 12.513 8.37603V10.662H15.102V17.029H18.404Z" fill="url(#paint1_linear)"/>
<path d="M8.284 11.1959C8.202 10.7459 8.154 10.2849 8.154 9.81093C8.154 5.53293 11.615 2.05193 15.884 2.01493V2.01893C20.162 2.04693 23.633 5.53293 23.633 9.81593C23.633 10.2899 23.584 10.7509 23.503 11.2009H25.46C25.524 10.7469 25.569 10.2879 25.569 9.81593C25.569 4.47093 21.238 0.119928 15.902 0.0819278V0.0759277C10.557 0.103928 6.217 4.45993 6.217 9.81093C6.217 10.2829 6.262 10.7419 6.327 11.1959H8.284Z" fill="url(#paint2_linear)"/>
<path d="M5.236 15.822C5.236 15.822 6.405 15.179 6.613 13.785C6.821 12.389 5.746 11.415 5.746 11.415C5.746 11.415 4.723 12.149 4.509 13.581C4.296 15.011 5.236 15.822 5.236 15.822Z" fill="url(#paint3_linear)"/>
<path d="M6.003 17.1999C5.979 18.6459 7.016 19.3269 7.016 19.3269C7.016 19.3269 8.091 18.5369 8.116 17.1269C8.139 15.7169 6.947 14.8909 6.947 14.8909C6.947 14.8909 6.027 15.7509 6.003 17.1999Z" fill="url(#paint4_linear)"/>
<path d="M9.177 16.9309C9.177 16.9309 8.343 17.8749 8.454 19.3199C8.566 20.7629 9.662 21.3409 9.662 21.3409C9.662 21.3409 10.659 20.4549 10.551 19.0479C10.441 17.6419 9.177 16.9309 9.177 16.9309Z" fill="url(#paint5_linear)"/>
<path d="M12.985 23.0798C12.985 23.0798 13.685 21.9429 13.176 20.6269C12.666 19.3129 11.25 18.9958 11.25 18.9958C11.25 18.9958 10.723 20.1408 11.246 21.4908C11.769 22.8408 12.985 23.0798 12.985 23.0798Z" fill="url(#paint6_linear)"/>
<path d="M3.5 12.9629C3.5 12.9629 4.413 12.1229 4.152 10.6989C3.893 9.27593 2.845 8.57593 2.845 8.57593C2.845 8.57593 1.804 9.58493 2.058 10.9739C2.311 12.3609 3.5 12.9629 3.5 12.9629Z" fill="url(#paint7_linear)"/>
<path d="M4.25 18.7769C4.25 18.7769 4.174 17.5389 2.906 16.8409C1.637 16.1439 0.433001 16.5149 0.433001 16.5149C0.433001 16.5149 0.558001 17.9589 1.795 18.6399C3.03 19.3199 4.25 18.7769 4.25 18.7769Z" fill="url(#paint8_linear)"/>
<path d="M6.395 21.173C6.395 21.173 6.046 19.984 4.655 19.585C3.262 19.189 2.171 19.816 2.171 19.816C2.171 19.816 2.614 21.197 3.97 21.585C5.327 21.972 6.395 21.173 6.395 21.173Z" fill="url(#paint9_linear)"/>
<path d="M8.787 22.8759C8.787 22.8759 8.094 21.8489 6.647 21.8899C5.199 21.9309 4.35 22.8619 4.35 22.8619C4.35 22.8619 5.19 24.0449 6.6 24.0039C8.01 23.9619 8.787 22.8759 8.787 22.8759Z" fill="url(#paint10_linear)"/>
<path d="M9.81 23.5719C8.378 23.7869 7.645 24.8099 7.645 24.8099C7.645 24.8099 8.621 25.8839 10.016 25.6749C11.412 25.4639 12.052 24.2939 12.052 24.2939C12.052 24.2939 11.239 23.3559 9.81 23.5719Z" fill="url(#paint11_linear)"/>
<path d="M3.975 13.667L3.286 13.644C3.283 13.718 3.148 21.203 14.454 24.519L14.648 23.857C3.882 20.699 3.965 13.954 3.975 13.667Z" fill="url(#paint12_linear)"/>
<path d="M28.758 16.056C28.758 16.056 30.083 16.214 31.064 15.201C32.045 14.187 31.739 12.77 31.739 12.77C31.739 12.77 30.479 12.77 29.472 13.811C28.466 14.849 28.758 16.056 28.758 16.056Z" fill="url(#paint13_linear)"/>
<path d="M25.171 13.7899C25.379 15.1859 26.548 15.8269 26.548 15.8269C26.548 15.8269 27.487 15.0169 27.275 13.5859C27.063 12.1549 26.039 11.4199 26.039 11.4199C26.039 11.4199 24.963 12.3939 25.171 13.7899Z" fill="url(#paint14_linear)"/>
<path d="M23.669 17.132C23.692 18.541 24.769 19.331 24.769 19.331C24.769 19.331 25.806 18.651 25.782 17.204C25.759 15.757 24.84 14.895 24.84 14.895C24.84 14.895 23.646 15.722 23.669 17.132Z" fill="url(#paint15_linear)"/>
<path d="M21.232 19.054C21.125 20.461 22.122 21.347 22.122 21.347C22.122 21.347 23.219 20.769 23.33 19.326C23.44 17.883 22.606 16.937 22.606 16.937C22.606 16.937 21.343 17.648 21.232 19.054Z" fill="url(#paint16_linear)"/>
<path d="M18.608 20.632C18.1 21.949 18.8 23.085 18.8 23.085C18.8 23.085 20.017 22.847 20.539 21.496C21.06 20.145 20.535 19.001 20.535 19.001C20.535 19.001 19.119 19.318 18.608 20.632Z" fill="url(#paint17_linear)"/>
<path d="M29.728 10.9788C29.982 9.58981 28.941 8.58081 28.941 8.58081C28.941 8.58081 27.893 9.28081 27.633 10.7048C27.373 12.1278 28.285 12.9688 28.285 12.9688C28.285 12.9688 29.475 12.3668 29.728 10.9788Z" fill="url(#paint18_linear)"/>
<path d="M28.88 16.847C27.611 17.544 27.536 18.783 27.536 18.783C27.536 18.783 28.755 19.326 29.992 18.646C31.227 17.966 31.353 16.521 31.353 16.521C31.353 16.521 30.148 16.15 28.88 16.847Z" fill="url(#paint19_linear)"/>
<path d="M27.131 19.5909C25.739 19.9879 25.391 21.1789 25.391 21.1789C25.391 21.1789 26.459 21.9779 27.816 21.5909C29.172 21.2019 29.615 19.8209 29.615 19.8209C29.615 19.8209 28.523 19.1929 27.131 19.5909Z" fill="url(#paint20_linear)"/>
<path d="M25.138 21.894C23.692 21.853 22.998 22.882 22.998 22.882C22.998 22.882 23.773 23.968 25.185 24.009C26.595 24.05 27.435 22.866 27.435 22.866C27.435 22.866 26.586 21.937 25.138 21.894Z" fill="url(#paint21_linear)"/>
<path d="M21.976 23.5769C20.545 23.3619 19.734 24.3009 19.734 24.3009C19.734 24.3009 20.375 25.4709 21.77 25.6819C23.166 25.8889 24.141 24.8179 24.141 24.8179C24.141 24.8179 23.408 23.7919 21.976 23.5769Z" fill="url(#paint22_linear)"/>
<path d="M28.501 13.6489L27.812 13.6729C27.821 13.9579 27.903 20.7029 17.139 23.8619L17.333 24.5249C28.639 21.2079 28.503 13.7239 28.501 13.6489Z" fill="url(#paint23_linear)"/>
<defs>
<linearGradient id="paint0_linear" x1="-0.000436783" y1="12.7639" x2="3.53992" y2="13.3944" gradientUnits="userSpaceOnUse">
<stop stop-color="#FFE600"/>
<stop offset="1" stop-color="#AD7D00"/>
</linearGradient>
<linearGradient id="paint1_linear" x1="12.513" y1="5.97803" x2="19.4593" y2="6.68678" gradientUnits="userSpaceOnUse">
<stop stop-color="#FFE600"/>
<stop offset="1" stop-color="#AD7D00"/>
</linearGradient>
<linearGradient id="paint2_linear" x1="6.217" y1="0.0759277" x2="26.9722" y2="6.98643" gradientUnits="userSpaceOnUse">
<stop stop-color="#FFE600"/>
<stop offset="1" stop-color="#AD7D00"/>
</linearGradient>
<linearGradient id="paint3_linear" x1="4.47759" y1="11.415" x2="7.03104" y2="11.6548" gradientUnits="userSpaceOnUse">
<stop stop-color="#FFE600"/>
<stop offset="1" stop-color="#AD7D00"/>
</linearGradient>
<linearGradient id="paint4_linear" x1="6.00259" y1="14.8909" x2="8.50014" y2="15.1187" gradientUnits="userSpaceOnUse">
<stop stop-color="#FFE600"/>
<stop offset="1" stop-color="#AD7D00"/>
</linearGradient>
<linearGradient id="paint5_linear" x1="8.44383" y1="16.9309" x2="10.943" y2="17.1604" gradientUnits="userSpaceOnUse">
<stop stop-color="#FFE600"/>
<stop offset="1" stop-color="#AD7D00"/>
</linearGradient>
<linearGradient id="paint6_linear" x1="11.0146" y1="18.9958" x2="13.7773" y2="19.2997" gradientUnits="userSpaceOnUse">
<stop stop-color="#FFE600"/>
<stop offset="1" stop-color="#AD7D00"/>
</linearGradient>
<linearGradient id="paint7_linear" x1="2.01807" y1="8.57593" x2="4.59303" y2="8.82094" gradientUnits="userSpaceOnUse">
<stop stop-color="#FFE600"/>
<stop offset="1" stop-color="#AD7D00"/>
</linearGradient>
<linearGradient id="paint8_linear" x1="0.433001" y1="16.4163" x2="4.63958" y2="17.614" gradientUnits="userSpaceOnUse">
<stop stop-color="#FFE600"/>
<stop offset="1" stop-color="#AD7D00"/>
</linearGradient>
<linearGradient id="paint9_linear" x1="2.171" y1="19.4539" x2="6.62207" y2="21.0626" gradientUnits="userSpaceOnUse">
<stop stop-color="#FFE600"/>
<stop offset="1" stop-color="#AD7D00"/>
</linearGradient>
<linearGradient id="paint10_linear" x1="4.35" y1="21.8887" x2="8.90301" y2="23.7158" gradientUnits="userSpaceOnUse">
<stop stop-color="#FFE600"/>
<stop offset="1" stop-color="#AD7D00"/>
</linearGradient>
<linearGradient id="paint11_linear" x1="7.645" y1="23.5396" x2="12.202" y2="25.3173" gradientUnits="userSpaceOnUse">
<stop stop-color="#FFE600"/>
<stop offset="1" stop-color="#AD7D00"/>
</linearGradient>
<linearGradient id="paint12_linear" x1="3.28569" y1="13.644" x2="16.3022" y2="16.2471" gradientUnits="userSpaceOnUse">
<stop stop-color="#FFE600"/>
<stop offset="1" stop-color="#AD7D00"/>
</linearGradient>
<linearGradient id="paint13_linear" x1="28.7186" y1="12.77" x2="32.2587" y2="13.4004" gradientUnits="userSpaceOnUse">
<stop stop-color="#FFE600"/>
<stop offset="1" stop-color="#AD7D00"/>
</linearGradient>
<linearGradient id="paint14_linear" x1="25.1443" y1="11.4199" x2="27.6975" y2="11.6596" gradientUnits="userSpaceOnUse">
<stop stop-color="#FFE600"/>
<stop offset="1" stop-color="#AD7D00"/>
</linearGradient>
<linearGradient id="paint15_linear" x1="23.6687" y1="14.895" x2="26.1662" y2="15.1228" gradientUnits="userSpaceOnUse">
<stop stop-color="#FFE600"/>
<stop offset="1" stop-color="#AD7D00"/>
</linearGradient>
<linearGradient id="paint16_linear" x1="21.224" y1="16.937" x2="23.7239" y2="17.1666" gradientUnits="userSpaceOnUse">
<stop stop-color="#FFE600"/>
<stop offset="1" stop-color="#AD7D00"/>
</linearGradient>
<linearGradient id="paint17_linear" x1="18.4231" y1="19.001" x2="21.1852" y2="19.3047" gradientUnits="userSpaceOnUse">
<stop stop-color="#FFE600"/>
<stop offset="1" stop-color="#AD7D00"/>
</linearGradient>
<linearGradient id="paint18_linear" x1="27.5864" y1="8.58081" x2="30.1622" y2="8.82592" gradientUnits="userSpaceOnUse">
<stop stop-color="#FFE600"/>
<stop offset="1" stop-color="#AD7D00"/>
</linearGradient>
<linearGradient id="paint19_linear" x1="27.536" y1="16.4224" x2="31.7426" y2="17.6201" gradientUnits="userSpaceOnUse">
<stop stop-color="#FFE600"/>
<stop offset="1" stop-color="#AD7D00"/>
</linearGradient>
<linearGradient id="paint20_linear" x1="25.391" y1="19.4587" x2="29.8425" y2="21.0669" gradientUnits="userSpaceOnUse">
<stop stop-color="#FFE600"/>
<stop offset="1" stop-color="#AD7D00"/>
</linearGradient>
<linearGradient id="paint21_linear" x1="22.998" y1="21.8928" x2="27.5516" y2="23.7194" gradientUnits="userSpaceOnUse">
<stop stop-color="#FFE600"/>
<stop offset="1" stop-color="#AD7D00"/>
</linearGradient>
<linearGradient id="paint22_linear" x1="19.734" y1="23.5449" x2="24.2917" y2="25.3219" gradientUnits="userSpaceOnUse">
<stop stop-color="#FFE600"/>
<stop offset="1" stop-color="#AD7D00"/>
</linearGradient>
<linearGradient id="paint23_linear" x1="17.139" y1="13.6489" x2="30.1556" y2="16.2518" gradientUnits="userSpaceOnUse">
<stop stop-color="#FFE600"/>
<stop offset="1" stop-color="#AD7D00"/>
</linearGradient>
</defs>
</svg>
