<svg width="32" height="32" viewBox="0 0 32 32" fill="none" xmlns="http://www.w3.org/2000/svg">
<g clip-path="url(#clip0)">
<path d="M3.026 19.0499C3.026 19.0499 3.318 17.8449 2.312 16.8059C1.305 15.7639 0.0450002 15.7639 0.0450002 15.7639C0.0450002 15.7639 -0.262 17.1809 0.72 18.1949C1.703 19.2079 3.026 19.0499 3.026 19.0499Z" fill="url(#paint0_linear)"/>
<path d="M17.194 13.176C17.8194 13.3906 18.3234 13.7406 18.706 14.226C19.0887 14.702 19.28 15.2666 19.28 15.92C19.28 16.9466 18.9347 17.7493 18.244 18.328C17.5534 18.9066 16.7087 19.196 15.71 19.196C14.9354 19.196 14.24 19.0186 13.624 18.664C13.0174 18.3093 12.5694 17.7866 12.28 17.096L14.212 15.976C14.4547 16.6666 14.954 17.012 15.71 17.012C16.1487 17.012 16.48 16.9093 16.704 16.704C16.928 16.4986 17.04 16.2373 17.04 15.92C17.04 15.6026 16.928 15.3413 16.704 15.136C16.48 14.9306 16.1487 14.828 15.71 14.828H15.248L14.394 13.554L16.172 11.3H12.588V9.19995H18.888V11.02L17.194 13.176Z" fill="url(#paint1_linear)"/>
<path d="M8.284 14.1959C8.202 13.7459 8.154 13.2849 8.154 12.8109C8.154 8.53293 11.615 5.05193 15.884 5.01493V5.01893C20.162 5.04693 23.633 8.53293 23.633 12.8159C23.633 13.2899 23.584 13.7509 23.503 14.2009H25.46C25.524 13.7469 25.569 13.2879 25.569 12.8159C25.569 7.47093 21.238 3.11993 15.902 3.08193V3.07593C10.557 3.10393 6.217 7.45993 6.217 12.8109C6.217 13.2829 6.262 13.7419 6.327 14.1959H8.284Z" fill="url(#paint2_linear)"/>
<path d="M5.236 18.822C5.236 18.822 6.405 18.179 6.613 16.785C6.821 15.389 5.746 14.415 5.746 14.415C5.746 14.415 4.723 15.149 4.509 16.581C4.296 18.011 5.236 18.822 5.236 18.822Z" fill="url(#paint3_linear)"/>
<path d="M6.003 20.1999C5.979 21.6459 7.016 22.3269 7.016 22.3269C7.016 22.3269 8.091 21.5369 8.116 20.1269C8.139 18.7169 6.947 17.8909 6.947 17.8909C6.947 17.8909 6.027 18.7509 6.003 20.1999Z" fill="url(#paint4_linear)"/>
<path d="M9.177 19.9309C9.177 19.9309 8.343 20.8749 8.454 22.3199C8.566 23.7629 9.662 24.3409 9.662 24.3409C9.662 24.3409 10.659 23.4549 10.551 22.0479C10.441 20.6419 9.177 19.9309 9.177 19.9309Z" fill="url(#paint5_linear)"/>
<path d="M12.985 26.0798C12.985 26.0798 13.685 24.9429 13.176 23.6269C12.666 22.3129 11.25 21.9958 11.25 21.9958C11.25 21.9958 10.723 23.1408 11.246 24.4908C11.769 25.8408 12.985 26.0798 12.985 26.0798Z" fill="url(#paint6_linear)"/>
<path d="M3.5 15.9629C3.5 15.9629 4.413 15.1229 4.152 13.6989C3.893 12.2759 2.845 11.5759 2.845 11.5759C2.845 11.5759 1.804 12.5849 2.058 13.9739C2.311 15.3609 3.5 15.9629 3.5 15.9629Z" fill="url(#paint7_linear)"/>
<path d="M4.25 21.7769C4.25 21.7769 4.174 20.5389 2.906 19.8409C1.637 19.1439 0.433001 19.5149 0.433001 19.5149C0.433001 19.5149 0.558001 20.9589 1.795 21.6399C3.03 22.3199 4.25 21.7769 4.25 21.7769Z" fill="url(#paint8_linear)"/>
<path d="M6.395 24.173C6.395 24.173 6.046 22.984 4.655 22.585C3.262 22.189 2.171 22.816 2.171 22.816C2.171 22.816 2.614 24.197 3.97 24.585C5.327 24.972 6.395 24.173 6.395 24.173Z" fill="url(#paint9_linear)"/>
<path d="M8.787 25.8759C8.787 25.8759 8.094 24.8489 6.647 24.8899C5.199 24.9309 4.35 25.8619 4.35 25.8619C4.35 25.8619 5.19 27.0449 6.6 27.0039C8.01 26.9619 8.787 25.8759 8.787 25.8759Z" fill="url(#paint10_linear)"/>
<path d="M9.81 26.5719C8.378 26.7869 7.645 27.8099 7.645 27.8099C7.645 27.8099 8.621 28.8839 10.016 28.6749C11.412 28.4639 12.052 27.2939 12.052 27.2939C12.052 27.2939 11.239 26.3559 9.81 26.5719Z" fill="url(#paint11_linear)"/>
<path d="M3.975 16.667L3.286 16.644C3.283 16.718 3.148 24.203 14.454 27.519L14.648 26.857C3.882 23.699 3.965 16.954 3.975 16.667Z" fill="url(#paint12_linear)"/>
<path d="M28.758 19.056C28.758 19.056 30.083 19.214 31.064 18.201C32.045 17.187 31.739 15.77 31.739 15.77C31.739 15.77 30.479 15.77 29.472 16.811C28.466 17.849 28.758 19.056 28.758 19.056Z" fill="url(#paint13_linear)"/>
<path d="M25.171 16.7899C25.379 18.1859 26.548 18.8269 26.548 18.8269C26.548 18.8269 27.487 18.0169 27.275 16.5859C27.063 15.1549 26.039 14.4199 26.039 14.4199C26.039 14.4199 24.963 15.3939 25.171 16.7899Z" fill="url(#paint14_linear)"/>
<path d="M23.669 20.132C23.692 21.541 24.769 22.331 24.769 22.331C24.769 22.331 25.806 21.651 25.782 20.204C25.759 18.757 24.84 17.895 24.84 17.895C24.84 17.895 23.646 18.722 23.669 20.132Z" fill="url(#paint15_linear)"/>
<path d="M21.232 22.054C21.125 23.461 22.122 24.347 22.122 24.347C22.122 24.347 23.219 23.769 23.33 22.326C23.44 20.883 22.606 19.937 22.606 19.937C22.606 19.937 21.343 20.648 21.232 22.054Z" fill="url(#paint16_linear)"/>
<path d="M18.608 23.632C18.1 24.949 18.8 26.085 18.8 26.085C18.8 26.085 20.017 25.847 20.539 24.496C21.06 23.145 20.535 22.001 20.535 22.001C20.535 22.001 19.119 22.318 18.608 23.632Z" fill="url(#paint17_linear)"/>
<path d="M29.728 13.9788C29.982 12.5898 28.941 11.5808 28.941 11.5808C28.941 11.5808 27.893 12.2808 27.633 13.7048C27.373 15.1278 28.285 15.9688 28.285 15.9688C28.285 15.9688 29.475 15.3668 29.728 13.9788Z" fill="url(#paint18_linear)"/>
<path d="M28.88 19.847C27.611 20.544 27.536 21.783 27.536 21.783C27.536 21.783 28.755 22.326 29.992 21.646C31.227 20.966 31.353 19.521 31.353 19.521C31.353 19.521 30.148 19.15 28.88 19.847Z" fill="url(#paint19_linear)"/>
<path d="M27.131 22.5909C25.739 22.9879 25.391 24.1789 25.391 24.1789C25.391 24.1789 26.459 24.9779 27.816 24.5909C29.172 24.2019 29.615 22.8209 29.615 22.8209C29.615 22.8209 28.523 22.1929 27.131 22.5909Z" fill="url(#paint20_linear)"/>
<path d="M25.138 24.894C23.692 24.853 22.998 25.882 22.998 25.882C22.998 25.882 23.773 26.968 25.185 27.009C26.595 27.05 27.435 25.866 27.435 25.866C27.435 25.866 26.586 24.937 25.138 24.894Z" fill="url(#paint21_linear)"/>
<path d="M21.976 26.5769C20.545 26.3619 19.734 27.3009 19.734 27.3009C19.734 27.3009 20.375 28.4709 21.77 28.6819C23.166 28.8889 24.141 27.8179 24.141 27.8179C24.141 27.8179 23.408 26.7919 21.976 26.5769Z" fill="url(#paint22_linear)"/>
<path d="M28.501 16.6489L27.812 16.6729C27.821 16.9579 27.903 23.7029 17.139 26.8619L17.333 27.5249C28.639 24.2079 28.503 16.7239 28.501 16.6489Z" fill="url(#paint23_linear)"/>
</g>
<defs>
<linearGradient id="paint0_linear" x1="-0.123083" y1="15.698" x2="1.70958" y2="19.6316" gradientUnits="userSpaceOnUse">
<stop stop-color="#DFCBB4"/>
<stop offset="1" stop-color="#6A5300"/>
</linearGradient>
<linearGradient id="paint1_linear" x1="12" y1="8.99994" x2="18.5" y2="19.4999" gradientUnits="userSpaceOnUse">
<stop stop-color="#DFCBB4"/>
<stop offset="1" stop-color="#6A5300"/>
</linearGradient>
<linearGradient id="paint2_linear" x1="5.44284" y1="2.85333" x2="9.23561" y2="18.0723" gradientUnits="userSpaceOnUse">
<stop stop-color="#DFCBB4"/>
<stop offset="1" stop-color="#6A5300"/>
</linearGradient>
<linearGradient id="paint3_linear" x1="4.39109" y1="14.3269" x2="7.56834" y2="17.9226" gradientUnits="userSpaceOnUse">
<stop stop-color="#DFCBB4"/>
<stop offset="1" stop-color="#6A5300"/>
</linearGradient>
<linearGradient id="paint4_linear" x1="5.91803" y1="17.8021" x2="9.12635" y2="21.3286" gradientUnits="userSpaceOnUse">
<stop stop-color="#DFCBB4"/>
<stop offset="1" stop-color="#6A5300"/>
</linearGradient>
<linearGradient id="paint5_linear" x1="8.35921" y1="19.8427" x2="11.5467" y2="23.3696" gradientUnits="userSpaceOnUse">
<stop stop-color="#DFCBB4"/>
<stop offset="1" stop-color="#6A5300"/>
</linearGradient>
<linearGradient id="paint6_linear" x1="10.9207" y1="21.9141" x2="13.7736" y2="25.6959" gradientUnits="userSpaceOnUse">
<stop stop-color="#DFCBB4"/>
<stop offset="1" stop-color="#6A5300"/>
</linearGradient>
<linearGradient id="paint7_linear" x1="1.93083" y1="11.4881" x2="5.08826" y2="15.1089" gradientUnits="userSpaceOnUse">
<stop stop-color="#DFCBB4"/>
<stop offset="1" stop-color="#6A5300"/>
</linearGradient>
<linearGradient id="paint8_linear" x1="0.280305" y1="19.3649" x2="1.28177" y2="22.8013" gradientUnits="userSpaceOnUse">
<stop stop-color="#DFCBB4"/>
<stop offset="1" stop-color="#6A5300"/>
</linearGradient>
<linearGradient id="paint9_linear" x1="2.00202" y1="22.4091" x2="2.71085" y2="25.4966" gradientUnits="userSpaceOnUse">
<stop stop-color="#DFCBB4"/>
<stop offset="1" stop-color="#6A5300"/>
</linearGradient>
<linearGradient id="paint10_linear" x1="4.1725" y1="24.8463" x2="4.78219" y2="27.7951" gradientUnits="userSpaceOnUse">
<stop stop-color="#DFCBB4"/>
<stop offset="1" stop-color="#6A5300"/>
</linearGradient>
<linearGradient id="paint11_linear" x1="7.4687" y1="26.4963" x2="8.10802" y2="29.502" gradientUnits="userSpaceOnUse">
<stop stop-color="#DFCBB4"/>
<stop offset="1" stop-color="#6A5300"/>
</linearGradient>
<linearGradient id="paint12_linear" x1="2.83115" y1="16.4264" x2="8.42431" y2="29.9067" gradientUnits="userSpaceOnUse">
<stop stop-color="#DFCBB4"/>
<stop offset="1" stop-color="#6A5300"/>
</linearGradient>
<linearGradient id="paint13_linear" x1="28.596" y1="15.7041" x2="30.4287" y2="19.6375" gradientUnits="userSpaceOnUse">
<stop stop-color="#DFCBB4"/>
<stop offset="1" stop-color="#6A5300"/>
</linearGradient>
<linearGradient id="paint14_linear" x1="25.0578" y1="14.3317" x2="28.2351" y2="17.9271" gradientUnits="userSpaceOnUse">
<stop stop-color="#DFCBB4"/>
<stop offset="1" stop-color="#6A5300"/>
</linearGradient>
<linearGradient id="paint15_linear" x1="23.5841" y1="17.8063" x2="26.7924" y2="21.3327" gradientUnits="userSpaceOnUse">
<stop stop-color="#DFCBB4"/>
<stop offset="1" stop-color="#6A5300"/>
</linearGradient>
<linearGradient id="paint16_linear" x1="21.1393" y1="19.8488" x2="24.3267" y2="23.3767" gradientUnits="userSpaceOnUse">
<stop stop-color="#DFCBB4"/>
<stop offset="1" stop-color="#6A5300"/>
</linearGradient>
<linearGradient id="paint17_linear" x1="18.3293" y1="21.9193" x2="21.1823" y2="25.7004" gradientUnits="userSpaceOnUse">
<stop stop-color="#DFCBB4"/>
<stop offset="1" stop-color="#6A5300"/>
</linearGradient>
<linearGradient id="paint18_linear" x1="27.4991" y1="11.493" x2="30.6572" y2="15.1149" gradientUnits="userSpaceOnUse">
<stop stop-color="#DFCBB4"/>
<stop offset="1" stop-color="#6A5300"/>
</linearGradient>
<linearGradient id="paint19_linear" x1="27.3833" y1="19.371" x2="28.3848" y2="22.8074" gradientUnits="userSpaceOnUse">
<stop stop-color="#DFCBB4"/>
<stop offset="1" stop-color="#6A5300"/>
</linearGradient>
<linearGradient id="paint20_linear" x1="25.222" y1="22.414" x2="25.9314" y2="25.5027" gradientUnits="userSpaceOnUse">
<stop stop-color="#DFCBB4"/>
<stop offset="1" stop-color="#6A5300"/>
</linearGradient>
<linearGradient id="paint21_linear" x1="22.8205" y1="24.8505" x2="23.4307" y2="27.8005" gradientUnits="userSpaceOnUse">
<stop stop-color="#DFCBB4"/>
<stop offset="1" stop-color="#6A5300"/>
</linearGradient>
<linearGradient id="paint22_linear" x1="19.5577" y1="26.5016" x2="20.1977" y2="29.509" gradientUnits="userSpaceOnUse">
<stop stop-color="#DFCBB4"/>
<stop offset="1" stop-color="#6A5300"/>
</linearGradient>
<linearGradient id="paint23_linear" x1="16.6845" y1="16.4313" x2="22.2785" y2="29.9124" gradientUnits="userSpaceOnUse">
<stop stop-color="#DFCBB4"/>
<stop offset="1" stop-color="#6A5300"/>
</linearGradient>
<clipPath id="clip0">
<rect width="31.783" height="31.783" fill="white"/>
</clipPath>
</defs>
</svg>
