<svg width="20" height="20" viewBox="0 0 20 20" fill="none" xmlns="http://www.w3.org/2000/svg">
<path d="M8.17106 11.1697C7.90062 10.87 7.46243 10.8699 7.19199 11.1697C6.92163 11.4695 6.92163 11.9555 7.19199 12.2553L8.11268 13.2761H4.10226C2.6037 13.2761 1.3845 11.9243 1.3845 10.2625C1.3845 8.60082 2.6037 7.24903 4.10226 7.24903H7.22422C7.60657 7.24903 7.91647 6.90541 7.91647 6.48145C7.91647 6.05749 7.60657 5.71387 7.22422 5.71387H4.10226C1.8403 5.71387 0 7.75435 0 10.2625C0 12.7707 1.8403 14.8112 4.10226 14.8112H8.11276L7.19207 15.8321C6.92171 16.1319 6.92171 16.6178 7.19207 16.9176C7.32729 17.0676 7.50443 17.1424 7.68157 17.1424C7.85871 17.1424 8.03584 17.0675 8.17106 16.9176L10.2734 14.5865C10.5438 14.2867 10.5438 13.8007 10.2734 13.501L8.17106 11.1697Z" fill="#8E9091"/>
<path d="M15.8978 5.18823H11.8873L12.808 4.16734C13.0784 3.86756 13.0784 3.38159 12.808 3.0818C12.5376 2.78193 12.0994 2.78202 11.8289 3.0818L9.72657 5.41297C9.45621 5.71275 9.45621 6.19872 9.72657 6.49851L11.8289 8.82967C11.9641 8.9796 12.1413 9.05449 12.3184 9.05449C12.4956 9.05449 12.6727 8.97952 12.8079 8.82967C13.0783 8.52988 13.0783 8.04391 12.8079 7.74413L11.8872 6.72324H15.8977C17.3963 6.72324 18.6155 8.07513 18.6155 9.73679C18.6155 11.3984 17.3963 12.7503 15.8977 12.7503H12.7758C12.3934 12.7503 12.0835 13.094 12.0835 13.5179C12.0835 13.9419 12.3934 14.2855 12.7758 14.2855H15.8977C18.1597 14.2855 20 12.2449 20 9.73679C20 7.22865 18.1598 5.18823 15.8978 5.18823Z" fill="#8E9091"/>
</svg>
