<svg width="24" height="18" viewBox="0 0 24 18" fill="none" xmlns="http://www.w3.org/2000/svg">
<path d="M9.80528 10.4042C9.48075 10.0444 8.95492 10.0443 8.63039 10.4042C8.30596 10.7639 8.30596 11.3471 8.63039 11.7068L9.73522 12.9319H4.92271C3.12444 12.9318 1.66139 11.3096 1.66139 9.31556C1.66139 7.32149 3.12444 5.69934 4.92271 5.69934H8.66907C9.12789 5.69934 9.49976 5.28699 9.49976 4.77824C9.49976 4.26949 9.12789 3.85715 8.66907 3.85715H4.92271C2.20836 3.85715 0 6.30572 0 9.31556C0 12.3254 2.20836 14.774 4.92271 14.774H9.73531L8.63048 15.999C8.30605 16.3588 8.30605 16.9419 8.63048 17.3017C8.79275 17.4816 9.00531 17.5714 9.21788 17.5714C9.43045 17.5714 9.64301 17.4815 9.80528 17.3017L12.3281 14.5043C12.6525 14.1445 12.6525 13.5614 12.3281 13.2017L9.80528 10.4042Z" fill="#FF8000"/>
<path d="M19.0775 3.22613H14.2649L15.3697 2.00106C15.6942 1.64132 15.6942 1.05816 15.3697 0.698419C15.0452 0.338574 14.5194 0.338676 14.1949 0.698419L11.672 3.49581C11.3476 3.85556 11.3476 4.43872 11.672 4.79846L14.1949 7.59585C14.3571 7.77578 14.5697 7.86563 14.7823 7.86563C14.9948 7.86563 15.2074 7.77567 15.3697 7.59585C15.6941 7.23611 15.6941 6.65295 15.3697 6.29321L14.2648 5.06814H19.0774C20.8757 5.06814 22.3387 6.69041 22.3387 8.68439C22.3387 10.6784 20.8757 12.3007 19.0774 12.3007H15.3311C14.8723 12.3007 14.5004 12.713 14.5004 13.2218C14.5004 13.7305 14.8723 14.1429 15.3311 14.1429H19.0774C21.7918 14.1429 24.0001 11.6942 24.0001 8.68439C24.0001 5.67463 21.7919 3.22613 19.0775 3.22613Z" fill="#FF8000"/>
</svg>
