<svg width="20" height="16" viewBox="0 0 20 16" fill="none" xmlns="http://www.w3.org/2000/svg">
<path d="M8.17106 9.17022C7.90062 8.87044 7.46243 8.87035 7.19199 9.17022C6.92163 9.47 6.92163 9.95597 7.19199 10.2558L8.11268 11.2766H4.10226C2.6037 11.2765 1.3845 9.92475 1.3845 8.26303C1.3845 6.60131 2.6037 5.24951 4.10226 5.24951H7.22422C7.60657 5.24951 7.91647 4.90589 7.91647 4.48193C7.91647 4.05798 7.60657 3.71436 7.22422 3.71436H4.10226C1.8403 3.71436 0 5.75484 0 8.26303C0 10.7712 1.8403 12.8117 4.10226 12.8117H8.11276L7.19207 13.8326C6.92171 14.1324 6.92171 14.6183 7.19207 14.9181C7.32729 15.068 7.50443 15.1429 7.68157 15.1429C7.85871 15.1429 8.03584 15.068 8.17106 14.9181L10.2734 12.587C10.5438 12.2872 10.5438 11.8012 10.2734 11.5014L8.17106 9.17022Z" fill="#FF8000"/>
<path d="M15.8978 3.18848H11.8873L12.808 2.16759C13.0784 1.8678 13.0784 1.38183 12.808 1.08205C12.5376 0.782178 12.0994 0.782263 11.8289 1.08205L9.72657 3.41321C9.45621 3.713 9.45621 4.19896 9.72657 4.49875L11.8289 6.82991C11.9642 6.97985 12.1413 7.05473 12.3184 7.05473C12.4956 7.05473 12.6727 6.97976 12.8079 6.82991C13.0783 6.53013 13.0783 6.04416 12.8079 5.74437L11.8872 4.72348H15.8977C17.3963 4.72348 18.6155 6.07537 18.6155 7.73703C18.6155 9.39869 17.3963 10.7506 15.8977 10.7506H12.7758C12.3934 10.7506 12.0835 11.0942 12.0835 11.5182C12.0835 11.9421 12.3934 12.2858 12.7758 12.2858H15.8977C18.1597 12.2858 20 10.2452 20 7.73703C20 5.2289 18.1598 3.18848 15.8978 3.18848Z" fill="#FF8000"/>
</svg>
