<svg width="18" height="18" viewBox="0 0 18 18" fill="none" xmlns="http://www.w3.org/2000/svg">
<path fill-rule="evenodd" clip-rule="evenodd" d="M8.16666 0.666626C12.3088 0.666626 15.6667 4.02449 15.6667 8.16663C15.6667 9.93728 15.0531 11.5646 14.0269 12.8476L17.0892 15.9107C17.4147 16.2361 17.4147 16.7638 17.0892 17.0892C16.7888 17.3896 16.3161 17.4127 15.9892 17.1585L15.9107 17.0892L12.8476 14.0269C11.5646 15.053 9.93731 15.6666 8.16666 15.6666C4.02452 15.6666 0.666656 12.3088 0.666656 8.16663C0.666656 4.02449 4.02452 0.666626 8.16666 0.666626ZM8.16666 2.33329C4.945 2.33329 2.33332 4.94496 2.33332 8.16663C2.33332 11.3883 4.945 14 8.16666 14C11.3883 14 14 11.3883 14 8.16663C14 4.94496 11.3883 2.33329 8.16666 2.33329Z" fill="#FFF2E6"/>
</svg>
