<svg width="14" height="14" viewBox="0 0 14 14" fill="none" xmlns="http://www.w3.org/2000/svg">
<path fill-rule="evenodd" clip-rule="evenodd" d="M6.33334 0.333374C9.64705 0.333374 12.3333 3.01967 12.3333 6.33337C12.3333 7.74989 11.8425 9.05176 11.0215 10.0782L13.4714 12.5286C13.7318 12.789 13.7318 13.2111 13.4714 13.4714C13.2311 13.7118 12.8529 13.7303 12.5914 13.5269L12.5286 13.4714L10.0781 11.0216C9.05173 11.8425 7.74986 12.3334 6.33334 12.3334C3.01963 12.3334 0.333344 9.64708 0.333344 6.33337C0.333344 3.01967 3.01963 0.333374 6.33334 0.333374ZM6.33334 1.66671C3.75602 1.66671 1.66668 3.75605 1.66668 6.33338C1.66668 8.91071 3.75602 11 6.33334 11C8.91067 11 11 8.91071 11 6.33338C11 3.75605 8.91067 1.66671 6.33334 1.66671Z" fill="#8E9091"/>
</svg>
