<svg width="20" height="20" viewBox="0 0 20 20" fill="none" xmlns="http://www.w3.org/2000/svg">
<path d="M15.6533 2.06057C15.614 2.02663 15.5713 1.99686 15.5259 1.97174C13.4052 0.518056 10.7948 -0.0361323 8.26639 0.430501C5.73795 0.897134 3.4974 2.34657 2.03526 4.46149C0.573117 6.57641 0.00850528 9.1845 0.465034 11.7148C0.921564 14.2451 2.36204 16.4914 4.4711 17.962C6.58016 19.4325 9.18597 20.0076 11.7181 19.5611C14.2501 19.1147 16.5022 17.6832 17.9812 15.5801C19.4602 13.4769 20.0456 10.8734 19.6093 8.33956C19.173 5.80571 17.7505 3.54795 15.6533 2.06057ZM10.0003 12.2501C9.55527 12.2501 9.12025 12.1182 8.75024 11.8709C8.38023 11.6237 8.09185 11.2723 7.92155 10.8612C7.75125 10.45 7.70669 9.99764 7.79351 9.56118C7.88033 9.12473 8.09462 8.72381 8.40929 8.40915C8.72396 8.09448 9.12487 7.88019 9.56132 7.79337C9.99778 7.70655 10.4502 7.75111 10.8613 7.92141C11.2724 8.0917 11.6239 8.38009 11.8711 8.7501C12.1183 9.12011 12.2503 9.55513 12.2503 10.0001C12.2496 10.5967 12.0123 11.1686 11.5905 11.5904C11.1687 12.0122 10.5968 12.2495 10.0003 12.2501ZM18.2503 10.0001C18.2503 10.2319 18.2402 10.4612 18.2213 10.6882L13.7477 9.89934C13.7236 8.97517 13.3575 8.09279 12.7204 7.42288L15.3246 3.70373C16.2413 4.4769 16.9781 5.44096 17.4835 6.52852C17.9888 7.61609 18.2505 8.8009 18.2503 10.0001Z" fill="white"/>
</svg>
