<svg width="20" height="22" viewBox="0 0 20 22" fill="none" xmlns="http://www.w3.org/2000/svg">
<path d="M18.9481 9.69103L3.11231 0.823054C2.84586 0.673856 2.54022 0.609535 2.23623 0.638688C1.93225 0.667841 1.64441 0.789078 1.41117 0.986198C1.17793 1.18332 1.01041 1.44693 0.931001 1.7418C0.851589 2.03667 0.864067 2.34876 0.966767 2.63635L3.68588 10.2499H10.7502C10.9491 10.2499 11.1399 10.3289 11.2805 10.4695C11.4212 10.6102 11.5002 10.801 11.5002 10.9999C11.5002 11.1988 11.4212 11.3896 11.2805 11.5302C11.1399 11.6709 10.9491 11.7499 10.7502 11.7499H3.68588L0.966767 19.3634C0.886382 19.5897 0.861374 19.832 0.893838 20.07C0.926301 20.3079 1.01529 20.5347 1.15336 20.7312C1.29143 20.9277 1.47456 21.0883 1.68742 21.1995C1.90029 21.3107 2.13669 21.3693 2.37686 21.3704C2.63459 21.3699 2.88787 21.3032 3.1124 21.1767L18.948 12.3087C19.1806 12.1784 19.3744 11.9885 19.5092 11.7584C19.644 11.5284 19.7151 11.2665 19.7151 10.9999C19.7151 10.7333 19.6441 10.4714 19.5092 10.2414C19.3744 10.0113 19.1807 9.82135 18.9481 9.69103Z" fill="#FF8000"/>
</svg>
