<svg width="20" height="16" viewBox="0 0 20 16" fill="none" xmlns="http://www.w3.org/2000/svg">
<path fill-rule="evenodd" clip-rule="evenodd" d="M16.2097 0.387101L16.2929 0.292893C16.6534 -0.0675907 17.2206 -0.0953203 17.6129 0.209705L17.7071 0.292893L19.7071 2.29289L19.7485 2.33685L19.797 2.39587L19.8753 2.51594L19.9284 2.62767L19.9596 2.71808L19.9847 2.82535L19.9983 2.94074L19.9984 3.0568L19.9854 3.17067L19.9732 3.23106L19.9401 3.34167L19.9063 3.42322L19.854 3.52071L19.7872 3.61675L19.7313 3.68209L17.7071 5.70711C17.3166 6.09763 16.6834 6.09763 16.2929 5.70711C15.9324 5.34662 15.9047 4.77939 16.2097 4.3871L16.2929 4.29289L16.584 4H14C10.7519 4 9.11447 4.99471 7.00178 7.99842C9.11411 11.0051 10.7516 12 14 12H16.585L16.2929 11.7071C15.9324 11.3466 15.9047 10.7794 16.2097 10.3871L16.2929 10.2929C16.6534 9.93241 17.2206 9.90468 17.6129 10.2097L17.7071 10.2929L19.7071 12.2929L19.7485 12.3369L19.8037 12.4047L19.8753 12.5159L19.9248 12.6187L19.9642 12.734L19.9931 12.8819L20 13L19.9976 13.0696L19.9857 13.1692L19.9503 13.3121L19.9082 13.4192L19.854 13.5207L19.7803 13.6254L19.7071 13.7071L17.7071 15.7071C17.3166 16.0976 16.6834 16.0976 16.2929 15.7071C15.9324 15.3466 15.9047 14.7794 16.2097 14.3871L16.2929 14.2929L16.584 14H14C10.2046 14 8.11471 12.8298 5.82647 9.78394L5.31763 10.5811C5.17998 10.7943 5.05472 10.985 4.9353 11.1629L4.81759 11.3367L4.58805 11.667L4.35664 11.9878C3.40438 13.2846 2.32404 14 1 14C0.447715 14 0 13.5523 0 13C0 12.4872 0.38604 12.0645 0.883379 12.0067L1.12472 11.9944C1.66311 11.9457 2.17694 11.577 2.74458 10.804C2.98574 10.4756 3.20753 10.1542 3.47754 9.74207L3.64588 9.4831L4.591 8L3.64588 6.5169C3.29546 5.97404 3.03397 5.59008 2.74458 5.19598C2.17694 4.42296 1.66311 4.05432 1.12472 4.0056L1 4C0.447715 4 0 3.55228 0 3C0 2.44772 0.447715 2 1 2C2.32404 2 3.40438 2.71542 4.35664 4.01223L4.58805 4.33304L4.81759 4.66326L5.18387 5.21286C5.31399 5.41214 5.45432 5.63066 5.6114 5.87783L5.82647 6.21606C8.04537 3.26254 10.0777 2.07265 13.6596 2.00324L14 2H16.585L16.2929 1.70711C15.9324 1.34662 15.9047 0.779392 16.2097 0.387101L16.2929 0.292893L16.2097 0.387101Z" fill="#FF8000"/>
</svg>
