<svg width="20" height="20" viewBox="0 0 20 20" fill="none" xmlns="http://www.w3.org/2000/svg">
<path fill-rule="evenodd" clip-rule="evenodd" d="M14.9678 4.29033L15.0343 4.21967C15.3227 3.94931 15.7765 3.92851 16.0903 4.15728L16.1657 4.21967L17.7657 5.71967L17.7988 5.75264L17.8376 5.7969L17.9003 5.88695L17.9427 5.97075L17.9677 6.03856L17.9878 6.11901L17.9986 6.20555L17.9987 6.2926L17.9883 6.378L17.9785 6.42329L17.9521 6.50625L17.9251 6.56742L17.8832 6.64053L17.8298 6.71256L17.785 6.76157L16.1657 8.28033C15.8533 8.57322 15.3467 8.57322 15.0343 8.28033C14.7459 8.00997 14.7237 7.58454 14.9678 7.29033L15.0343 7.21967L15.2672 7H13.2C10.6015 7 9.29157 7.74603 7.60142 9.99881C9.29128 12.2538 10.6013 13 13.2 13H15.268L15.0343 12.7803C14.7459 12.51 14.7237 12.0845 14.9678 11.7903L15.0343 11.7197C15.3227 11.4493 15.7765 11.4285 16.0903 11.6573L16.1657 11.7197L17.7657 13.2197L17.7988 13.2526L17.8429 13.3035L17.9003 13.387L17.9398 13.4641L17.9713 13.5505L17.9945 13.6614L18 13.75L17.9981 13.8022L17.9885 13.8769L17.9602 13.9841L17.9266 14.0644L17.8832 14.1405L17.8242 14.2191L17.7657 14.2803L16.1657 15.7803C15.8533 16.0732 15.3467 16.0732 15.0343 15.7803C14.7459 15.51 14.7237 15.0845 14.9678 14.7903L15.0343 14.7197L15.2672 14.5H13.2C10.1637 14.5 8.49177 13.6223 6.66118 11.338L6.25411 11.9358C6.14398 12.0957 6.04377 12.2388 5.94824 12.3722L5.85408 12.5026L5.67044 12.7502L5.48531 12.9908C4.7235 13.9634 3.85923 14.5 2.8 14.5C2.35817 14.5 2 14.1642 2 13.75C2 13.3654 2.30883 13.0484 2.7067 13.005L2.89977 12.9958C3.33049 12.9593 3.74155 12.6828 4.19566 12.103C4.38859 11.8567 4.56602 11.6157 4.78203 11.3066L4.91671 11.1123L5.6728 10L4.91671 8.88768C4.63637 8.48053 4.42718 8.19256 4.19566 7.89698C3.74155 7.31722 3.33049 7.04074 2.89977 7.0042L2.8 7C2.35817 7 2 6.66421 2 6.25C2 5.83579 2.35817 5.5 2.8 5.5C3.85923 5.5 4.7235 6.03656 5.48531 7.00917L5.67044 7.24978L5.85408 7.49745L6.14709 7.90964C6.25119 8.05911 6.36345 8.223 6.48912 8.40837L6.66118 8.66204C8.4363 6.4469 10.0622 5.55448 12.9277 5.50243L13.2 5.5H15.268L15.0343 5.28033C14.7459 5.00997 14.7237 4.58454 14.9678 4.29033L15.0343 4.21967L14.9678 4.29033Z" fill="#8E9091"/>
</svg>
