<svg width="24" height="24" viewBox="0 0 24 24" fill="none" xmlns="http://www.w3.org/2000/svg">
<path d="M9.80528 13.4045C9.48075 13.0447 8.95492 13.0446 8.63039 13.4045C8.30596 13.7642 8.30596 14.3474 8.63039 14.7071L9.73522 15.9322H4.92271C3.12444 15.932 1.66139 14.3099 1.66139 12.3158C1.66139 10.3218 3.12444 8.69961 4.92271 8.69961H8.66907C9.12789 8.69961 9.49976 8.28727 9.49976 7.77852C9.49976 7.26977 9.12789 6.85742 8.66907 6.85742H4.92271C2.20836 6.85742 0 9.306 0 12.3158C0 15.3257 2.20836 17.7742 4.92271 17.7742H9.73531L8.63048 18.9993C8.30605 19.359 8.30605 19.9422 8.63048 20.3019C8.79275 20.4818 9.00531 20.5717 9.21788 20.5717C9.43045 20.5717 9.64301 20.4817 9.80528 20.3019L12.3281 17.5046C12.6525 17.1448 12.6525 16.5617 12.3281 16.2019L9.80528 13.4045Z" fill="#FF8000"/>
<path d="M19.0773 6.22627H14.2647L15.3695 5.0012C15.6939 4.64146 15.6939 4.0583 15.3695 3.69856C15.045 3.33871 14.5191 3.33881 14.1946 3.69856L11.6718 6.49595C11.3474 6.85569 11.3474 7.43885 11.6718 7.7986L14.1946 10.596C14.3569 10.7759 14.5694 10.8658 14.782 10.8658C14.9946 10.8658 15.2071 10.7758 15.3694 10.596C15.6938 10.2362 15.6938 9.65309 15.3694 9.29334L14.2646 8.06827H19.0772C20.8755 8.06827 22.3385 9.69055 22.3385 11.6845C22.3385 13.6785 20.8755 15.3008 19.0772 15.3008H15.3308C14.872 15.3008 14.5001 15.7131 14.5001 16.2219C14.5001 16.7306 14.872 17.143 15.3308 17.143H19.0772C21.7915 17.143 23.9999 14.6943 23.9999 11.6845C23.9999 8.67477 21.7916 6.22627 19.0773 6.22627Z" fill="#FF8000"/>
<circle cx="19.5" cy="17.5" r="4.5" fill="#FFF2E6"/>
<path d="M20.3467 20H19.5V16.7363L18.4893 17.0498V16.3613L20.2559 15.7285H20.3467V20Z" fill="#FF8000"/>
</svg>
