<svg width="18" height="18" viewBox="0 0 18 18" fill="none" xmlns="http://www.w3.org/2000/svg">
<path d="M8.23117 14.1354C8.70479 13.8535 9.2949 13.854 9.76803 14.1368L12.2737 15.6344C12.8732 15.993 13.6068 15.4629 13.449 14.7925L12.791 12.0024C12.6622 11.4562 12.8491 10.8838 13.2754 10.5187L15.4763 8.63412C16.0048 8.18199 15.7208 7.32449 15.0267 7.26993L12.1147 7.02565C11.562 6.97929 11.08 6.63177 10.8614 6.12207L9.72573 3.47357C9.45752 2.84214 8.54248 2.84214 8.27427 3.47357L7.1389 6.11532C6.92008 6.62445 6.43839 6.97146 5.88617 7.01778L2.97333 7.26213C2.27915 7.3167 1.99517 8.17419 2.52369 8.62633L4.72464 10.5109C5.15091 10.876 5.33778 11.4484 5.20897 11.9946L4.55099 14.7847C4.39322 15.4551 5.12684 15.9852 5.72635 15.6266L8.23117 14.1354Z" fill="url(#paint0_linear)"/>
<defs>
<linearGradient id="paint0_linear" x1="2.25" y1="3" x2="17.6994" y2="6.13106" gradientUnits="userSpaceOnUse">
<stop stop-color="#F1A31D"/>
<stop offset="1" stop-color="#FF005B"/>
</linearGradient>
</defs>
</svg>
