<svg width="76" height="76" viewBox="0 0 76 76" fill="none" xmlns="http://www.w3.org/2000/svg">
<g clip-path="url(#clip0)">
<path d="M76 38C76 58.9865 58.9865 76 38 76C17.0135 76 0 58.9865 0 38C0 17.0135 17.0135 0 38 0C58.9865 0 76 17.0135 76 38Z" fill="url(#paint0_linear)"/>
<path d="M38 0C38.6591 0 39.3143 0.0170703 39.9655 0.0497266C19.8924 1.0732 3.93107 17.6727 3.93107 38C3.93107 58.3273 19.8924 74.9268 39.9656 75.9503C39.3143 75.9829 38.6591 76 38 76C17.0135 76 0 58.9865 0 38C0 17.0135 17.0135 0 38 0Z" fill="#00D1FF"/>
<path d="M34.0683 51.1741H34.0525C32.9649 51.1702 31.9297 50.6971 31.2131 49.8782L23.6641 41.2509C22.9723 40.4607 22.6303 39.4478 22.6998 38.3995C22.7692 37.3526 23.2435 36.3947 24.0336 35.7042C25.6649 34.2759 28.1533 34.4423 29.5803 36.0737L34.08 41.2561L50.3559 22.9335C51.7947 21.3113 54.2843 21.1671 55.9052 22.6073C56.6902 23.3043 57.1565 24.2662 57.2182 25.3145C57.2798 26.3614 56.9285 27.3717 56.2315 28.1566L36.9039 49.9003C36.1844 50.7102 35.1505 51.1741 34.0683 51.1741Z" fill="white"/>
<path d="M30.626 10.1072C30.0416 10.1072 29.5083 9.71411 29.3576 9.12185C29.1782 8.41944 29.6014 7.70531 30.3024 7.52718C32.83 6.88252 35.4194 6.55358 37.998 6.55225H37.9994C38.7227 6.55225 39.3098 7.13798 39.3098 7.86132C39.3111 8.58465 38.7254 9.17172 38.0007 9.17291C35.6395 9.17425 33.2678 9.47557 30.9511 10.0665C30.8422 10.094 30.7335 10.1072 30.626 10.1072Z" fill="white"/>
<path d="M11.1966 25.5136C10.9949 25.5136 10.7891 25.4664 10.5978 25.3681C9.95445 25.0367 9.70152 24.2465 10.033 23.6031C13.1202 17.6083 18.2226 12.6656 24.3996 9.68453C25.0508 9.37133 25.8358 9.64386 26.1503 10.2964C26.4635 10.9476 26.191 11.7312 25.5385 12.0457C19.8713 14.7804 15.1907 19.3103 12.363 24.8032C12.1295 25.2541 11.6722 25.5136 11.1966 25.5136Z" fill="white"/>
<path d="M7.86216 39.3103C7.13749 39.3103 6.55176 38.7232 6.55176 37.9999C6.55309 35.129 6.94096 32.2815 7.70348 29.5376C7.89734 28.8406 8.62068 28.4343 9.31789 28.627C10.015 28.8208 10.4226 29.5428 10.2286 30.24C9.52882 32.7559 9.17376 35.3662 9.17242 37.9999C9.17242 38.7246 8.58535 39.3103 7.86216 39.3103Z" fill="white"/>
<path d="M37.9999 69.4483C37.2765 69.4483 36.6895 68.8625 36.6895 68.1379C36.6895 67.4145 37.2752 66.8275 37.9999 66.8275C40.5223 66.8261 43.0473 66.4841 45.5043 65.812C46.1961 65.6193 46.922 66.0321 47.1133 66.7305C47.3047 67.4276 46.8932 68.1483 46.1948 68.3396C43.5137 69.0735 40.7568 69.4469 37.9999 69.4483Z" fill="white"/>
<path d="M51.9274 65.9896C51.4556 65.9896 50.9996 65.7341 50.7651 65.2872C50.4296 64.6464 50.676 63.8549 51.318 63.5182C56.9526 60.5634 61.5099 55.8173 64.149 50.1528C64.4543 49.4962 65.2352 49.2106 65.8904 49.5185C66.5456 49.8238 66.8299 50.6021 66.5247 51.2586C63.6446 57.4421 58.6758 62.6193 52.5342 65.8401C52.34 65.941 52.1318 65.9896 51.9274 65.9896Z" fill="white"/>
<path d="M67.3432 46.2211C67.2436 46.2211 67.144 46.2105 67.0431 46.1869C66.3382 46.0205 65.9004 45.3156 66.0656 44.6105C66.5702 42.4668 66.8256 40.2419 66.827 37.9985C66.8283 37.2752 67.4154 36.6895 68.1374 36.6895H68.1387C68.8634 36.6908 69.4491 37.2779 69.4478 38.001C69.4464 40.4448 69.1674 42.8702 68.6183 45.2105C68.4754 45.8136 67.9382 46.2211 67.3432 46.2211Z" fill="white"/>
<path d="M38.0001 0C37.3411 0 36.6859 0.0170703 36.0347 0.0497266C56.1077 1.0732 72.0691 17.6727 72.0691 38C72.0691 58.3273 56.1077 74.9268 36.0347 75.9503C36.6859 75.9829 37.3411 76 38.0001 76C58.9867 76 76.0001 58.9865 76.0001 38C76.0001 17.0135 58.9867 0 38.0001 0Z" fill="#00AB6D"/>
</g>
<defs>
<linearGradient id="paint0_linear" x1="-2.1375" y1="38" x2="76" y2="38" gradientUnits="userSpaceOnUse">
<stop stop-color="#00AB6D"/>
<stop offset="1" stop-color="#00D1FF"/>
</linearGradient>
<clipPath id="clip0">
<rect width="76" height="76" fill="white"/>
</clipPath>
</defs>
</svg>
