<svg width="44" height="44" viewBox="0 0 44 44" fill="none" xmlns="http://www.w3.org/2000/svg">
<rect x="44" y="44" width="44" height="44" rx="15" transform="rotate(180 44 44)" fill="url(#paint0_linear)"/>
<g clip-path="url(#clip0)">
<path d="M32.6066 11.3941C26.7488 5.53629 17.2513 5.53629 11.3934 11.3941C5.53552 17.252 5.53552 26.7495 11.3934 32.6073C17.2513 38.4652 26.7488 38.4652 32.6066 32.6073C38.4645 26.7495 38.4645 17.252 32.6066 11.3941ZM13.8477 32.4776C12.9651 31.8205 12.18 31.0356 11.523 30.153C13.5051 28.678 15.4877 27.2037 17.47 25.7289C17.7423 26.0949 17.9058 26.2584 18.2716 26.5304C16.7969 28.5129 15.3223 30.4951 13.8477 32.4776ZM25.0472 25.0479C23.3643 26.7308 20.6357 26.7307 18.9529 25.0479C17.27 23.365 17.27 20.6364 18.9529 18.9536C20.6358 17.2707 23.3643 17.2707 25.0472 18.9536C26.73 20.6363 26.7301 23.3649 25.0472 25.0479ZM26.5299 18.2724C26.2576 17.9065 26.0941 17.7429 25.7284 17.4711C27.203 15.4887 28.6778 13.5064 30.1523 11.5238C31.0349 12.1808 31.8199 12.9657 32.4769 13.8485C30.4949 15.3235 28.5122 16.7977 26.5299 18.2724Z" fill="white"/>
</g>
<defs>
<linearGradient id="paint0_linear" x1="44" y1="66" x2="88" y2="66" gradientUnits="userSpaceOnUse">
<stop stop-color="#0011A7"/>
<stop offset="1" stop-color="#0047FF"/>
</linearGradient>
<clipPath id="clip0">
<rect width="30" height="30" fill="white" transform="translate(7 7)"/>
</clipPath>
</defs>
</svg>
