<svg width="44" height="44" viewBox="0 0 44 44" fill="none" xmlns="http://www.w3.org/2000/svg">
<rect x="44" y="44" width="44" height="44" rx="15" transform="rotate(180 44 44)" fill="url(#paint0_linear)"/>
<path d="M25.1037 13.7098C26.4908 14.5796 27.4635 16.0513 27.6406 17.7596C28.2063 18.024 28.8341 18.176 29.4998 18.176C31.93 18.176 33.8997 16.2063 33.8997 13.7765C33.8997 11.3463 31.93 9.37663 29.4998 9.37663C27.0928 9.37738 25.1404 11.3119 25.1037 13.7098ZM22.2213 22.7185C24.6514 22.7185 26.6211 20.7484 26.6211 18.3186C26.6211 15.8888 24.6511 13.9191 22.2213 13.9191C19.7915 13.9191 17.8207 15.8892 17.8207 18.319C17.8207 20.7488 19.7915 22.7185 22.2213 22.7185ZM24.0876 23.0183H20.3542C17.2478 23.0183 14.7207 25.5459 14.7207 28.6522V33.2179L14.7323 33.2894L15.0468 33.3879C18.0112 34.3141 20.5867 34.623 22.7065 34.623C26.8469 34.623 29.2467 33.4425 29.3946 33.3673L29.6885 33.2186H29.72V28.6522C29.7211 25.5459 27.1939 23.0183 24.0876 23.0183ZM31.3669 18.4762H27.6623C27.6222 19.9584 26.9895 21.2931 25.9888 22.2531C28.7499 23.0741 30.7701 25.6346 30.7701 28.6589V30.0659C34.4279 29.9319 36.5358 28.8952 36.6747 28.8255L36.9685 28.6765H37V24.1093C37 21.0034 34.4729 18.4762 31.3669 18.4762ZM14.5009 18.1767C15.3617 18.1767 16.1625 17.9255 16.8409 17.4976C17.0565 16.091 17.8106 14.8618 18.8877 14.0247C18.8922 13.9423 18.9 13.8607 18.9 13.7776C18.9 11.3474 16.93 9.37776 14.5009 9.37776C12.0704 9.37776 10.1011 11.3474 10.1011 13.7776C10.1011 16.2067 12.0704 18.1767 14.5009 18.1767ZM18.4523 22.2531C17.4564 21.298 16.8259 19.9704 16.7799 18.4972C16.6425 18.4871 16.5066 18.4762 16.3665 18.4762H12.6335C9.52714 18.4762 7 21.0034 7 24.1093V28.6758L7.01161 28.7462L7.3261 28.8454C9.70423 29.5878 11.8267 29.93 13.6702 30.0378V28.6589C13.6709 25.6346 15.6904 23.0749 18.4523 22.2531Z" fill="white"/>
<defs>
<linearGradient id="paint0_linear" x1="66" y1="44" x2="66" y2="88" gradientUnits="userSpaceOnUse">
<stop stop-color="#212528"/>
<stop offset="1" stop-color="#090A0C"/>
</linearGradient>
</defs>
</svg>
