<svg width="44" height="44" viewBox="0 0 44 44" fill="none" xmlns="http://www.w3.org/2000/svg">
<rect x="44" y="44" width="44" height="44" rx="15" transform="rotate(180 44 44)" fill="url(#paint0_linear)"/>
<path d="M35.2422 23.9196V22.8789C35.2422 19.6528 34.0792 16.6117 31.9719 14.2084L32.6192 13.5611C32.9625 13.2178 32.9625 12.6616 32.6192 12.3183C29.7946 9.49367 25.9851 7.9375 22 7.9375C18.0149 7.9375 14.2054 9.49367 11.3808 12.3183C11.0375 12.6616 11.0375 13.2178 11.3808 13.5611L12.0283 14.2086C9.92076 16.6117 8.75781 19.6528 8.75781 22.8789V23.9196C7.737 24.2838 7 25.2501 7 26.3945V31.668C7 33.1218 8.18286 34.3047 9.63672 34.3047H13.1523C13.638 34.3047 14.0312 33.9115 14.0312 33.4258V24.6367C14.0312 24.151 13.638 23.7578 13.1523 23.7578H10.5156V22.8789C10.5156 20.0742 11.53 17.4308 13.3673 15.3453C14.2441 15.8014 15.389 15.7595 16.2141 15.1379C19.5633 12.6161 24.4367 12.6161 27.7859 15.1379C28.2544 15.4906 28.8692 15.6632 29.4238 15.6632C29.8436 15.6632 30.2455 15.53 30.6231 15.3345C32.4665 17.4219 33.4844 20.0694 33.4844 22.8789V23.7578H30.8477C30.362 23.7578 29.9688 24.151 29.9688 24.6367V33.4258C29.9688 33.9115 30.362 34.3047 30.8477 34.3047H34.3633C35.8171 34.3047 37 33.1218 37 31.668V26.3945C37 25.2501 36.263 24.2838 35.2422 23.9196Z" fill="white"/>
<path d="M27.2734 25.5156C26.7878 25.5156 26.3945 25.9088 26.3945 26.3945V31.668C26.3945 32.1537 26.7878 32.5469 27.2734 32.5469C27.7591 32.5469 28.1523 32.1537 28.1523 31.668V26.3945C28.1523 25.9088 27.7591 25.5156 27.2734 25.5156Z" fill="white"/>
<path d="M24.6367 35.1836V22.8789C24.6367 22.3932 24.2435 22 23.7578 22C23.2721 22 22.8789 22.3932 22.8789 22.8789V35.1836C22.8789 35.6693 23.2721 36.0625 23.7578 36.0625C24.2435 36.0625 24.6367 35.6693 24.6367 35.1836Z" fill="white"/>
<path d="M21.1211 35.1836V22.8789C21.1211 22.3932 20.7279 22 20.2422 22C19.7565 22 19.3633 22.3932 19.3633 22.8789V35.1836C19.3633 35.6693 19.7565 36.0625 20.2422 36.0625C20.7279 36.0625 21.1211 35.6693 21.1211 35.1836Z" fill="white"/>
<path d="M17.6055 31.668V26.3945C17.6055 25.9088 17.2122 25.5156 16.7266 25.5156C16.2409 25.5156 15.8477 25.9088 15.8477 26.3945V31.668C15.8477 32.1537 16.2409 32.5469 16.7266 32.5469C17.2122 32.5469 17.6055 32.1537 17.6055 31.668Z" fill="white"/>
<defs>
<linearGradient id="paint0_linear" x1="66" y1="44" x2="66" y2="88" gradientUnits="userSpaceOnUse">
<stop stop-color="#212528"/>
<stop offset="1" stop-color="#090A0C"/>
</linearGradient>
</defs>
</svg>
