<svg width="44" height="44" viewBox="0 0 44 44" fill="none" xmlns="http://www.w3.org/2000/svg">
<rect x="44" y="44" width="44" height="44" rx="15" transform="rotate(-180 44 44)" fill="url(#paint0_linear)"/>
<g clip-path="url(#clip0)">
<path d="M25.7183 21.195C25.5162 21.195 25.3651 21.3145 25.3651 21.4214C25.3651 21.528 25.5162 21.6478 25.7183 21.6478C25.9207 21.6478 26.0718 21.528 26.0718 21.4214C26.0718 21.3145 25.9204 21.195 25.7183 21.195Z" fill="white"/>
<path d="M26.0717 18.4839L23.6998 19.0688V19.4834L26.0717 18.8983V18.4839Z" fill="white"/>
<path d="M22.5435 23.0023C22.7455 23.0023 22.8966 22.8828 22.8966 22.7759C22.8966 22.6689 22.7455 22.5497 22.5435 22.5497C22.3411 22.5497 22.19 22.6689 22.19 22.7759C22.19 22.8828 22.3411 23.0023 22.5435 23.0023Z" fill="white"/>
<path d="M23.7293 7.06248C23.4797 7.03556 23.2279 7.01621 22.973 7.00706C22.8789 7.00366 22.7842 7.00131 22.6893 7.00026C22.6344 6.99974 22.5795 7.00026 22.5249 7.00026V14.466C22.9194 14.3643 23.3228 14.3005 23.7296 14.2757L23.7293 7.06248Z" fill="white"/>
<path d="M18.5091 20.6876C18.5091 23.7923 21.0262 26.3094 24.1309 26.3094C27.2357 26.3094 29.7528 23.7923 29.7528 20.6876C29.7528 17.5828 27.2357 15.0657 24.1309 15.0657C21.0277 15.0694 18.5128 17.5844 18.5091 20.6876ZM24.1309 15.6011C26.94 15.6011 29.2174 17.8785 29.2174 20.6876C29.2174 23.4966 26.94 25.774 24.1309 25.774C21.3218 25.774 19.0445 23.4966 19.0445 20.6876C19.0476 17.8798 21.3232 15.6043 24.1309 15.6011Z" fill="white"/>
<path d="M24.1309 24.9708C26.4966 24.9708 28.4142 23.0532 28.4142 20.6875C28.4142 18.3218 26.4966 16.4042 24.1309 16.4042C21.7652 16.4042 19.8476 18.3218 19.8476 20.6875C19.8502 23.0519 21.7665 24.9682 24.1309 24.9708ZM22.5435 21.7466C22.663 21.7463 22.7819 21.7631 22.8967 21.796V18.7542C22.8967 18.5697 23.0227 18.4086 23.202 18.3645L26.3771 17.5815C26.4971 17.5519 26.6237 17.5791 26.7209 17.6552C26.8182 17.7313 26.8749 17.8479 26.8749 17.9713V21.4214C26.8749 21.436 26.8741 21.4507 26.8725 21.4653C26.8464 22.0125 26.3395 22.4509 25.7183 22.4509C25.0807 22.4509 24.562 21.9892 24.562 21.4214C24.562 20.8535 25.0807 20.3919 25.7183 20.3919C25.8381 20.3919 25.9567 20.4086 26.0718 20.4415V19.7255L23.6998 20.3106V22.7761C23.6998 22.7908 23.699 22.8054 23.6974 22.8198C23.6713 23.3672 23.1644 23.8056 22.5435 23.8056C21.9059 23.8056 21.3869 23.3437 21.3869 22.7761C21.3869 22.2083 21.9059 21.7466 22.5435 21.7466Z" fill="white"/>
<path d="M9.46773 25.7285H12.824C13.0457 25.7285 13.2256 25.9083 13.2256 26.13V29.8669C13.2256 30.4421 13.4582 30.9929 13.8708 31.394C14.2833 31.7947 14.8407 32.0117 15.4156 31.9953C15.5954 31.9895 17.3298 31.9814 18.7535 31.9751H18.7622C19.6957 31.9738 20.5098 32.6088 20.736 33.5144C20.7441 33.5463 20.7483 33.5793 20.7483 33.6122V37.0001H30.0811C30.0022 35.4438 29.7632 29.9645 30.1049 26.2939C30.2275 24.9789 31.4189 22.0248 31.4693 21.8998C31.4743 21.8878 31.4798 21.876 31.4858 21.8645C33.9427 17.1462 32.3728 11.3319 27.8746 8.49146C26.8517 7.85095 25.7183 7.40704 24.5325 7.18221V14.2757C27.7973 14.4801 30.3873 17.1046 30.548 20.372C30.7091 23.6391 28.3894 26.5057 25.1605 27.0299C21.9315 27.5541 18.8244 25.5685 17.9434 22.4182C17.0623 19.2677 18.6892 15.9585 21.7216 14.7318V7.03241C16.2297 7.4541 11.9001 11.8791 11.5981 17.3788C11.5892 17.5239 11.583 18.8931 11.5811 19.7223C11.5809 19.771 11.572 19.8193 11.5547 19.8645L9.37021 25.587C9.35792 25.6192 9.36211 25.6553 9.38171 25.6835C9.40106 25.7117 9.43322 25.7287 9.46773 25.7287V25.7285Z" fill="white"/>
</g>
<defs>
<linearGradient id="paint0_linear" x1="44" y1="47.7714" x2="93.5233" y2="56.438" gradientUnits="userSpaceOnUse">
<stop stop-color="#5003E8"/>
<stop offset="1" stop-color="#B602F9"/>
</linearGradient>
<clipPath id="clip0">
<rect width="30" height="30" fill="white" transform="translate(6 7)"/>
</clipPath>
</defs>
</svg>
