<svg width="16" height="16" viewBox="0 0 16 16" fill="none" xmlns="http://www.w3.org/2000/svg">
<circle cx="8" cy="8" r="7.5" stroke="white"/>
<g clip-path="url(#clip0)">
<path d="M11.2128 10.1711L10.2732 9.23145L9.23145 10.2732L10.1711 11.2128C10.4588 11.5005 10.9252 11.5005 11.2129 11.2128C11.5005 10.9252 11.5005 10.4588 11.2128 10.1711Z" fill="white"/>
<path d="M7.52662 10.3792C7.57802 10.3792 7.62945 10.3596 7.66867 10.3203C7.74712 10.2419 7.74712 10.1147 7.66867 10.0362L7.43263 9.80021L11.3553 6.5931C11.4019 6.55495 11.429 6.49785 11.429 6.43757V4.77218C11.429 4.66124 11.3391 4.57129 11.2281 4.57129H9.5627C9.50242 4.57129 9.44532 4.59836 9.40717 4.64502L6.20007 8.56765L5.96404 8.33161C5.8856 8.25317 5.75839 8.25316 5.67994 8.33161C5.60148 8.41007 5.60148 8.53726 5.67994 8.61572L7.38456 10.3203C7.42379 10.3596 7.47519 10.3792 7.52662 10.3792ZM10.1783 5.53792C10.2567 5.45946 10.3839 5.45946 10.4624 5.53792C10.5408 5.61637 10.5408 5.74357 10.4624 5.82202L6.9584 9.32599L6.6743 9.04189L10.1783 5.53792Z" fill="white"/>
<path d="M5.82876 11.2128L6.76843 10.2732L5.72672 9.23145L4.78704 10.1711C4.49937 10.4588 4.49937 10.9252 4.78704 11.2129C5.0747 11.5005 5.5411 11.5005 5.82876 11.2128Z" fill="white"/>
<path d="M4.64502 6.59311L6.23324 7.89162L6.85141 7.13551L5.53792 5.82202C5.45946 5.74358 5.45946 5.61637 5.53792 5.53792C5.61637 5.45946 5.74357 5.45946 5.82202 5.53792L7.10701 6.82291L7.74037 6.04824L6.59311 4.64502C6.55496 4.59836 6.49786 4.57129 6.43758 4.57129H4.77218C4.66124 4.57129 4.57129 4.66124 4.57129 4.77218V6.4376C4.57129 6.49788 4.59836 6.55496 4.64502 6.59311Z" fill="white"/>
<path d="M10.0359 8.33179L9.79989 8.56783L9.70941 8.45716L9.17648 8.89287L9.32566 9.04205L9.04156 9.32616L8.86386 9.14846L8.31691 9.59563L8.56733 9.80037L8.3313 10.0364C8.25286 10.1148 8.25284 10.2421 8.3313 10.3205C8.40975 10.399 8.53694 10.399 8.6154 10.3205L10.32 8.61588C10.3593 8.57665 10.3789 8.52525 10.3789 8.47384C10.3789 8.42243 10.3593 8.371 10.32 8.33179C10.2416 8.25334 10.1144 8.25334 10.0359 8.33179Z" fill="white"/>
</g>
<defs>
<clipPath id="clip0">
<rect width="6.85714" height="6.85714" fill="white" transform="translate(4.57129 4.57129)"/>
</clipPath>
</defs>
</svg>
