<svg width="24" height="24" viewBox="0 0 24 24" fill="none" xmlns="http://www.w3.org/2000/svg">
<path fill-rule="evenodd" clip-rule="evenodd" d="M12 23.6667C18.4433 23.6667 23.6667 18.4434 23.6667 12C23.6667 5.55672 18.4433 0.333374 12 0.333374C5.55669 0.333374 0.333344 5.55672 0.333344 12C0.333344 18.4434 5.55669 23.6667 12 23.6667ZM15.5 9.66671C15.5 11.5997 13.933 13.1667 12 13.1667C10.067 13.1667 8.50001 11.5997 8.50001 9.66671C8.50001 7.73371 10.067 6.16671 12 6.16671C13.933 6.16671 15.5 7.73371 15.5 9.66671ZM4.99916 17.8334C6.59552 15.7081 9.13712 14.3334 11.9998 14.3334C14.8625 14.3334 17.4041 15.7081 19.0004 17.8334C17.4041 19.9587 14.8625 21.3334 11.9998 21.3334C9.13712 21.3334 6.59552 19.9587 4.99916 17.8334Z" fill="white"/>
</svg>
