<svg width="24" height="24" viewBox="0 0 24 24" fill="none" xmlns="http://www.w3.org/2000/svg">
<path fill-rule="evenodd" clip-rule="evenodd" d="M12.0002 23.6666C18.4435 23.6666 23.6668 18.4432 23.6668 11.9999C23.6668 5.5566 18.4435 0.333252 12.0002 0.333252C5.55684 0.333252 0.333496 5.5566 0.333496 11.9999C0.333496 18.4432 5.55684 23.6666 12.0002 23.6666ZM15.5002 9.66659C15.5002 11.5996 13.9332 13.1666 12.0002 13.1666C10.0672 13.1666 8.50016 11.5996 8.50016 9.66659C8.50016 7.73359 10.0672 6.16659 12.0002 6.16659C13.9332 6.16659 15.5002 7.73359 15.5002 9.66659ZM4.99931 17.8333C6.59567 15.708 9.13727 14.3333 11.9999 14.3333C14.8626 14.3333 17.4042 15.708 19.0006 17.8333C17.4042 19.9585 14.8626 21.3333 11.9999 21.3333C9.13727 21.3333 6.59567 19.9585 4.99931 17.8333Z" fill="url(#paint0_linear)"/>
<defs>
<linearGradient id="paint0_linear" x1="0.333496" y1="0.333252" x2="27.1505" y2="5.46619" gradientUnits="userSpaceOnUse">
<stop stop-color="#F1A31D"/>
<stop offset="1" stop-color="#FF005B"/>
</linearGradient>
</defs>
</svg>
