<svg width="18" height="17" viewBox="0 0 18 17" fill="none" xmlns="http://www.w3.org/2000/svg">
<path d="M17.12 15.5615C15.9538 13.5529 14.0862 12.0463 11.8763 11.3316C12.935 10.7016 13.7576 9.74157 14.2178 8.59883C14.678 7.45608 14.7503 6.19386 14.4236 5.00603C14.097 3.8182 13.3894 2.77045 12.4096 2.02372C11.4298 1.27698 10.2319 0.872559 8.99998 0.872559C7.76805 0.872559 6.57019 1.27698 5.59038 2.02372C4.61057 2.77045 3.90299 3.8182 3.57633 5.00603C3.24967 6.19386 3.32199 7.45608 3.78219 8.59883C4.24238 9.74157 5.065 10.7016 6.1237 11.3316C3.91386 12.0463 2.04627 13.5528 0.880052 15.5613C0.825081 15.6563 0.796099 15.7641 0.796021 15.8739C0.795942 15.9836 0.82477 16.0915 0.879605 16.1866C0.93444 16.2816 1.01335 16.3606 1.10839 16.4155C1.20343 16.4704 1.31126 16.4993 1.42101 16.4993L16.5791 16.4995C16.6888 16.4995 16.7966 16.4706 16.8917 16.4157C16.9867 16.3608 17.0657 16.2818 17.1205 16.1867C17.1753 16.0916 17.2042 15.9838 17.2041 15.874C17.204 15.7643 17.175 15.6565 17.12 15.5615L17.12 15.5615Z" fill="#FF8000"/>
</svg>
