<svg width="26" height="18" viewBox="0 0 26 18" fill="none" xmlns="http://www.w3.org/2000/svg">
<path d="M25.6769 3.79627C25.4195 3.61401 25.0758 3.61031 24.8155 3.7851L20.4431 6.66607C20.275 6.7784 20.1575 6.95319 20.1188 7.15179C20.0786 7.34964 20.1202 7.55571 20.2333 7.72384C20.4848 8.09876 20.6172 8.53614 20.6172 8.98916C20.6172 10.2492 19.5921 11.2743 18.332 11.2743C17.0719 11.2743 16.0469 10.2492 16.0469 8.98916C16.0469 8.24826 16.4129 7.54976 17.0243 7.1198C17.368 6.87879 17.4513 6.40419 17.2103 6.05979L13.6233 0.935355C13.3407 0.527733 12.6593 0.527733 12.3766 0.935355L8.78973 6.05984C8.54872 6.40424 8.63205 6.87884 8.97569 7.11985C9.58715 7.54982 9.95313 8.24831 9.95313 8.98921C9.95313 10.2493 8.92806 11.2744 7.66797 11.2744C6.40789 11.2744 5.38282 10.2493 5.38282 8.98921C5.38282 8.53619 5.5152 8.09881 5.76667 7.72389C5.87976 7.55576 5.9214 7.34974 5.88123 7.15184C5.84254 6.95324 5.72503 6.7784 5.55689 6.66612L1.18453 3.78515C0.922698 3.61036 0.580483 3.61407 0.323124 3.79632C0.0657645 3.97781 -0.0532667 4.29844 0.0226004 4.60344L3.12 16.7909C3.21522 17.1748 3.58714 17.4314 3.98435 17.3578C9.96801 16.361 16.032 16.361 22.0157 17.3578C22.0573 17.3652 22.1005 17.3682 22.1406 17.3682C22.4843 17.3682 22.7937 17.1346 22.8801 16.7909L25.9775 4.60344C26.0533 4.29839 25.9343 3.97776 25.6769 3.79627Z" fill="url(#paint0_linear)"/>
<defs>
<linearGradient id="paint0_linear" x1="1.52588e-05" y1="0.629639" x2="28.4614" y2="9.09044" gradientUnits="userSpaceOnUse">
<stop stop-color="#F1A31D"/>
<stop offset="1" stop-color="#FF005B"/>
</linearGradient>
</defs>
</svg>
