<svg width="20" height="20" viewBox="0 0 20 20" fill="none" xmlns="http://www.w3.org/2000/svg">
<g clip-path="url(#clip0)">
<path d="M12 6.00033C12 4.15866 10.5083 2.66699 8.66667 2.66699C6.825 2.66699 5.33333 4.15866 5.33333 6.00033C5.33333 7.84199 6.825 9.33366 8.66667 9.33366C10.5083 9.33366 12 7.84199 12 6.00033ZM2 14.3337V16.0003H15.3333V14.3337C15.3333 12.117 10.8917 11.0003 8.66667 11.0003C6.44167 11.0003 2 12.117 2 14.3337Z" fill="white"/>
<path d="M12.9 9.875L12.9 9.975L13 9.975L17.5011 9.975L16.4552 11.1549L16.3963 11.2213L16.4553 11.2877L16.9253 11.8164L17 11.9005L17.0747 11.8164L19.0747 9.56644L19.1338 9.5L19.0747 9.43356L17.0747 7.18356L17 7.09948L16.9253 7.18356L16.4553 7.71231L16.3963 7.77866L16.4552 7.84508L17.5011 9.025L13 9.025L12.9 9.025L12.9 9.125L12.9 9.875Z" fill="#FF8000" stroke="#FF8000" stroke-width="0.2"/>
</g>
<defs>
<clipPath id="clip0">
<rect width="20" height="20" fill="white"/>
</clipPath>
</defs>
</svg>
