<svg width="28" height="28" viewBox="0 0 28 28" fill="none" xmlns="http://www.w3.org/2000/svg">
<g clip-path="url(#clip0)">
<path d="M25.2444 21.5989L21.9556 18.3101L18.3096 21.9561L21.5985 25.245C22.6053 26.2518 24.2377 26.2518 25.2445 25.245C26.2513 24.2381 26.2513 22.6057 25.2444 21.5989Z" fill="url(#paint0_linear)"/>
<path d="M12.3412 22.3277C12.5211 22.3277 12.7011 22.259 12.8384 22.1217C13.113 21.8471 13.113 21.4019 12.8384 21.1273L12.0123 20.3012L25.7415 9.07634C25.9048 8.9428 25.9996 8.74297 25.9996 8.53198V2.70312C25.9996 2.31481 25.6848 2 25.2964 2H19.4675C19.2565 2 19.0567 2.09473 18.9231 2.25805L7.6983 15.9873L6.87218 15.1611C6.59763 14.8866 6.15241 14.8865 5.87782 15.1611C5.60323 15.4357 5.60323 15.8809 5.87782 16.1555L11.844 22.1217C11.9813 22.259 12.1612 22.3277 12.3412 22.3277ZM21.622 5.3832C21.8966 5.10861 22.3418 5.10861 22.6164 5.3832C22.891 5.6578 22.891 6.10297 22.6164 6.37756L10.3525 18.6415L9.3581 17.6471L21.622 5.3832Z" fill="url(#paint1_linear)"/>
<path d="M6.40115 25.245L9.69 21.9561L6.04401 18.3101L2.75512 21.599C1.74829 22.6058 1.74829 24.2382 2.75512 25.245C3.76195 26.2518 5.39432 26.2518 6.40115 25.245Z" fill="url(#paint2_linear)"/>
<path d="M2.25805 9.07639L7.81681 13.6212L9.98042 10.9748L5.3832 6.37756C5.10861 6.10302 5.10861 5.6578 5.3832 5.3832C5.6578 5.10861 6.10297 5.10861 6.37756 5.3832L10.875 9.88067L13.0918 7.16933L9.07639 2.25805C8.94284 2.09473 8.74302 2 8.53203 2H2.70312C2.31481 2 2 2.31481 2 2.70312V8.53208C2 8.74306 2.09473 8.94284 2.25805 9.07639Z" fill="url(#paint3_linear)"/>
<path d="M21.1272 15.1615L20.3011 15.9876L19.9844 15.6003L18.1191 17.1253L18.6413 17.6474L17.6469 18.6418L17.025 18.0199L15.1107 19.585L15.9871 20.3015L15.161 21.1277C14.8865 21.4022 14.8864 21.8474 15.161 22.122C15.4356 22.3966 15.8808 22.3966 16.1554 22.122L22.1216 16.1558C22.2589 16.0185 22.3275 15.8386 22.3275 15.6587C22.3275 15.4788 22.2589 15.2988 22.1216 15.1615C21.847 14.8869 21.4018 14.8869 21.1272 15.1615Z" fill="url(#paint4_linear)"/>
</g>
<defs>
<linearGradient id="paint0_linear" x1="18.3096" y1="18.3101" x2="27.1477" y2="20.0017" gradientUnits="userSpaceOnUse">
<stop stop-color="#F1A31D"/>
<stop offset="1" stop-color="#FF005B"/>
</linearGradient>
<linearGradient id="paint1_linear" x1="5.67188" y1="2" x2="29.0345" y2="6.47176" gradientUnits="userSpaceOnUse">
<stop stop-color="#F1A31D"/>
<stop offset="1" stop-color="#FF005B"/>
</linearGradient>
<linearGradient id="paint2_linear" x1="2" y1="18.3101" x2="10.8381" y2="20.0017" gradientUnits="userSpaceOnUse">
<stop stop-color="#F1A31D"/>
<stop offset="1" stop-color="#FF005B"/>
</linearGradient>
<linearGradient id="paint3_linear" x1="2" y1="2" x2="14.788" y2="4.33621" gradientUnits="userSpaceOnUse">
<stop stop-color="#F1A31D"/>
<stop offset="1" stop-color="#FF005B"/>
</linearGradient>
<linearGradient id="paint4_linear" x1="14.9551" y1="14.9556" x2="23.4282" y2="16.5774" gradientUnits="userSpaceOnUse">
<stop stop-color="#F1A31D"/>
<stop offset="1" stop-color="#FF005B"/>
</linearGradient>
<clipPath id="clip0">
<rect width="24" height="24" fill="white" transform="translate(2 2)"/>
</clipPath>
</defs>
</svg>
