<svg width="24" height="24" viewBox="0 0 24 24" fill="none" xmlns="http://www.w3.org/2000/svg">
<g clip-path="url(#clip0)">
<path d="M20.4336 17.6991L17.9669 15.2324L15.2324 17.9669L17.6991 20.4336C18.4542 21.1887 19.6785 21.1887 20.4336 20.4336C21.1887 19.6785 21.1887 18.4542 20.4336 17.6991Z" fill="#FFF2E6"/>
<path d="M10.7559 18.2458C10.8908 18.2458 11.0258 18.1942 11.1288 18.0913C11.3347 17.8853 11.3347 17.5515 11.1288 17.3455L10.5092 16.7259L20.8061 8.30726C20.9286 8.2071 20.9997 8.05723 20.9997 7.89899V3.52734C20.9997 3.23611 20.7636 3 20.4723 3H16.1006C15.9424 3 15.7925 3.07105 15.6923 3.19354L7.27373 13.4904L6.65413 12.8709C6.44822 12.6649 6.11431 12.6649 5.90837 12.8709C5.70242 13.0768 5.70242 13.4107 5.90837 13.6166L10.383 18.0913C10.486 18.1943 10.6209 18.2458 10.7559 18.2458ZM17.7165 5.5374C17.9224 5.33146 18.2563 5.33146 18.4623 5.5374C18.6682 5.74335 18.6682 6.07723 18.4623 6.28317L9.26435 15.4811L8.51858 14.7353L17.7165 5.5374Z" fill="#FFF2E6"/>
<path d="M6.30086 20.4336L8.7675 17.967L6.03301 15.2324L3.56634 17.6991C2.81122 18.4542 2.81122 19.6785 3.56634 20.4336C4.32146 21.1887 5.54574 21.1887 6.30086 20.4336Z" fill="#FFF2E6"/>
<path d="M3.19354 8.30729L7.36261 11.7159L8.98532 9.73109L5.5374 6.28317C5.33146 6.07726 5.33146 5.74335 5.5374 5.5374C5.74335 5.33146 6.07723 5.33146 6.28317 5.5374L9.65627 8.9105L11.3188 6.877L8.30729 3.19354C8.20713 3.07105 8.05726 3 7.89902 3H3.52734C3.23611 3 3 3.23611 3 3.52734V7.89906C3 8.0573 3.07105 8.20713 3.19354 8.30729Z" fill="#FFF2E6"/>
<path d="M17.3459 12.8708L16.7263 13.4904L16.4888 13.1999L15.0898 14.3436L15.4815 14.7352L14.7357 15.481L14.2692 15.0145L12.8335 16.1884L13.4908 16.7258L12.8712 17.3454C12.6653 17.5513 12.6653 17.8852 12.8712 18.0911C13.0772 18.2971 13.4111 18.2971 13.617 18.0911L18.0917 13.6165C18.1946 13.5135 18.2461 13.3786 18.2461 13.2436C18.2461 13.1087 18.1946 12.9737 18.0917 12.8708C17.8857 12.6648 17.5518 12.6648 17.3459 12.8708Z" fill="#FFF2E6"/>
</g>
<defs>
<clipPath id="clip0">
<rect width="18" height="18" fill="white" transform="translate(3 3)"/>
</clipPath>
</defs>
</svg>
